<?xml version="1.0" standalone="no"?>
<!DOCTYPE svg PUBLIC "-//W3C//DTD SVG 1.1//EN" "http://www.w3.org/Graphics/SVG/1.1/DTD/svg11.dtd" >
<svg>
<metadata>
Created by FontForge 20110222 at Wed Oct  1 08:05:48 2014
 By Orthosie Webhosting
Copr.1991, The Font Bureau, Inc. Designed by Tobias Frere-Jones.
</metadata>
<defs>
<font id="GarageGothicBlackRegular" horiz-adv-x="410" >
  <font-face 
    font-family="GarageGothicBlackRegular"
    font-weight="500"
    font-stretch="normal"
    units-per-em="1000"
    panose-1="0 0 0 0 0 0 0 0 0 0"
    ascent="800"
    descent="-200"
    x-height="478"
    cap-height="699"
    bbox="-43 -200 777.727 893"
    underline-thickness="92"
    underline-position="-87"
    unicode-range="U+0020-FB02"
  />
<missing-glyph horiz-adv-x="280" 
 />
    <glyph glyph-name=".notdef" horiz-adv-x="280" 
 />
    <glyph glyph-name=".null" horiz-adv-x="0" 
 />
    <glyph glyph-name="nonmarkingreturn" horiz-adv-x="333" 
 />
    <glyph glyph-name="space" unicode=" " horiz-adv-x="200" 
d="M-3 0z" />
    <glyph glyph-name="exclam" unicode="!" horiz-adv-x="210" 
d="M180 227q0 -12 -10.5 -14.5t-67.5 -2.5q-53 0 -62.5 2t-9.5 13v456q0 13 9 15.5t63 2.5q58 0 68 -2.5t10 -16.5v-453zM30 68q-4 38 20 67.5t58 25.5q45 -6 61 -28t13 -60q-2 -33 -22.5 -55.5t-51.5 -24.5q-23 -1 -38 4.5t-23 17.5t-11.5 23.5t-5.5 29.5z" />
    <glyph glyph-name="quotedbl" unicode="&#x22;" horiz-adv-x="273" 
d="M37 699q17 3 61 3q6 0 8 -0.5t5 -5t3 -13.5q0 -36 -0.5 -67t-0.5 -57q0 -7 -4.5 -16t-14.5 -7q-17 3 -58 0q-9 -1 -12 6.5t-3 24.5v86q-2 43 16 46zM165 699q50 0 61 3q7 2 11.5 -1.5t4.5 -17.5q0 -36 -0.5 -67t-0.5 -57q0 -7 -4.5 -16t-14.5 -7q-17 3 -58 0
q-9 -1 -12 6.5t-3 24.5v86q-2 46 16 46z" />
    <glyph glyph-name="numbersign" unicode="#" horiz-adv-x="551" 
d="M398 228q-3 -8 -53 -6.5t-52 9.5q0 7 3.5 30.5t7 43.5t1.5 23q-2 6 -56.5 6.5t-59.5 -6.5q-2 -2 -3 -17.5t-4 -37t-9 -35.5q-3 -8 -53 -8.5t-50 8.5q-1 12 1.5 33.5t5.5 38t1 18.5q-4 5 -12 5.5t-19 -0.5t-28 3q-8 1 -7.5 40.5t8.5 43.5q14 3 41 -0.5t28 4.5q6 4 16 56
t6 58q-3 4 -14.5 4.5t-26 -0.5t-32.5 3q-8 2 -7 40.5t9 41.5q15 5 44.5 2t33.5 2q5 4 7 13.5t5 29t5 30.5q1 8 52 7t51 -10q-8 -66 -4 -70q6 -6 58 -5t59 5q3 3 5 12.5t3.5 29t3.5 31.5q1 8 51.5 7t50.5 -10q1 -11 -1.5 -29.5t-4.5 -27.5t1 -14q6 -5 60 -3q8 0 11.5 -38
t-3.5 -40q-11 -2 -30.5 -2.5t-32.5 -2t-16 -5.5q-5 -4 -13.5 -57t-5.5 -61q1 -3 10 -3t28.5 1t31.5 1q5 0 9 -20t4 -37.5t-4 -20.5q-13 -3 -34.5 -4.5t-37.5 -2.5t-18 -3q-4 -3 -7 -21.5t-6 -44t-8 -38.5zM337 542q-2 5 -58.5 5t-62.5 -5q-6 -6 -12 -62t-1 -63q2 -5 58 -5
t61 5q5 10 11.5 64.5t3.5 60.5z" />
    <glyph glyph-name="dollar" unicode="$" 
d="M127 16q-40 15 -66.5 55.5t-26.5 92.5v56q0 5 11 6t56 1q83 0 83 -5v-28q0 -40 4.5 -53t20.5 -13q25 0 25 49q0 33 -13 61t-26.5 42.5t-42.5 39.5t-41 37q-47 47 -62 82.5t-15 106.5q0 48 25.5 84t69.5 55q6 3 6 15v60q0 11 70 11q80 0 80 -8v-68q0 -11 8 -15
q37 -19 59 -54t22 -80v-52q0 -4 -34 -4h-27q-84 0 -84 5v45q0 16 -7.5 25.5t-17.5 9.5t-17.5 -9t-7.5 -25q0 -50 11.5 -69t69.5 -68q26 -22 36 -31t31.5 -33.5t30.5 -45.5t17.5 -55.5t8.5 -74.5q0 -110 -95 -150q-5 -2 -5 -14v-54q0 -13 -79 -13q-70 0 -70 13v52q0 15 -8 18
z" />
    <glyph glyph-name="percent" unicode="%" horiz-adv-x="469" 
d="M133 15q-6 -15 -50 -15q-48 0 -52 11q-1 1 0 2q189 418 301 673q6 13 49 13q20 0 36 -5t12 -14q-27 -63 -296 -665zM439 82q0 -38 -24 -60t-64 -22q-38 0 -62.5 23t-24.5 59v96q0 37 24.5 59.5t62.5 22.5q40 0 64 -21.5t24 -60.5v-96zM205 521q0 -38 -24 -60t-64 -22
q-38 0 -62.5 23t-24.5 59v96q0 37 24.5 59.5t62.5 22.5q40 0 64 -21.5t24 -60.5v-96zM364 158v4.5v5v4.5t-0.5 4.5t-1 3.5t-1.5 3.5t-2.5 2.5t-3.5 1.5t-4 0.5q-3 0 -5.5 -1t-3.5 -2.5t-2 -3.5t-1 -5.5v-5.5v-6v-6v-55v-6v-6v-5.5t1 -5.5t2 -3.5t3.5 -2.5t5.5 -1q2 0 4 0.5
t3.5 1.5t2.5 2.5t1.5 3.5t1 3.5t0.5 4.5v4.5v5v4.5v55zM130 597v4.5v5v4.5t-0.5 4.5t-1 3.5t-1.5 3.5t-2.5 2.5t-3.5 1.5t-4 0.5q-3 0 -5.5 -1t-3.5 -2.5t-2 -3.5t-1 -5.5v-5.5v-6v-6v-55v-6v-6v-5.5t1 -5.5t2 -3.5t3.5 -2.5t5.5 -1q2 0 4 0.5t3.5 1.5t2.5 2.5t1.5 3.5
t1 3.5t0.5 4.5v4.5v5v4.5v55z" />
    <glyph glyph-name="ampersand" unicode="&#x26;" horiz-adv-x="503" 
d="M318 37q-4 0 -17 -7q-52 -30 -96 -30q-80 0 -127.5 44t-47.5 120q0 60 16.5 99.5t49.5 75.5q5 6 5 7q0 4 -2 8q-59 112 -59 154v38q0 70 46.5 112t118.5 42q71 0 118 -42.5t47 -111.5q0 -25 -5.5 -47t-12 -36.5t-21 -32t-23.5 -26t-29 -26.5t-28 -25q-4 -4 -4 -6
q0 -4 2 -8q16 -29 56 -95q5 -7 8 -7q4 0 5 9q2 18 2 30v38q0 4 5 5h48t56 -1t11 -6v-56q0 -73 -38 -132q-5 -7 -5 -11q0 -6 3 -10q56 -74 69 -90q9 -11 -5 -12q-6 -1 -50 -1q-52 0 -67 12q-5 4 -18 17q-8 8 -11 8zM204 455q21 51 21 96q0 34 -20 34q-10 0 -17.5 -9.5
t-7.5 -25.5v-55q0 -13 11 -41q3 -8 5 -8q4 0 8 9zM237 143q-35 50 -56 78l-5 5q-3 1 -3.5 -0.5t-2.5 -9.5q-4 -20 -4 -49q0 -19 11.5 -34t27.5 -15q13 0 31 9q5 3 5 7q0 3 -4 9z" />
    <glyph glyph-name="quotesingle" unicode="'" horiz-adv-x="134" 
d="M37 699q50 0 61 3q7 2 11.5 -1.5t4.5 -17.5q0 -36 -0.5 -67t-0.5 -57q0 -7 -4.5 -16t-14.5 -7q-17 3 -58 0q-9 -1 -12 6.5t-3 24.5v86q-2 46 16 46z" />
    <glyph glyph-name="parenleft" unicode="(" horiz-adv-x="266" 
d="M165 108q0 -61 66 -61q5 0 5 -58q0 -59 -5 -59q-101 0 -151 37.5t-50 133.5t-0.5 250t-0.5 248q0 96 50 133.5t151 37.5q5 0 5 -59q0 -58 -5 -58q-66 0 -66 -61q0 -93 0.5 -239.5t0.5 -244.5z" />
    <glyph glyph-name="parenright" unicode=")" horiz-adv-x="266" 
d="M101 592q0 61 -66 61q-5 0 -5 58q0 59 5 59q101 0 151 -37.5t50 -133.5v-498q0 -96 -50 -133.5t-151 -37.5q-5 0 -5 59q0 58 5 58q66 0 66 61v484z" />
    <glyph glyph-name="asterisk" unicode="*" horiz-adv-x="297" 
d="M29 616q-9 7 -7 19.5t12.5 22.5t19.5 4q50 -30 57 -25q3 1 4 5t0.5 11t-1 13t-1.5 17t-2 17q0 8 18.5 11t37 -1t18.5 -12q-1 -10 -2.5 -21.5t-2 -18l-1 -13t1 -10t4.5 -4.5q4 -1 11 2.5t23 15t23 16.5t18 -8t14.5 -27t-2.5 -19q-65 -23 -65 -34q0 -14 63 -42
q8 -6 5.5 -17.5t-13.5 -21.5t-20 -5q-33 18 -44 22t-16 -1q-8 -6 -3 -52q0 -8 -16 -11.5t-32 0t-15 11.5q5 49 -5 58q-4 1 -6 1t-9 -3t-11.5 -6t-14 -8t-16.5 -9q-8 -4 -19.5 9t-14.5 27t4 19q7 2 19 6t19 6.5t15 5.5t11.5 6t3.5 6q0 4 -8.5 9.5t-27.5 15z" />
    <glyph glyph-name="plus" unicode="+" horiz-adv-x="273" 
d="M176 213q-2 -7 -1.5 -17l1.5 -30t1 -26q0 -4 -34.5 -6t-35.5 2q-3 7 -2 41t-1 36q-3 3 -18.5 2.5t-30.5 -1.5t-25 1q-4 1 -4 36t5 37q7 2 39 0.5t32 1.5q2 2 2 15.5t-1 27t1 23.5q1 4 36 4t37 -5q2 -6 1 -23t-1.5 -28t1.5 -16q2 -2 12.5 -2t26 1t21.5 1q4 0 6 -34t-2 -36
q-7 -3 -36.5 -2.5t-29.5 -2.5z" />
    <glyph glyph-name="comma" unicode="," horiz-adv-x="205" 
d="M95 157q38 0 59 -20t21 -52q0 -59 -14 -93q-49 -119 -102 -110q-8 1 -9.5 10.5t2.5 23.5t9 27t10 25.5t6 16.5q2 8 -2.5 12.5t-13 7.5t-10.5 5q-21 16 -21 51q0 40 17.5 68t47.5 28z" />
    <glyph glyph-name="hyphen" unicode="-" horiz-adv-x="273" 
d="M238 283q0 -50 3 -61q2 -7 -1.5 -11.5t-17.5 -4.5q-36 0 -89.5 0.5t-79.5 0.5q-7 0 -16 4.5t-7 14.5q3 17 0 58q-1 9 6.5 12t24.5 3h131q46 2 46 -16z" />
    <glyph glyph-name="period" unicode="." horiz-adv-x="206" 
d="M30 68q-4 36 19 65t55 24q37 -3 54 -15t17 -29.5t-1 -39.5q-2 -31 -21 -52.5t-49 -23.5q-28 -2 -45 9t-22 25.5t-7 36.5z" />
    <glyph glyph-name="slash" unicode="/" horiz-adv-x="311" 
d="M165 15q-2 -15 -83 -15q-10 0 -17.5 0.5t-16.5 1.5t-14 4t-4 7q21 124 57.5 339t57.5 337q2 10 70 10q23 0 45.5 -4.5t20.5 -14.5q-44 -261 -116 -665z" />
    <glyph glyph-name="zero" unicode="0" 
d="M380 164q0 -76 -47.5 -120t-127.5 -44q-77 0 -126 45.5t-49 118.5v372q0 73 49 118.5t126 45.5q80 0 127.5 -44t47.5 -120v-372zM230 495v9.5v9.5v8.5t-1 9t-2 7.5t-3 6.5t-4.5 5t-6 3.5t-8.5 1q-6 0 -10.5 -1.5t-7.5 -5.5t-4.5 -7.5t-2 -10.5t-0.5 -11v-12.5v-11.5v-290
v-11.5v-12.5t0.5 -11t2 -10.5t4.5 -7.5t7.5 -5.5t10.5 -1.5q5 0 8.5 1t6 3.5t4.5 5t3 6.5t2 7.5t1 9v8.5v9.5v9.5v290z" />
    <glyph glyph-name="one" unicode="1" horiz-adv-x="369" 
d="M35 600q1 9 40 41q8 7 17.5 28.5t13.5 22.5q25 8 141 8q11 0 11 -30v-520q0 -23 3 -27q4 -5 17 -5h52q9 0 9 -60q0 -58 -11 -58h-284q-14 0 -14 57q0 61 16 61h39q15 0 18 2q5 3 5 30v365q0 24 -4 24q-5 0 -12 -4t-16.5 -12t-11.5 -9l-3.5 -3.5t-4.5 -4t-5 -4t-5 -3
l-4 -1t-3 1.5t-2 5q-9 59 -2 95z" />
    <glyph glyph-name="two" unicode="2" 
d="M185 150q5 -5 23 -5h157q15 0 15 -70q0 -75 -17 -75h-302q-19 0 -24 4q-3 2 -4.5 3.5t-2 4t-0.5 3.5v6v7v148q0 52 33 90q24 29 48.5 56.5t40.5 46.5q32 39 58 76q20 27 20 50v9.5v10v9t-1 9t-2 7.5t-3 6l-4.5 4.5t-6 3.5t-8.5 1q-6 0 -10.5 -2t-7.5 -6t-4.5 -8t-2 -11
t-0.5 -11v-11.5v-10.5v-16q0 -13 -79 -13q-67 0 -67 14v56q0 74 47.5 119t123.5 45q79 0 125 -43.5t46 -120.5v-41q0 -38 -21 -81t-36 -61.5t-44 -50.5q-21 -23 -42.5 -45.5t-37.5 -39.5q-15 -15 -15 -25v-23q0 -14 5 -19z" />
    <glyph glyph-name="three" unicode="3" 
d="M373 547q-34 -45 -95 -118q-7 -9 1 -10q1 0 12.5 -1.5t15.5 -2.5t13.5 -3.5t16 -7t12.5 -11.5q31 -34 31 -132v-97q0 -76 -47.5 -120t-127.5 -44q-77 0 -126 45.5t-49 118.5v66q0 20 72 20q78 0 78 -19v-26q0 -46 11 -56q6 -4 14 -4q9 0 14.5 5t7.5 16t2.5 17.5t0.5 21.5
v59q0 60 -31 60q-9 0 -14.5 -1t-7 -2t-5 -4.5l-4.5 -4.5q-5 -5 -41 31q-47 47 -42 51q17 21 54 63.5t63 73.5q10 12 2 24q-3 5 -151 5q-13 0 -13 68q0 72 13 72h313q14 0 14 -29q0 -2 0.5 -25.5t0.5 -40t-2 -34.5t-6 -24z" />
    <glyph glyph-name="four" unicode="4" horiz-adv-x="438" 
d="M377 689v-419q0 -12 2 -14q3 -3 23 -3q6 0 6 -78q0 -52 -6 -52q-16 0 -21 -4q-3 -3 -3 -12v-95q0 -12 -53 -12q-81 0 -81 13v79q0 19 -2 24q-3 5 -27 5h-166q-14 0 -16 4q-3 5 -3 23v72q0 18 2 31q3 14 8 28q126 324 159 400q6 13 22 18t62 5q94 0 94 -13zM241 255
q3 1 3 18q1 47 1.5 91t1.5 91q0 29 -4 29q-7 0 -12 -29q-7 -30 -17.5 -70t-16.5 -63q-4 -14 -6 -26q-2 -14 -2 -16v-14q0 -7 3 -8t4 -3q2 -3 14 -3q25 0 31 3z" />
    <glyph glyph-name="five" unicode="5" 
d="M60 700h300q17 0 17 -61q0 -72 -15 -72h-153q-17 0 -23 -7t-6 -21v-66v-7v-7.5v-7t1 -7t2.5 -5t4 -3.5t6.5 -1q2 0 22 8t49 8q52 0 88 -41q27 -31 27 -79v-98q0 -30 -11.5 -66.5t-28.5 -60.5t-52 -49t-70 -35q-53 -15 -108.5 -22t-73.5 1q-5 3 -5 70q0 58 4 62q7 7 17 9
t32.5 3.5t44.5 6.5q38 8 68 22q33 15 33 46v49v7q0 20 -1 28.5t-6 16t-17 7.5q-22 0 -26 -19q0 -2 -5.5 -3t-13.5 -1h-11q-12 -1 -52.5 -1.5t-64.5 2.5q-3 1 -3 44v314q0 20 4 26q7 10 26 10z" />
    <glyph glyph-name="six" unicode="6" 
d="M30 164v275q0 47 7 75t33 63q13 18 22 28.5t34.5 30.5t54 31.5t78.5 22t111 11.5q6 0 6 -63t-6 -64q-87 -11 -117 -19t-55 -33q-18 -18 -18 -56v-31q0 -19 4 -19q1 0 3.5 3t8 7t14 7.5t24.5 6.5t36 3q43 0 76.5 -36.5t33.5 -130.5v-113q0 -76 -47.5 -119.5t-127.5 -43.5
q-77 0 -126 45.5t-49 118.5zM230 273v9.5v9.5v8.5t-1 9t-2 7.5t-3 6.5t-4.5 5t-6 3.5t-8.5 1q-6 0 -10.5 -1.5t-7.5 -5.5t-4.5 -7.5t-2 -10.5t-0.5 -11v-12.5v-11.5v-68v-11.5v-12.5t0.5 -11t2 -10.5t4.5 -7.5t7.5 -5.5t10.5 -1.5q5 0 8.5 1t6 3.5t4.5 5t3 6.5t2 7.5t1 9
v8.5v9.5v9.5v68z" />
    <glyph glyph-name="seven" unicode="7" 
d="M132 570h-90q-12 0 -12 67q0 63 10 63h323q11 0 14 -9q2 -5 2 -38v-51q0 -8 -3 -16t-8 -17t-18.5 -34t-27.5 -57q-30 -64 -57 -176q-29 -118 -42 -235q-1 -4 -2 -19.5t-2.5 -27t-3.5 -13.5q-9 -7 -80 -7q-48 0 -54 5q-4 4 -2 52q8 134 40 271q28 127 66 198q5 10 4 22
t-5 18q-3 4 -52 4z" />
    <glyph glyph-name="eight" unicode="8" 
d="M30 463v73q0 73 49 118.5t126 45.5q80 0 127.5 -44t47.5 -120v-76q0 -46 -22 -66q-26 -21 -38 -25q11 -4 34 -23q26 -22 26 -74v-108q0 -76 -47.5 -120t-127.5 -44q-77 0 -126 45.5t-49 118.5v119q0 44 19 63q16 18 38 25q-15 5 -37 29q-20 20 -20 63zM230 495v9.5v9.5
v8.5t-1 9t-2 7.5t-3 6.5t-4.5 5t-6 3.5t-8.5 1q-6 0 -10.5 -1.5t-7.5 -5.5t-4.5 -7.5t-2 -10.5t-0.5 -11v-12.5v-11.5v-26v-11.5v-12.5t0.5 -11t2 -10.5t4.5 -7.5t7.5 -5.5t10.5 -1.5q5 0 8.5 1t6 3.5t4.5 5t3 6.5t2 7.5t1 9v8.5v9.5v9.5v26zM230 259v9.5v9.5v8.5t-1 9
t-2 7.5t-3 6.5t-4.5 5t-6 3.5t-8.5 1q-6 0 -10.5 -1.5t-7.5 -5.5t-4.5 -7.5t-2 -10.5t-0.5 -11v-12.5v-11.5v-54v-11.5v-12.5t0.5 -11t2 -10.5t4.5 -7.5t7.5 -5.5t10.5 -1.5q5 0 8.5 1t6 3.5t4.5 5t3 6.5t2 7.5t1 9v8.5v9.5v9.5v54z" />
    <glyph glyph-name="nine" unicode="9" 
d="M380 537v-275q0 -47 -7 -75t-33 -63q-13 -18 -22 -28.5t-34.5 -30.5t-54 -31.5t-78.5 -22t-111 -11.5q-6 0 -6 63t6 64q87 11 117 19t55 33q18 18 18 46v31q0 19 -4 19q-1 0 -3 -3t-6 -6.5t-12 -7.5t-23 -7t-35 -3q-16 0 -34 7.5t-38 24.5t-32.5 52.5t-12.5 82.5v123
q0 76 47.5 119.5t127.5 43.5q77 0 126 -45.5t49 -118.5zM180 428v-9.5v-9.5v-8.5t1 -9t2 -7.5t3 -6.5t4.5 -5t6 -3.5t8.5 -1q6 0 10.5 1.5t7.5 5.5t4.5 7.5t2 10.5t0.5 11v12.5v11.5v68v11.5v12.5t-0.5 11t-2 10.5t-4.5 7.5t-7.5 5.5t-10.5 1.5q-5 0 -8.5 -1t-6 -3.5
t-4.5 -5t-3 -6.5t-2 -7.5t-1 -9v-8.5v-9.5v-9.5v-68z" />
    <glyph glyph-name="colon" unicode=":" horiz-adv-x="206" 
d="M30 68q-4 36 19 65t55 24q37 -3 54 -15t17 -29.5t-1 -39.5q-2 -31 -21 -52.5t-49 -23.5q-28 -2 -45 9t-22 25.5t-7 36.5zM30 342q-4 36 19 65t55 24q37 -3 54 -15t17 -29.5t-1 -39.5q-2 -31 -21 -52.5t-49 -23.5q-28 -2 -45 9t-22 25.5t-7 36.5z" />
    <glyph glyph-name="semicolon" unicode=";" horiz-adv-x="206" 
d="M30 342q-4 36 19 65t55 24q37 -3 54 -15t17 -29.5t-1 -39.5q-2 -31 -21 -52.5t-49 -23.5q-28 -2 -45 9t-22 25.5t-7 36.5zM95 157q38 0 59 -20t21 -52q0 -59 -14 -93q-49 -119 -102 -110q-8 1 -9.5 10.5t2.5 23.5t9 27t10 25.5t6 16.5q2 8 -2.5 12.5t-13 7.5t-10.5 5
q-21 16 -21 51q0 40 17.5 68t47.5 28z" />
    <glyph glyph-name="less" unicode="&#x3c;" horiz-adv-x="303" 
d="M211 474q36 -18 56 -24q21 -5 5 -24q-137 -175 -137 -178q0 -5 131 -180q15 -20 -5 -24q-10 -3 -58 -27q-6 -4 -91 108t-85 122t89 120.5t95 106.5z" />
    <glyph glyph-name="equal" unicode="=" horiz-adv-x="293" 
d="M209 379q9 0 24 -0.5t24 -0.5q4 0 6 -38t-2 -40q-6 -3 -37 -5q-23 -2 -75 -2.5t-76 0.5q-31 0 -43 5q-6 3 -7.5 39.5t8.5 40.5q6 2 37 2q18 1 76.5 0t64.5 -1zM209 211q6 0 19 1.5t20.5 1t8.5 -3.5q4 -11 6 -44t-2 -34q-6 -3 -37 -5q-23 -2 -75 -2.5t-76 0.5q-22 0 -43 5
q-5 1 -5 38.5t6 41.5t12 4.5t13.5 -1t11.5 -1.5q18 1 76.5 0t64.5 -1z" />
    <glyph glyph-name="greater" unicode="&#x3e;" horiz-adv-x="303" 
d="M272 247q0 -10 -80 -122t-86 -108q-51 25 -56 27q-18 4 -5 24q119 177 119 180t-24.5 35.5t-66 84.5t-46.5 58q-15 19 5 24q20 6 56 24q6 4 95 -106.5t89 -120.5z" />
    <glyph glyph-name="question" unicode="?" horiz-adv-x="406" 
d="M114 228q0 10 0.5 19t0.5 23q0 41 6 57t31 46q2 3 16 19.5t22 26t18.5 25.5t16 29.5t5.5 25.5v9.5v10v9t-1 9t-2 7.5t-3 6l-4.5 4.5t-6 3.5t-8.5 1q-6 0 -10.5 -2t-7.5 -6t-4.5 -8t-2 -11t-0.5 -11v-11.5v-10.5v-16q0 -13 -79 -13q-67 0 -67 14v56q0 74 47.5 119
t123.5 45q79 0 125 -43.5t46 -120.5v-41q0 -39 -13 -72t-23.5 -46t-36.5 -41q-12 -13 -19.5 -24t-11.5 -17.5t-6 -18.5t-2.5 -16t0 -20.5t0.5 -22.5q0 -16 -78 -13h-13t-14 0.5t-13 1t-13 2t-9.5 3.5t-7 5t-2.5 8zM115 68q-4 36 19 65t55 24q37 -3 54 -15t17 -29.5t-1 -39.5
q-2 -31 -21 -52.5t-49 -23.5q-28 -2 -45 9t-22 25.5t-7 36.5z" />
    <glyph glyph-name="at" unicode="@" horiz-adv-x="554" 
d="M423 227q-26 0 -42 10t-21.5 20.5t-6.5 10.5l-3 -4q-2 -4 -6.5 -10t-12.5 -12.5t-23 -10.5t-35 -4q-51 0 -78.5 35t-27.5 71v58q0 40 29.5 73t76.5 33q9 0 17 -1.5t13 -3t10.5 -5t7.5 -5.5t6 -5.5t5 -4.5q7 -6 7 6q0 19 18 19q24 0 24 -5v-154q0 -28 12.5 -43t25.5 -15
q23 0 36 17.5t13 69.5q0 84 -54 136t-135 52q-79 0 -135 -55.5t-56 -135.5q0 -77 56 -132t135 -55h71q10 0 10 -23q0 -32 -7 -32h-76q-100 0 -171 71t-71 171t71 171t171 71q106 0 174 -63t68 -184q0 -45 -10 -74t-27.5 -40.5t-29.5 -14.5t-29 -3zM216 392v-59q0 -29 19 -43
t39 -14t39 14t19 43v59q0 24 -14.5 41.5t-43.5 17.5t-43.5 -19.5t-14.5 -39.5z" />
    <glyph glyph-name="A" unicode="A" horiz-adv-x="392" 
d="M150 10q-1 -10 -68 -10q-73 0 -72 9q63 388 106 677q2 15 76 15q70 0 73 -18q55 -327 117 -673q2 -9 -55 -10h-24h-9.5h-10h-9.5t-9 0.5t-7.5 1t-7.5 1.5t-5.5 2t-4 3t-1.5 4q-4 25 -9.5 66t-9.5 70q-1 7 -5 7.5t-21 0.5h-8q-21 0 -22 -8q-11 -100 -14 -138zM172 259
q0 -6 3 -7t16 -1h7.5h6.5t4 0.5t3 2t1 4.5q-2 34 -5.5 87.5t-5.5 81.5q0 9 -3 26t-7 17t-6.5 -20t-2.5 -28q-2 -35 -5.5 -83.5t-5.5 -79.5z" />
    <glyph glyph-name="B" unicode="B" horiz-adv-x="415" 
d="M390 164q0 -76 -47.5 -120t-127.5 -44h-145q-23 0 -26.5 3.5t-3.5 26.5v640q0 22 4 26t26 4h141q80 0 127.5 -44t47.5 -120v-80q0 -25 -7.5 -43.5t-18.5 -28t-22 -14.5t-18.5 -7t-7.5 -3t8 -2.5t19.5 -6t23 -13t19.5 -26t8 -41.5v-107zM236 495v9.5v9.5v8.5t-1 9t-2 7.5
t-3 6.5t-4.5 5t-6 3.5t-8.5 1h-3q-12 0 -15 -1.5t-3 -10.5v-110q0 -9 4 -10.5t17 -1.5q25 0 25 33v41zM240 226v9.5v9.5v8.5t-1 9t-2 7.5t-3 6.5t-4.5 5t-6 3.5t-8.5 1q-22 0 -24 -5q-1 -2 -1 -7v-117q0 -10 2.5 -11t22.5 -1q15 0 20 8.5t5 32.5v40z" />
    <glyph glyph-name="C" unicode="C" horiz-adv-x="387" 
d="M291 458q-57 0 -62 3q-4 2 -4 7v58q0 29 -25 29q-6 0 -10.5 -1.5t-7.5 -5.5t-4.5 -7.5t-2 -10.5t-0.5 -11v-12.5v-11.5v-290q0 -19 1 -29t6.5 -20.5t17.5 -10.5q25 0 25 29v45q0 13 8.5 15t49.5 2h18q44 0 55 -5t11 -24v-43q0 -77 -44 -120.5t-123 -43.5q-77 0 -126 45.5
t-49 118.5v372q0 73 49 118.5t126 45.5q79 0 123 -43.5t44 -120.5v-64q0 -5 -3 -7.5t-20 -4.5t-53 -2z" />
    <glyph glyph-name="D" unicode="D" horiz-adv-x="415" 
d="M390 164q0 -76 -47.5 -120t-127.5 -44h-145q-23 0 -26.5 3.5t-3.5 26.5v640q0 22 4 26t26 4h145q80 0 127.5 -44t47.5 -120v-372zM240 495v9.5v9.5v8.5t-1 9t-2 7.5t-3 6.5t-4.5 5t-6 3.5t-8.5 1q-20 0 -22.5 -1t-2.5 -11v-386q0 -10 2.5 -11t22.5 -1q5 0 8.5 1t6 3.5
t4.5 5t3 6.5t2 7.5t1 9v8.5v9.5v9.5v290z" />
    <glyph glyph-name="E" unicode="E" horiz-adv-x="351" 
d="M46 4q-6 5 -6 34v632q0 13 7 22q6 8 23 8h249q9 0 10.5 -9t1.5 -55q0 -55 -1.5 -65.5t-11.5 -10.5h-100q-19 0 -23 -5q-5 -7 -5 -19v-73q0 -21 6 -26q6 -4 22 -4h49q9 0 10 -9t1 -62v-22q0 -46 -11 -46h-45q-19 0 -25 -3q-7 -5 -7 -29v-83q0 -32 5 -35q7 -4 30 -4h95
q9 0 11 -9.5t2 -57.5q0 -53 -2 -63t-10 -10h-235q-35 0 -40 4z" />
    <glyph glyph-name="F" unicode="F" horiz-adv-x="340" 
d="M105 0q-49 0 -57 2t-8 17v651q0 13 7 22q6 8 23 8h249q9 0 10.5 -9t1.5 -55q0 -55 -1.5 -65.5t-11.5 -10.5h-100q-19 0 -23 -5q-5 -7 -5 -19v-85q0 -21 6 -26q6 -4 22 -4h49q9 0 10 -9t1 -62v-22q0 -46 -11 -46h-45q-19 0 -25 -3q-7 -5 -7 -29v-231q0 -14 -10.5 -16.5
t-63.5 -2.5h-11z" />
    <glyph glyph-name="G" unicode="G" horiz-adv-x="400" 
d="M291 458q-57 0 -62 3q-4 2 -4 7v58q0 29 -25 29q-6 0 -10.5 -1.5t-7.5 -5.5t-4.5 -7.5t-2 -10.5t-0.5 -11v-12.5v-11.5v-290v-11.5v-12.5t0.5 -11t2 -10.5t4.5 -7.5t7.5 -5.5t10.5 -1.5q25 0 25 29v90q0 7 -2.5 10t-4.5 3.5t-7 0.5q-16 0 -16 10v59q0 13 13 15t73 2
q56 0 75 -6t19 -23v-317q0 -18 -10 -18h-20q-7 0 -22 26t-17 26q-3 0 -9 -8t-14.5 -18t-30.5 -18t-52 -8q-77 0 -126 45.5t-49 118.5v372q0 73 49 118.5t126 45.5q80 0 127.5 -44t47.5 -120v-64q0 -14 -84 -14z" />
    <glyph glyph-name="H" unicode="H" horiz-adv-x="430" 
d="M112 0q-53 0 -62.5 2t-9.5 13v666q0 13 9 15.5t63 2.5q58 0 68 -2.5t10 -16.5v-232q0 -12 2.5 -15t11.5 -3h26q4 0 6 0.5t3 4t1 10.5v239q0 11 10 13t65 2q56 0 65.5 -2t9.5 -14v-662q0 -16 -9 -18.5t-65 -2.5q-55 0 -65.5 3t-10.5 18v256q0 9 -2 11t-10 2h-31
q-8 0 -8 -14v-259q0 -12 -10 -14.5t-67 -2.5z" />
    <glyph glyph-name="I" unicode="I" horiz-adv-x="230" 
d="M190 17q0 -12 -10.5 -14.5t-67.5 -2.5q-53 0 -62.5 2t-9.5 13v666q0 13 9 15.5t63 2.5q58 0 68 -2.5t10 -16.5v-663z" />
    <glyph glyph-name="J" unicode="J" horiz-adv-x="380" 
d="M156 205q0 -60 32 -60t32 60v465q0 21 10 25.5t54 4.5q56 0 64 -3.5t8 -26.5v-506q0 -77 -44.5 -120.5t-123.5 -43.5q-76 0 -122 45t-46 119v41q0 22 8 26t60 4q51 0 59.5 -4t8.5 -26z" />
    <glyph glyph-name="K" unicode="K" horiz-adv-x="453" 
d="M190 238v-220q0 -18 -75 -18t-75 16v669q0 14 74 14q76 0 76 -15v-242q2 -19 5 -20q2 1 7 19q15 50 35.5 124.5t33.5 120.5q2 8 11.5 9t64.5 1q79 -1 79 -10q-57 -161 -91 -246q-10 -28 -10 -33q0 -8 9 -36q44 -141 109 -359q1 -4 -1 -6t-19.5 -4t-52.5 -2q-69 0 -75 4
q-4 3 -6 10q-57 228 -70 282q-4 17 -16 -6q-3 -4 -5 -10q-8 -19 -8 -42z" />
    <glyph glyph-name="L" unicode="L" horiz-adv-x="354" 
d="M110 700q55 0 67.5 -3.5t12.5 -16.5v-501q0 -32 5 -35q7 -4 30 -4h95q9 0 11 -9.5t2 -57.5q0 -53 -2 -63t-10 -10h-235q-35 0 -40 4q-6 5 -6 34v642q0 8 2.5 11.5t18 6t49.5 2.5z" />
    <glyph glyph-name="M" unicode="M" horiz-adv-x="526" 
d="M182 17q0 -12 -10.5 -14.5t-67.5 -2.5q-62 9 -64 15v666q0 13 9 15.5t55 2.5q47 0 61 -3.5t17 -15.5q5 -17 17.5 -59t18.5 -64q34 -123 45 -123q9 0 43 123q6 22 18.5 64.5l17.5 59.5q3 11 16 14.5t56 3.5q49 0 60.5 -3t11.5 -16v-663q0 -13 -8 -15t-64 -2q-53 0 -62.5 2
t-9.5 13v350q0 14 -10 16q-7 2 -8 -7q-21 -120 -30 -140q-6 -14 -18 -14h-24q-12 0 -18 13q-7 16 -29 139q-1 6 -6.5 7.5t-11 -3t-5.5 -11.5v-348z" />
    <glyph glyph-name="N" unicode="N" horiz-adv-x="462" 
d="M214 282q-13 44 -21 44q-7 0 -7 -50v-259q0 -12 -10.5 -14.5t-67.5 -2.5q-52 0 -60 2t-8 13v666q0 14 8 16t60 2q43 0 52.5 -3t13.5 -16q39 -139 80 -260q8 -27 14 -27q8 0 8 41v247q0 13 9 15.5t63 2.5q57 0 65.5 -2.5t8.5 -16.5v-663q0 -12 -7 -14q-9 -3 -67 -3
q-40 0 -46 5q-4 3 -6 10q-17 49 -82 267z" />
    <glyph glyph-name="O" unicode="O" horiz-adv-x="400" 
d="M375 164q0 -76 -47.5 -120t-127.5 -44q-77 0 -126 45.5t-49 118.5v372q0 73 49 118.5t126 45.5q80 0 127.5 -44t47.5 -120v-372zM225 495v9.5v9.5v8.5t-1 9t-2 7.5t-3 6.5t-4.5 5t-6 3.5t-8.5 1q-6 0 -10.5 -1.5t-7.5 -5.5t-4.5 -7.5t-2 -10.5t-0.5 -11v-12.5v-11.5v-290
v-11.5v-12.5t0.5 -11t2 -10.5t4.5 -7.5t7.5 -5.5t10.5 -1.5q5 0 8.5 1t6 3.5t4.5 5t3 6.5t2 7.5t1 9v8.5v9.5v9.5v290z" />
    <glyph glyph-name="P" unicode="P" 
d="M390 404q0 -76 -47.5 -120t-127.5 -44q-13 0 -19 -8t-6 -34v-181q0 -17 -60 -17h-17q-58 0 -66 7q-7 5 -7 23v640q0 22 4 26t26 4h145q80 0 127.5 -44t47.5 -120v-132zM240 495v9.5v9.5v8.5t-1 9t-2 7.5t-3 6.5t-4.5 5t-6 3.5t-8.5 1q-20 0 -22.5 -1t-2.5 -11v-156
q0 -10 2.5 -11t22.5 -1q5 0 8.5 1t6 3.5t4.5 5t3 6.5t2 7.5t1 9v8.5v9.5v9.5v60z" />
    <glyph glyph-name="Q" unicode="Q" horiz-adv-x="400" 
d="M105 23q-80 45 -80 141v372q0 73 49 118.5t126 45.5q80 0 127.5 -44t47.5 -120v-372q0 -53 -24 -91t-59 -53q-17 -8 -17 -15q0 -22 10 -28.5t48 -6.5q15 0 15 -50q0 -42 -8 -45q-2 -1 -4 -1h-36q-34 0 -59.5 3.5t-54.5 14.5t-45 36.5t-16 64.5q0 19 -20 30zM225 495v9.5
v9.5v8.5t-1 9t-2 7.5t-3 6.5t-4.5 5t-6 3.5t-8.5 1q-6 0 -10.5 -1.5t-7.5 -5.5t-4.5 -7.5t-2 -10.5t-0.5 -11v-12.5v-11.5v-290v-11.5v-12.5t0.5 -11t2 -10.5t4.5 -7.5t7.5 -5.5t10.5 -1.5q5 0 8.5 1t6 3.5t4.5 5t3 6.5t2 7.5t1 9v8.5v9.5v9.5v290z" />
    <glyph glyph-name="R" unicode="R" horiz-adv-x="420" 
d="M390 15q0 -11 -9.5 -13t-54.5 -2h-12h-9q-48 0 -56.5 2.5t-8.5 17.5v206v9.5v9.5v8.5t-1 9t-2 7.5t-3 6.5t-4.5 5t-6 3.5t-8.5 1q-22 0 -24 -4q-1 -2 -1 -8v-252q0 -16 -13 -19t-68 -3h-5q-43 0 -53.5 4t-10.5 26v640q0 22 4 26t26 4h141q80 0 127.5 -44t47.5 -120v-80
q0 -25 -7.5 -44t-18.5 -29t-22 -16t-18.5 -8.5t-7.5 -3.5t8 -2t19.5 -5t23 -11.5t19.5 -24.5t8 -41v-256zM236 495v9.5v9.5v8.5t-1 9t-2 7.5t-3 6.5t-4.5 5t-6 3.5t-8.5 1q-19 0 -20 -5q-1 -2 -1 -7v-110q0 -9 3.5 -10.5t17.5 -1.5q25 0 25 33v41z" />
    <glyph glyph-name="S" unicode="S" horiz-adv-x="390" 
d="M20 546q0 68 49.5 111t120.5 43q73 0 121.5 -42t48.5 -112v-52q0 -4 -34 -4h-27q-84 0 -84 5v45q0 16 -7.5 25.5t-17.5 9.5t-17.5 -9t-7.5 -25q0 -50 11.5 -69t69.5 -68q26 -22 36 -31t31.5 -33.5t30.5 -45.5t17.5 -55.5t8.5 -74.5q0 -76 -47.5 -120t-127.5 -44
q-76 0 -125.5 44.5t-49.5 119.5v56q0 5 11 6t56 1q83 0 83 -5v-28q0 -40 4.5 -53t20.5 -13q25 0 25 49q0 33 -13 61t-26.5 42.5t-42.5 39.5t-41 37q-47 47 -62 82.5t-15 106.5z" />
    <glyph glyph-name="T" unicode="T" horiz-adv-x="390" 
d="M119 521q0 32 -7 37q-5 2 -37 2h-37q-11 0 -14.5 12.5t-3.5 58.5t2.5 57.5t11.5 11.5h323q9 0 11 -10.5t2 -53.5q0 -52 -2 -64t-10 -12h-43q-33 0 -38 -2q-7 -5 -7 -37v-511q0 -7 -12.5 -8.5t-67.5 -1.5q-50 0 -60.5 1.5t-10.5 8.5v511z" />
    <glyph glyph-name="U" unicode="U" 
d="M380 680v-516q0 -76 -47.5 -120t-127.5 -44q-77 0 -126 45.5t-49 118.5v516q0 15 10.5 17.5t70.5 2.5q58 0 65 -7q4 -4 4 -13v-475v-11.5v-12.5t0.5 -11t2 -10.5t4.5 -7.5t7.5 -5.5t10.5 -1.5q5 0 8.5 1t6 3.5t4.5 5t3 6.5t2 7.5t1 9v8.5v9.5v9.5v475q0 15 9.5 17.5
t59.5 2.5q39 0 56.5 -2t21 -5.5t3.5 -12.5z" />
    <glyph glyph-name="V" unicode="V" horiz-adv-x="396" 
d="M230 680q2 14 11.5 16.5t66.5 2.5q54 0 64.5 -2.5t8.5 -15.5q-20 -122 -64 -366.5t-52 -298.5q-2 -12 -11 -14t-48 -2h-18q-50 0 -62.5 2.5t-13.5 14.5q-73 517 -97 664q-2 13 9.5 15.5t67.5 2.5q57 0 66 -2.5t12 -16.5q2 -11 6.5 -105t10 -179.5t9.5 -85.5t11.5 85.5
t14 180t8.5 104.5z" />
    <glyph glyph-name="W" unicode="W" horiz-adv-x="486" 
d="M217 12q-3 -12 -78 -12q-62 0 -63 11q-9 110 -56 677q-1 5 22.5 8.5t43.5 3.5q73 0 73 -11q4 -94 13 -237t12 -226q0 -10 6 -10q7 0 7 11q3 43 5.5 82.5t4.5 84.5t4 75q1 12 32 12q37 0 38 -12q1 -22 5.5 -105t9.5 -141q0 -10 6 -10q7 0 7 11q4 105 11.5 279t8.5 187
q0 10 65 10q66 0 70 -8q1 -1 1 -3q-42 -510 -56 -678q-1 -11 -51 -11h-9q-63 0 -65 11q-7 28 -15.5 72t-12.5 61q-3 11 -7 11q-3 0 -6 -10q-3 -17 -12 -63t-14 -70z" />
    <glyph glyph-name="X" unicode="X" horiz-adv-x="424" 
d="M212 172q-7 0 -9 -16q-1 -3 -1 -5q-16 -95 -29 -134q-4 -11 -15.5 -14t-60.5 -3q-70 0 -76 6q-3 3 -1 10q8 24 44 138t58 178q7 20 7 30q0 3 -9 28q-40 119 -102 291q-4 12 9 15t68 3q57 0 66.5 -2.5t11.5 -16.5q15 -89 27 -128q7 -20 10 -20q7 0 10 16q9 33 27 132
q2 14 11.5 16.5t66.5 2.5q70 0 74 -7q2 -4 -1 -11q-22 -61 -96 -286q-2 -7 -5 -13.5t-4.5 -10t-1.5 -7.5q0 -13 6 -31q20 -58 55.5 -163t51.5 -154q4 -12 -10.5 -14t-70.5 -2q-49 0 -60.5 3t-15.5 14l-27 132q-6 23 -8 23z" />
    <glyph glyph-name="Y" unicode="Y" horiz-adv-x="408" 
d="M132 243q0 43 -1 49q0 1 -16 59q-8 28 -42.5 147t-52.5 187q-2 8 20.5 11t46.5 3q79 0 81 -16q6 -43 17.5 -120.5t17.5 -118.5q0 -9 6 -9q5 0 5 10q7 51 17 130t14 108q2 16 75 16q13 0 23 -0.5t22 -1.5t18 -4t5 -8q-54 -213 -88 -323q-3 -10 -7.5 -30t-6.5 -28
q-5 -15 -5 -58v-238q0 -8 -75 -8t-75 11q0 39 0.5 112.5t0.5 119.5z" />
    <glyph glyph-name="Z" unicode="Z" horiz-adv-x="344" 
d="M165 165q-4 -13 1 -20t20 -7h126q11 0 11 -74q0 -64 -11 -64h-273q-19 0 -19 26q0 146 5 158q140 331 152 358q9 19 -7 31q-5 2 -21 2h-111q-12 0 -12 57q0 68 12 68h269q13 0 16 -4t3 -24q0 -105 -3 -113z" />
    <glyph glyph-name="bracketleft" unicode="[" horiz-adv-x="269" 
d="M230 -70q-13 0 -45 -1t-54.5 -1t-48 1t-39 6.5t-13.5 14.5v798q0 9 13 14t40 6.5t47 2t55.5 0t44.5 -0.5q4 0 6 -5t2.5 -13t0.5 -15.5t-0.5 -16t-0.5 -10.5q0 -57 -8 -57h-9h-8h-7t-7 -0.5t-5.5 -1.5t-5 -2t-4 -3t-3.5 -4.5t-1.5 -6t-0.5 -7.5v-555q0 -9 2 -15t4 -9
t8.5 -4.5t9.5 -2t13 0t14 0.5q6 0 6 -51q0 -62 -6 -62z" />
    <glyph glyph-name="backslash" unicode="\" horiz-adv-x="311" 
d="M30 680q-2 10 20.5 14.5t45.5 4.5q68 0 70 -10q21 -122 57.5 -337t57.5 -339q1 -4 -4 -7t-14 -4t-16.5 -1.5t-17.5 -0.5q-81 0 -83 15q-72 404 -116 665z" />
    <glyph glyph-name="bracketright" unicode="]" horiz-adv-x="268" 
d="M32 -8q0 51 6 51q4 0 14 -0.5t13 0t9.5 2t8.5 4.5t4 9t2 15v555q0 4 -0.5 7.5t-1.5 6t-3.5 4.5t-4 3t-5 2t-5.5 1.5t-7 0.5h-7h-8h-9q-8 0 -8 57q0 2 -0.5 10.5t-0.5 16t0.5 15.5t2.5 13t6 5q9 0 44.5 0.5t55.5 0t47 -2t40 -6.5t13 -14v-798q0 -9 -13.5 -14.5t-39 -6.5
t-48 -1t-54.5 1t-45 1q-6 0 -6 62z" />
    <glyph glyph-name="asciicircum" unicode="^" horiz-adv-x="327" 
d="M307 515q8 -13 -25 -32q-9 -6 -22.5 -11t-16.5 0q-69 122 -79 122q-2 0 -7.5 -7t-15.5 -21t-18 -27t-21.5 -33.5t-20.5 -30.5q-3 -5 -16.5 1.5t-21.5 13.5q-28 25 -22 35q28 45 72 97q7 8 25 32t29 35.5t18 11.5q4 0 9.5 -5t13 -14.5t14 -18.5t16 -22.5t15.5 -21.5
q67 -93 74 -104z" />
    <glyph glyph-name="underscore" unicode="_" horiz-adv-x="273" 
d="M137 -33q9 0 69.5 -0.5t69.5 -0.5q4 0 6 -16t-2 -17q-6 -3 -34.5 -3t-59 0.5t-34.5 0.5q-22 -2 -90 0q-46 0 -64 2q-4 1 -4 16t5 17q8 2 58 2q18 1 43.5 0t36.5 -1z" />
    <glyph glyph-name="grave" unicode="`" horiz-adv-x="276" 
d="M245 609q-17 -46 -18 -59q-2 -16 -23 -9q-121 45 -159 59q-6 1 -13 9.5t-2 16.5q5 10 21 54q3 13 33 4q105 -39 123 -44q20 -8 30.5 -16t7.5 -15z" />
    <glyph glyph-name="a" unicode="a" horiz-adv-x="400" 
d="M370 471v-462q0 -7 -5.5 -8.5t-27.5 -0.5h-25h-18t-15 -0.5t-12.5 -0.5t-10 0.5t-7.5 1t-6 1.5t-4 2.5t-2.5 4t-1 6t-0.5 7.5q0 21 -2 21q-2 1 -5 -4q-8 -15 -27.5 -27t-41.5 -12q-58 0 -98.5 39t-40.5 125v152q0 86 40 125t98 39q22 0 42 -13.5t29 -29.5q6 -9 6 6v15
q0 4 0.5 7.5t1 6t2.5 4t4 2.5t6 1.5t7.5 1t10 0.5t12.5 -0.5t15 -0.5h18h25q21 1 27 -0.5t6 -8.5zM225 218v44v14.5v15t-0.5 13t-2.5 12.5t-5.5 8.5t-9 6.5t-12.5 2q-6 0 -11 -2t-8.5 -4.5t-5.5 -7.5t-3 -9t-1.5 -11.5t-0.5 -11.5v-13v-13v-44v-13v-13t0.5 -11.5t1.5 -11.5
t3 -9t5.5 -7.5t8.5 -4.5t11 -2q7 0 12.5 2t9 6.5t5.5 8.5t2.5 12.5t0.5 13v15v14.5zM235 22z" />
    <glyph glyph-name="b" unicode="b" horiz-adv-x="400" 
d="M165 691v-233q0 -16 2 -16q2 -1 6 6q7 12 33.5 22t39.5 10q57 0 95.5 -38.5t38.5 -125.5v-152q0 -87 -38.5 -125.5t-95.5 -38.5q-13 0 -39.5 10t-33.5 22q-7 3 -8 -10q0 -4 -0.5 -7.5t-1 -6t-2.5 -4t-4 -2.5t-6 -1.5t-7.5 -1t-10 -0.5t-12.5 0.5t-15 0.5h-18h-25
q-21 -1 -27 0.5t-6 8.5v682q0 2 0.5 3.5t2.5 2.5l4 2t5.5 1t7 0.5t9 0t10.5 -0.5h12h14h13h12h11h10t8 -0.5t7 -1t5 -1.5t3 -2.5t1 -3.5zM235 218v44v14.5v15t-0.5 13t-2.5 12.5t-5.5 8.5t-9 6.5t-12.5 2q-6 0 -11 -2t-8.5 -4.5t-5.5 -7.5t-3 -9t-1.5 -11.5t-0.5 -11.5v-13
v-13v-44v-13v-13t0.5 -11.5t1.5 -11.5t3 -9t5.5 -7.5t8.5 -4.5t11 -2q7 0 12.5 2t9 6.5t5.5 8.5t2.5 12.5t0.5 13v15v14.5z" />
    <glyph glyph-name="c" unicode="c" horiz-adv-x="385" 
d="M370 164q0 -76 -47.5 -120t-127.5 -44q-77 0 -126 45.5t-49 118.5v152q0 73 49 118.5t126 45.5q80 0 127.5 -44t47.5 -120q0 -12 -11.5 -14t-73.5 -2q-44 0 -52 2t-8 12q0 40 -30 40q-7 0 -12.5 -2t-9 -6.5t-5.5 -8.5t-2.5 -12.5t-0.5 -13v-15v-14.5v-84v-14.5v-15
t0.5 -13t2.5 -12.5t5.5 -8.5t9 -6.5t12.5 -2q30 0 30 40q0 9 1.5 11.5t17 5.5t50.5 3q53 0 64.5 -3.5t11.5 -18.5z" />
    <glyph glyph-name="d" unicode="d" horiz-adv-x="400" 
d="M235 691q0 2 1 3.5t3 2.5t5 1.5t7 1t8 0.5h10h11h12h13q56 0 60 -1q5 -3 5 -8v-682q0 -7 -5.5 -8.5t-27.5 -0.5h-25h-18t-15 -0.5t-12.5 -0.5t-10 0.5t-7.5 1t-6 1.5t-4 2.5t-2.5 4t-1 6t-0.5 7.5q0 16 -2 16q-2 1 -6 -6q-7 -12 -33.5 -22t-39.5 -10q-57 0 -95.5 38.5
t-38.5 125.5v152q0 87 38.5 125.5t95.5 38.5q13 0 39.5 -10t33.5 -22q7 -3 8 10v233zM225 218v44v14.5v15t-0.5 13t-2.5 12.5t-5.5 8.5t-9 6.5t-12.5 2q-6 0 -11 -2t-8.5 -4.5t-5.5 -7.5t-3 -9t-1.5 -11.5t-0.5 -11.5v-13v-13v-44v-13v-13t0.5 -11.5t1.5 -11.5t3 -9
t5.5 -7.5t8.5 -4.5t11 -2q7 0 12.5 2t9 6.5t5.5 8.5t2.5 12.5t0.5 13v15v14.5z" />
    <glyph glyph-name="e" unicode="e" horiz-adv-x="390" 
d="M165 202v-11v-11v-10t1 -10l2.5 -7.5t3.5 -7t5.5 -5t7.5 -3.5t10 -1q30 0 30 40q0 6 48 6h17h16q64 0 64 -18q0 -76 -47.5 -120t-127.5 -44q-77 0 -126 45.5t-49 118.5v152q0 73 49 118.5t126 45.5q80 0 127.5 -44t47.5 -120v-85q0 -10 -3 -12t-18 -2h-168h-3
q-5 0 -7.5 -0.5t-4 -4t-1.5 -10.5zM225 315q0 48 -30 48q-15 0 -22.5 -11t-7.5 -39q0 -24 4.5 -30t25.5 -6t25.5 6.5t4.5 31.5z" />
    <glyph glyph-name="f" unicode="f" horiz-adv-x="296" 
d="M63 321q0 15 -3.5 17.5t-24.5 2.5q-2 0 -4.5 -0.5t-3.5 -0.5t-3 2.5t-2.5 8.5t-1 17.5t-0.5 28.5q0 52 1.5 63t10.5 11q26 0 28 2q3 3 3 63q0 73 49 118.5t126 45.5h36q9 0 10.5 -11t1.5 -63q0 -34 -2 -49.5t-4.5 -18.5t-8.5 -3h-33q-9 0 -14.5 -4.5t-7.5 -16t-2.5 -17.5
t-0.5 -22q0 -19 3 -22q2 -2 58 -2q9 0 10.5 -11t1.5 -63q0 -13 -0.5 -22.5t-0.5 -16t-1 -10t-1.5 -5.5t-2 -2.5t-2.5 -0.5t-3.5 0.5t-3.5 0.5q-41 0 -49.5 -3t-8.5 -17v-303q0 -13 -10.5 -15.5t-63.5 -2.5h-11q-47 0 -56 2t-9 14v305z" />
    <glyph glyph-name="g" unicode="g" horiz-adv-x="400" 
d="M227 32q-7 -13 -27.5 -22.5t-40.5 -9.5q-58 0 -98.5 39t-40.5 125v152q0 86 40.5 125t98.5 39q46 0 70 -44q5 -9 6 5v17q0 4 0.5 7.5t1 6t2.5 4t4 2.5t6 1.5t7.5 1t10 0.5t12.5 -0.5t15 -0.5h18h25q21 1 27 -0.5t6 -8.5v-507q0 -76 -47.5 -120t-127.5 -44
q-77 0 -126 45.5t-49 118.5q0 8 8 10t31 1t38 -1q7 0 14.5 0.5t12.5 0.5t9.5 0.5t7.5 1t6 0.5t4.5 -0.5t2.5 -1.5t1.5 -2.5t0.5 -4.5q0 -23 12.5 -35.5t26.5 -12.5q40 0 40 85q0 31 -3 32q-1 1 -5 -5zM225 218v44v14.5v15t-0.5 13t-2.5 12.5t-5.5 8.5t-9 6.5t-12.5 2
q-6 0 -11 -2t-8.5 -4.5t-5.5 -7.5t-3 -9t-1.5 -11.5t-0.5 -11.5v-13v-13v-44v-13v-13t0.5 -11.5t1.5 -11.5t3 -9t5.5 -7.5t8.5 -4.5t11 -2q7 0 12.5 2t9 6.5t5.5 8.5t2.5 12.5t0.5 13v15v14.5z" />
    <glyph glyph-name="h" unicode="h" 
d="M380 11q0 -7 -13 -9t-57 -2q-54 0 -67 1t-13 7v267v9.5v9.5v8.5t-1 9t-2 7.5t-3 6.5t-4.5 5t-6 3.5t-8.5 1q-6 0 -10.5 -1.5t-7.5 -5.5t-4.5 -7.5t-2 -10.5t-0.5 -11v-12.5v-11.5v-263q0 -9 -10 -10.5t-70 -1.5q-50 0 -60 1t-10 8v682q0 2 0.5 3.5t2.5 2.5l4 2t5.5 1
t7 0.5t9 0t10.5 -0.5h12h14h13h12h11h10t8 -0.5t7 -1t5 -1.5t3 -2.5t1 -3.5v-233q0 -16 2 -16q2 -1 6 6q7 12 32.5 22t40.5 10q57 0 95.5 -38.5t38.5 -125.5v-305z" />
    <glyph glyph-name="i" unicode="i" horiz-adv-x="210" 
d="M102 698q32 -1 53 -24.5t23 -57.5q1 -25 1 -43.5t-18.5 -31.5t-58.5 -16q-35 -6 -60 25t-20 70q4 38 20 59t60 19zM180 17q0 -12 -10.5 -14.5t-67.5 -2.5q-53 0 -62.5 2t-9.5 13v447q0 13 9 15.5t63 2.5q58 0 68 -2.5t10 -16.5v-444z" />
    <glyph glyph-name="j" unicode="j" horiz-adv-x="210" 
d="M102 698q32 -1 53 -24.5t23 -57.5q1 -25 1 -43.5t-18.5 -31.5t-58.5 -16q-35 -6 -60 25t-20 70q4 38 20 59t60 19zM180 -36q0 -73 -49 -118.5t-126 -45.5h-36q-9 0 -10.5 11t-1.5 63q0 34 2 49.5t4.5 18.5t8.5 3h33q9 0 14.5 4.5t7.5 16t2.5 17.5t0.5 22v457q0 13 9 15.5
t63 2.5q58 0 68 -2.5t10 -16.5v-497z" />
    <glyph glyph-name="k" unicode="k" horiz-adv-x="402" 
d="M196 151q-16 -13 -16 -23v-110q0 -17 -78 -17q-72 0 -72 15v669q0 14 72 14q78 0 78 -15v-349q0 -17 5 -17l2 2q7 9 11 21q5 18 16.5 59t20.5 70q3 10 57 10h15.5t19.5 -0.5t22 -1t18 -1.5t13.5 -3t3.5 -4q-67 -155 -70 -162q-9 -20 -9 -26q0 -14 6 -27q35 -88 90 -243
q1 -4 -2.5 -6t-23.5 -4t-59 -2q-56 0 -61 14q-16 46 -39 120q-8 27 -20 17z" />
    <glyph glyph-name="l" unicode="l" horiz-adv-x="210" 
d="M180 17q0 -12 -10.5 -14.5t-67.5 -2.5q-53 0 -62.5 2t-9.5 13v666q0 13 9 15.5t63 2.5q58 0 68 -2.5t10 -16.5v-663z" />
    <glyph glyph-name="m" unicode="m" horiz-adv-x="610" 
d="M431 480q60 0 104.5 -39.5t44.5 -124.5v-305q0 -7 -13 -9t-57 -2q-54 0 -67 1t-13 7v267v9.5v9.5v8.5t-1 9t-2 7.5t-3 6.5t-4.5 5t-6 3.5t-8.5 1q-6 0 -10.5 -1.5t-7.5 -5.5t-4.5 -7.5t-2 -10.5t-0.5 -11v-12.5v-11.5v-264q0 -7 -13 -9t-57 -2q-54 0 -67 1t-13 7v267v9.5
v9.5v8.5t-1 9t-2 7.5t-3 6.5t-4.5 5t-6 3.5t-8.5 1q-6 0 -10.5 -1.5t-7.5 -5.5t-4.5 -7.5t-2 -10.5t-0.5 -11v-12.5v-11.5v-263q0 -9 -10 -10.5t-70 -1.5q-50 0 -60 1t-10 8v462q0 7 5.5 8.5t27.5 0.5h25h18t15 0.5t12.5 0.5t10 -0.5t7.5 -1t6 -1.5t4 -2.5t2.5 -4t1 -6
t0.5 -7.5q0 -16 2 -16q2 -1 6 6q7 13 29.5 22.5t43.5 9.5q31 0 50 -12t26 -23.5t8 -11.5q3 0 11 11.5t30.5 23.5t59.5 12z" />
    <glyph glyph-name="n" unicode="n" 
d="M380 11q0 -7 -13 -9t-57 -2q-54 0 -67 1t-13 7v267v9.5v9.5v8.5t-1 9t-2 7.5t-3 6.5t-4.5 5t-6 3.5t-8.5 1q-6 0 -10.5 -1.5t-7.5 -5.5t-4.5 -7.5t-2 -10.5t-0.5 -11v-12.5v-11.5v-263q0 -9 -10 -10.5t-70 -1.5q-50 0 -60 1t-10 8v462q0 7 5.5 8.5t27.5 0.5h25h18t15 0.5
t12.5 0.5t10 -0.5t7.5 -1t6 -1.5t4 -2.5t2.5 -4t1 -6t0.5 -7.5q0 -16 2 -16q2 -1 6 6q7 12 33.5 22t39.5 10q57 0 95.5 -38.5t38.5 -125.5v-305zM165 458z" />
    <glyph glyph-name="o" unicode="o" horiz-adv-x="390" 
d="M370 164q0 -76 -47.5 -120t-127.5 -44q-77 0 -126 45.5t-49 118.5v152q0 73 49 118.5t126 45.5q80 0 127.5 -44t47.5 -120v-152zM225 218v44v14.5v15t-0.5 13t-2.5 12.5t-5.5 8.5t-9 6.5t-12.5 2q-6 0 -11 -2t-8.5 -4.5t-5.5 -7.5t-3 -9t-1.5 -11.5t-0.5 -11.5v-13v-13
v-44v-13v-13t0.5 -11.5t1.5 -11.5t3 -9t5.5 -7.5t8.5 -4.5t11 -2q7 0 12.5 2t9 6.5t5.5 8.5t2.5 12.5t0.5 13v15v14.5z" />
    <glyph glyph-name="p" unicode="p" horiz-adv-x="400" 
d="M380 316v-152q0 -74 -42.5 -119t-96.5 -45q-11 0 -36 10.5t-32 21.5q-7 3 -8 -10v-214q0 -6 -2 -7q-4 -1 -63 -1q-50 0 -60 1t-10 8v662q0 7 5.5 8.5t27.5 0.5h25h18t15 0.5t12.5 0.5t10 -0.5t7.5 -1t6 -1.5t4 -2.5t2.5 -4t1 -6t0.5 -7.5q0 -20 3 -21q2 0 5 5
q8 15 27 26.5t41 11.5q58 0 98.5 -39t40.5 -125zM235 218v44v14.5v15t-0.5 13t-2.5 12.5t-5.5 8.5t-9 6.5t-12.5 2q-6 0 -11 -2t-8.5 -4.5t-5.5 -7.5t-3 -9t-1.5 -11.5t-0.5 -11.5v-13v-13v-44v-13v-13t0.5 -11.5t1.5 -11.5t3 -9t5.5 -7.5t8.5 -4.5t11 -2q7 0 12.5 2t9 6.5
t5.5 8.5t2.5 12.5t0.5 13v15v14.5z" />
    <glyph glyph-name="q" unicode="q" horiz-adv-x="400" 
d="M159 480q21 0 40.5 -12t27.5 -27q7 -11 8 6v11q0 4 0.5 7.5t1 6t2.5 4t4 2.5t6 1.5t7.5 1t10 0.5t12.5 -0.5t15 -0.5h18h25q21 1 27 -0.5t6 -8.5v-662q0 -7 -10 -8t-60 -1q-65 0 -66 3q1 -3 1 5v214q0 16 -2 16q-2 1 -6 -6q-7 -11 -32 -21.5t-36 -10.5q-54 0 -96.5 45
t-42.5 119v152q0 86 40.5 125t98.5 39zM225 218v44v14.5v15t-0.5 13t-2.5 12.5t-5.5 8.5t-9 6.5t-12.5 2q-6 0 -11 -2t-8.5 -4.5t-5.5 -7.5t-3 -9t-1.5 -11.5t-0.5 -11.5v-13v-13v-44v-13v-13t0.5 -11.5t1.5 -11.5t3 -9t5.5 -7.5t8.5 -4.5t11 -2q7 0 12.5 2t9 6.5t5.5 8.5
t2.5 12.5t0.5 13v15v14.5z" />
    <glyph glyph-name="r" unicode="r" horiz-adv-x="290" 
d="M220 335q-19 0 -28 -12t-10.5 -25t-1.5 -39v-247q0 -9 -10 -10.5t-70 -1.5q-50 0 -60 1t-10 8v462q0 7 5.5 8.5t27.5 0.5h25h18t15 0.5t12.5 0.5t10 -0.5t7.5 -1t6 -1.5t4 -2.5t2.5 -4t1 -6t0.5 -7.5q0 -18 3 -18q2 1 5 6q19 34 93 34q5 0 7 -1t4 -9t2.5 -23t0.5 -46
q0 -49 -2 -57.5t-12 -8.5h-46zM165 458z" />
    <glyph glyph-name="s" unicode="s" horiz-adv-x="365" 
d="M18 341q0 56 49 97.5t113 41.5q65 0 113.5 -46t48.5 -118q0 -4 -34 -4h-27q-84 0 -84 5q0 27 -4.5 37.5t-16.5 10.5q-18 0 -18 -32q0 -11 20 -20.5t48 -21t56 -27.5t48 -48.5t20 -76.5q0 -57 -47 -98t-120 -41t-120.5 44t-47.5 120q0 5 9.5 6t52.5 1q78 0 78 -5
q0 -29 4 -40t20 -11q24 0 24 34q0 16 -19 26.5t-46 19t-54.5 21.5t-46.5 45t-19 80z" />
    <glyph glyph-name="t" unicode="t" horiz-adv-x="296" 
d="M53 548q0 11 12 13.5t64 2.5q51 0 62.5 -2.5t11.5 -15.5v-62q0 -14 8.5 -17t49.5 -3q6 0 8.5 -3.5t4.5 -18t2 -44.5q0 -37 -2 -45.5t-10 -8.5q-56 0 -58 -2q-3 -3 -3 -22v-131q0 -20 9 -31.5t17.5 -14t16.5 -2.5h15q6 0 8.5 -3t4.5 -18.5t2 -48.5q0 -47 -2 -59t-10 -12
h-36q-79 0 -127 41t-48 123q0 175 -3 178q-2 2 -28 2q-7 0 -9.5 10t-2.5 44q0 30 2 44.5t4.5 18t8.5 3.5q19 0 23.5 3t4.5 17v64z" />
    <glyph glyph-name="u" unicode="u" 
d="M30 469q0 7 13 9t57 2q26 0 40 -0.5t22.5 -2t10.5 -3t2 -5.5v-251v-14v-15t0.5 -13t3 -12.5t5.5 -8.5t8.5 -7t12.5 -2t12.5 2t9 7t5.5 9t2.5 12t0.5 13v15v14v246q0 12 9.5 14t65.5 2q50 0 60 -1t10 -8v-462q0 -7 -5.5 -8.5t-27.5 -0.5h-25h-18t-15 -0.5t-12.5 -0.5
t-10 0.5t-7.5 1t-6 1.5t-4 2.5t-2.5 4t-1 6t-0.5 7.5q0 21 -3 21q-2 1 -5 -4q-22 -39 -68 -39q-58 0 -98.5 39t-40.5 125v305zM245 22z" />
    <glyph glyph-name="v" unicode="v" horiz-adv-x="366" 
d="M179 202q7 0 7 11q19 155 29 253q1 14 81 14q12 0 23 -0.5t21.5 -2.5t16 -5.5t4.5 -8.5q-78 -287 -122 -447q-5 -16 -64 -16h-23t-18 1.5t-17.5 6t-7.5 11.5q-19 82 -55 237t-49 211q-1 4 5 6.5t17 3.5t20.5 1.5t20.5 0.5q82 0 83 -14q7 -74 22 -253q0 -10 6 -10z" />
    <glyph glyph-name="w" unicode="w" horiz-adv-x="462" 
d="M207 9q-2 -12 -64 -9q-2 0 -10.5 0.5t-14.5 1t-13.5 1.5t-11.5 3.5t-5 6.5q-12 82 -38 252t-30 196q-1 5 7.5 9t22.5 6t30 2q66 0 67 -16q8 -84 21 -233q0 -10 6 -10q7 0 7 11q5 136 8 237q0 12 40 12q51 0 51 -12q2 -59 7 -234q0 -10 6 -10q7 0 7 11q10 148 14 235
q0 11 53 11q14 0 25.5 -0.5t23.5 -2t19 -4.5t6 -7q-10 -67 -24 -159.5t-25 -162.5t-21 -134q-1 -10 -19.5 -11t-34.5 1q-2 0 -11 0.5t-16 1t-15.5 1.5t-13.5 3.5t-5 6.5q-5 53 -15 130q-3 11 -7 11q-6 0 -6 -10q-9 -60 -21 -135z" />
    <glyph glyph-name="x" unicode="x" horiz-adv-x="395" 
d="M222 470q2 8 81 8q9 0 19 -0.5t18 -2t14 -3t9.5 -3t2.5 -3.5q-15 -38 -43 -104t-39 -92q-4 -9 -4 -27q0 -15 3 -22q36 -79 97 -210q1 -2 -5 -4q-19 -8 -57 -8q-84 0 -87 11q-15 54 -31 117q-3 9 -6 9q-4 0 -7 -10q-19 -76 -31 -114q-4 -13 -82 -13q-22 0 -41.5 3.5
t-17.5 9.5q38 92 85 207q3 7 3 23q0 19 -4 27q-11 27 -38.5 93t-43.5 104q-1 2 2.5 3.5t10 3t14 3t16 2t16.5 0.5q87 0 89 -13q5 -23 13 -62.5t10 -46.5q3 -9 6 -9q2 0 5 10q14 67 23 113z" />
    <glyph glyph-name="y" unicode="y" horiz-adv-x="373" 
d="M108 33q0 21 -2 28q-18 77 -91 408q0 2 3 4t9 3t13 2t16 1.5t16 0.5h15q69 0 70 -14q5 -56 12 -132.5t11 -116.5q0 -10 6 -10q7 0 7 11q5 50 12 125t12 125q1 12 75 12q24 0 46 -3.5t20 -10.5q-147 -580 -165 -653q-3 -13 -63 -13q-11 0 -20 0.5t-21 2t-18.5 5t-5.5 8.5
q27 126 39 187q4 17 4 30z" />
    <glyph glyph-name="z" unicode="z" horiz-adv-x="343" 
d="M173 153q-3 -5 -1 -15.5t6 -12.5q5 -3 30 -3h104q15 0 15 -67q0 -46 -8 -53q-3 -2 -7 -2h-274q-18 0 -18 72q0 8 -1 29.5t-0.5 32.5t3.5 14q24 31 136 174q5 7 2.5 19.5t-9.5 17.5q-5 2 -21 2h-84q-16 0 -16 51q0 68 13 68h257q8 0 12 -2.5t6 -11t2.5 -16t0.5 -24.5
q0 -78 -5 -85q-55 -76 -143 -188z" />
    <glyph glyph-name="braceleft" unicode="{" horiz-adv-x="311" 
d="M209 439q0 -32 -8.5 -52.5t-17.5 -29t-9 -9.5t9 -9.5t17.5 -29.5t8.5 -52q0 -33 0.5 -61.5t0.5 -87.5q0 -61 66 -61q5 0 5 -58q0 -59 -5 -59q-101 0 -151 37.5t-50 133.5v146q0 22 -16.5 41t-34.5 19q-5 0 -5 41q0 43 5 43q19 0 35 19t16 41v148q0 96 50 133.5t151 37.5
q5 0 5 -59q0 -58 -5 -58q-34 0 -50.5 -17t-16.5 -44v-153z" />
    <glyph glyph-name="bar" unicode="|" horiz-adv-x="210" 
d="M180 -55q0 -15 -76 -15q-74 0 -74 13v812q0 15 70 15q80 0 80 -16v-809z" />
    <glyph glyph-name="braceright" unicode="}" horiz-adv-x="322" 
d="M102 592q0 27 -16.5 44t-50.5 17q-5 0 -5 58q0 59 5 59q101 0 151 -37.5t50 -133.5v-148q0 -22 16 -41t35 -19q5 0 5 -43q0 -41 -5 -41q-18 0 -34.5 -19t-16.5 -41v-146q0 -96 -50 -133.5t-151 -37.5q-5 0 -5 59q0 58 5 58q66 0 66 61q0 59 0.5 87.5t0.5 61.5q0 31 9 52
t17.5 29.5t8.5 9.5t-8.5 9.5t-17.5 29t-9 52.5v153z" />
    <glyph glyph-name="asciitilde" unicode="~" horiz-adv-x="361" 
d="M184 309q-11 13 -14 16t-9 6t-13 3q-10 0 -52 -37q-26 -22 -34 -10q-12 18 -24 42q-9 13 36 49q50 40 77 40q30 0 51 -27q2 -2 4.5 -5.5t4 -5.5t4 -5t4 -4.5t3.5 -4t3.5 -3.5t3.5 -2t4 -1.5t4 -0.5q12 0 58 40q21 18 30 2q17 -30 24 -43q5 -7 -15 -26.5t-45 -35.5
q-35 -24 -57 -24q-3 0 -5.5 0.5t-5.5 1.5t-5 2t-5 4t-4.5 4t-5 5t-5.5 6t-6 7t-6 7z" />
    <glyph glyph-name="exclamdown" unicode="&#xa1;" horiz-adv-x="210" 
d="M32 371q0 12 10.5 14.5t67.5 2.5q53 0 62.5 -2t9.5 -13v-456q0 -13 -9 -15.5t-63 -2.5q-58 0 -68 2.5t-10 16.5v453zM182 530q4 -38 -20 -67.5t-58 -25.5q-45 6 -61 28t-13 60q2 33 22.5 55.5t51.5 24.5q23 1 38 -4.5t23 -17.5t11.5 -23.5t5.5 -29.5z" />
    <glyph glyph-name="cent" unicode="&#xa2;" 
d="M380 316q0 -11 -12 -13.5t-73 -2.5q-47 0 -56 1.5t-9 8.5q0 4 -1.5 8.5t-7.5 10.5t-16 6q-6 0 -10.5 -1.5t-7.5 -5.5t-4.5 -7.5t-2 -10.5t-0.5 -11v-12.5v-11.5v-70v-11.5v-12.5t0.5 -11t2 -10.5t4.5 -7.5t7.5 -5.5t10.5 -1.5q13 0 19 9t6 16t3 9.5t19.5 4.5t51.5 2
q53 0 64.5 -3.5t11.5 -18.5q0 -106 -91 -151q-5 -3 -5 -13v-54q0 -13 -79 -13q-70 0 -70 13v52q0 12 -4 14q-41 17 -71 55.5t-30 96.5v152q0 28 8 52t15.5 37.5t26 29t23.5 18.5l25 15q7 4 7 15v70q0 11 70 11q80 0 80 -8v-78q0 -10 6 -14q19 -11 27.5 -17t26.5 -24
t26.5 -45t8.5 -62z" />
    <glyph glyph-name="sterling" unicode="&#xa3;" 
d="M176 495v-67q0 -22 6 -26t22 -4h49q9 0 10 -9t1 -62v-22q0 -46 -11 -46h-45q-19 0 -25 -3q-7 -5 -7 -29v-48q0 -37 5 -40q7 -4 34 -4h149q9 0 11 -7q2 -8 2 -55q0 -53 -2 -63t-10 -10h-289q-35 0 -40 4q-6 5 -6 34v498q0 73 49 118.5t126 45.5q79 0 123 -43.5t44 -120.5
v-64q0 -5 -3 -7.5t-20 -4.5t-53 -2q-54 0 -59 3q-3 2 -3 7v58q0 9 -7 21t-22 12q-29 0 -29 -64z" />
    <glyph glyph-name="currency" unicode="&#xa4;" horiz-adv-x="435" 
d="M85 426v138q0 9 9.5 17.5t17.5 8.5h49q8 0 8 7v88q0 15 50 15q18 0 26.5 -1t14.5 -4.5t6 -10.5v-86q0 -8 10 -8h49q9 0 17 -9t8 -22v-136q0 -5 0.5 -7.5t3 -4t8.5 -1.5h43q11 0 13 -7.5t2 -43.5v-7q0 -39 -13 -39h-44q-9 0 -11 -2.5t-2 -10.5v-155q0 -16 -6 -25.5
t-15 -9.5h-56q-7 0 -7 -9v-86q0 -11 -6.5 -13t-40.5 -2q-45 0 -48 4q-2 3 -2 9v90q0 7 -6 7h-50q-12 0 -20 7.5t-8 16.5v166v6.5t-1.5 3.5t-4 2.5t-7.5 0.5h-42q-10 0 -12.5 8.5t-2.5 37.5q0 35 2.5 43t13.5 8h42q9 0 10.5 3t1.5 13zM236 207q17 0 17 17v254q0 15 -11 15
h-49q-11 0 -11 -15v-254q0 -17 17 -17h37z" />
    <glyph glyph-name="yen" unicode="&#xa5;" horiz-adv-x="372" 
d="M0 685q-2 8 20.5 11t46.5 3q79 0 81 -16q6 -43 17.5 -120.5t17.5 -118.5q0 -9 6 -9q5 0 5 10q7 51 17 130t14 108q2 16 75 16q13 0 23 -0.5t22 -1.5t18 -4t5 -8q-32 -115 -79 -274q-3 -11 9 -11q43 0 43 -16q0 -41 -1 -45q-1 -6 -2 -8t-6.5 -5t-14.5 -3h-38q-7 0 -9 -0.5
t-3 -1.5t-2 -6q0 -1 -2 -17q-1 -1 -0.5 -10t0.5 -16q0 -6 2 -8t12 -2q32 0 46.5 -2t17.5 -5t3 -9q0 -3 -0.5 -14t-0.5 -20.5t1 -14.5q2 -7 -1.5 -11.5t-17.5 -4.5h-56q-8 0 -8 -9v-164q0 -8 -75 -8q-73 0 -73 11q0 44 -0.5 89.5t-0.5 69.5q0 8 -1.5 10t-7.5 2h-51
q-7 0 -16 4.5t-7 14.5q3 14 0 46q-1 9 5.5 12t23.5 3h45q7 0 7 10q0 16 -1 21q-1 13 -3 21q-1 9 -13 9h-41q-7 0 -16 4.5t-7 14.5q3 13 0 43q-1 9 9 12t41 3q7 0 4 14q-16 53 -43 140.5t-40 130.5z" />
    <glyph glyph-name="section" unicode="&#xa7;" horiz-adv-x="401" 
d="M377 86q0 -44 -16.5 -76.5t-43 -49t-53 -23.5t-53.5 -7t-55.5 8.5t-56 26.5t-45.5 52t-18 78v39q0 13 76 13q64 0 64 -11v-30q0 -15 8.5 -28.5t27.5 -13.5q38 0 38 39q0 21 -21.5 36.5t-52.5 28t-62 28.5t-52.5 47t-21.5 74q0 28 17.5 46t32.5 18q5 1 -1 9q-28 29 -42 59
t-14 82q0 83 51 126t120 43q72 0 118.5 -40.5t46.5 -120.5v-51q0 -10 -79 -10q-49 0 -53 4q-2 2 -2 7v18q0 32 -5.5 46t-26.5 14q-22 0 -28 -13t-6 -41q0 -18 15 -32t37 -23t48 -23.5t48 -31t37 -47.5t15 -72q0 -32 -18 -52.5t-32 -20.5q-3 0 -4 -3.5t1 -5.5q1 -2 18.5 -14
t30 -36t12.5 -66zM238 260q17 0 17 28q0 20 -33 40.5t-53 20.5q-11 0 -11 -20q0 -30 31 -49.5t49 -19.5z" />
    <glyph glyph-name="dieresis" unicode="&#xa8;" horiz-adv-x="359" 
d="M37 604q-3 29 15.5 52t44.5 19q30 -3 43.5 -12.5t13.5 -23.5v-32q-2 -25 -17.5 -42.5t-39.5 -18.5q-33 -3 -45 13t-15 45zM204 604q-3 29 15.5 52t44.5 19q30 -3 43.5 -12.5t13.5 -23.5v-32q-2 -25 -17.5 -42.5t-39.5 -18.5q-33 -3 -45 13t-15 45z" />
    <glyph glyph-name="copyright" unicode="&#xa9;" horiz-adv-x="554" 
d="M277 701q101 0 172.5 -71t71.5 -172t-71.5 -171.5t-172.5 -70.5t-172 70.5t-71 171.5q0 100 71 171.5t172 71.5zM88 459q0 -79 56 -134t135 -55t134.5 55t55.5 134t-55.5 135t-134.5 56t-135 -56t-56 -135zM279 552q-13 0 -26.5 -9.5t-13.5 -27.5v-105q0 -17 12 -26
t28 -9q15 0 27 8.5t12 25.5q0 4 22 4q21 0 22 -1t1 -3q0 -35 -25.5 -59.5t-58.5 -24.5t-58.5 22.5t-25.5 61.5v106q0 39 27 61.5t57 22.5q31 0 57.5 -23t26.5 -57q0 -7 -23 -7q-22 0 -22 3q0 17 -12.5 27t-26.5 10z" />
    <glyph glyph-name="ordfeminine" unicode="&#xaa;" horiz-adv-x="180" 
d="M29 436q-9 0 -9 25q0 23 10 23h127q4 0 4 -24t-3 -24h-129zM160 698v-185q0 -4 -23 -4h-10q-14 0 -17.5 1t-3.5 8q-2 8 -3 8q-10 -17 -28 -17q-23 0 -39 15.5t-16 50.5v61q0 65 54 65q20 0 30 -18q2 5 2 10q0 8 17 8h14q22 -2 23 -3zM100 591v28q0 21 -5 23q-2 1 -5 1
t-4.5 -0.5t-2.5 -2l-2 -3t-1 -4v-4v-5.5v-5v-28v-4q-1 -20 10 -20q2 0 4 0.5t3 2.5t2 3t1 4v4.5v5v4.5zM106 518z" />
    <glyph glyph-name="guillemotleft" unicode="&#xab;" horiz-adv-x="388" 
d="M144 434q3 -2 13.5 -7.5t19.5 -10.5t13 -6q19 -4 5 -24q-87 -132 -87 -138q0 -12 85 -140q13 -20 -5 -24q-4 -1 -14.5 -6.5t-22.5 -12t-15 -8.5q-6 -4 -66 88t-60 102t64 100.5t70 86.5zM311 434q3 -2 13.5 -7.5t19.5 -10.5t13 -6q19 -4 5 -24q-87 -132 -87 -138
q0 -12 85 -140q13 -20 -5 -24q-4 -1 -14.5 -6.5t-22.5 -12t-15 -8.5q-6 -4 -66 88t-60 102t64 100.5t70 86.5z" />
    <glyph glyph-name="logicalnot" unicode="&#xac;" horiz-adv-x="435" 
d="M85 426v138q0 9 9.5 17.5t17.5 8.5h49q8 0 8 7v88q0 15 50 15q18 0 26.5 -1t14.5 -4.5t6 -10.5v-86q0 -8 10 -8h49q9 0 17 -9t8 -22v-136q0 -5 0.5 -7.5t3 -4t8.5 -1.5h43q11 0 13 -7.5t2 -43.5v-7q0 -39 -13 -39h-44q-9 0 -11 -2.5t-2 -10.5v-155q0 -16 -6 -25.5
t-15 -9.5h-56q-7 0 -7 -9v-86q0 -11 -6.5 -13t-40.5 -2q-45 0 -48 4q-2 3 -2 9v90q0 7 -6 7h-50q-12 0 -20 7.5t-8 16.5v166v6.5t-1.5 3.5t-4 2.5t-7.5 0.5h-42q-10 0 -12.5 8.5t-2.5 37.5q0 35 2.5 43t13.5 8h42q9 0 10.5 3t1.5 13zM236 207q17 0 17 17v254q0 15 -11 15
h-49q-11 0 -11 -15v-254q0 -17 17 -17h37z" />
    <glyph glyph-name="registered" unicode="&#xae;" horiz-adv-x="554" 
d="M277 701q101 0 172.5 -71.5t71.5 -172.5q0 -100 -71.5 -171t-172.5 -71t-172 71t-71 171q0 101 71 172.5t172 71.5zM88 459q0 -79 56 -134t135 -55t134.5 55t55.5 134t-55.5 134.5t-134.5 55.5t-135 -55.5t-56 -134.5zM246 432v-99q0 -6 -25 -6q-22 0 -22 6v256q0 7 4 10
q6 2 17 2h63q34 0 54.5 -14.5t25 -28t4.5 -27.5v-14q0 -20 -10.5 -32.5t-20.5 -14.5l-11 -3l11 -2q10 -2 20.5 -11.5t10.5 -28.5v-92q0 -6 -24 -6t-24 6v84q0 9 -9.5 17t-26.5 8q-37 0 -37 -10zM267 557h-21v-13v-49q0 -6 3 -7q4 -1 20 -1q27 0 36.5 5t9.5 20v17
q0 17 -10 22.5t-38 5.5z" />
    <glyph glyph-name="macron" unicode="&#xaf;" horiz-adv-x="327" 
d="M297 505q-2 0 -19.5 -1t-48 -2t-64.5 -1q-35 0 -65 1t-48 2t-22 1q-5 3 -5 20.5t4.5 38t9.5 20.5q2 0 50.5 -0.5t76.5 -0.5t73.5 1t48.5 1q4 0 8.5 -20.5t5 -38.5t-4.5 -21z" />
    <glyph glyph-name="degree" unicode="&#xb0;" horiz-adv-x="287" 
d="M152 491q-53 -6 -95 27.5t-33 80.5q5 54 22.5 78.5t42.5 24.5h57q46 -3 76.5 -31.5t32.5 -71.5q3 -32 -4 -53.5t-24.5 -32t-33.5 -15t-41 -7.5zM192 599q-1 18 -14 30.5t-32 14.5q-16 0 -21 -0.5t-15 -4t-14 -13.5t-6 -27q-3 -21 16 -35.5t41 -12.5q12 1 18 3t14 6.5
t11 14t2 24.5z" />
    <glyph glyph-name="plusminus" unicode="&#xb1;" horiz-adv-x="435" 
d="M85 426v138q0 9 9.5 17.5t17.5 8.5h49q8 0 8 7v88q0 15 50 15q18 0 26.5 -1t14.5 -4.5t6 -10.5v-86q0 -8 10 -8h49q9 0 17 -9t8 -22v-136q0 -5 0.5 -7.5t3 -4t8.5 -1.5h43q11 0 13 -7.5t2 -43.5v-7q0 -39 -13 -39h-44q-9 0 -11 -2.5t-2 -10.5v-155q0 -16 -6 -25.5
t-15 -9.5h-56q-7 0 -7 -9v-86q0 -11 -6.5 -13t-40.5 -2q-45 0 -48 4q-2 3 -2 9v90q0 7 -6 7h-50q-12 0 -20 7.5t-8 16.5v166v6.5t-1.5 3.5t-4 2.5t-7.5 0.5h-42q-10 0 -12.5 8.5t-2.5 37.5q0 35 2.5 43t13.5 8h42q9 0 10.5 3t1.5 13zM236 207q17 0 17 17v254q0 15 -11 15
h-49q-11 0 -11 -15v-254q0 -17 17 -17h37z" />
    <glyph glyph-name="acute" unicode="&#xb4;" horiz-adv-x="276" 
d="M65 640q18 5 123 44q30 9 33 -4q16 -44 21 -54q5 -8 -2 -16.5t-13 -9.5q-38 -14 -159 -59q-21 -7 -23 9q-1 13 -18 59q-3 7 7.5 15t30.5 16z" />
    <glyph glyph-name="mu" unicode="&#xb5;" horiz-adv-x="435" 
d="M85 426v138q0 9 9.5 17.5t17.5 8.5h49q8 0 8 7v88q0 15 50 15q18 0 26.5 -1t14.5 -4.5t6 -10.5v-86q0 -8 10 -8h49q9 0 17 -9t8 -22v-136q0 -5 0.5 -7.5t3 -4t8.5 -1.5h43q11 0 13 -7.5t2 -43.5v-7q0 -39 -13 -39h-44q-9 0 -11 -2.5t-2 -10.5v-155q0 -16 -6 -25.5
t-15 -9.5h-56q-7 0 -7 -9v-86q0 -11 -6.5 -13t-40.5 -2q-45 0 -48 4q-2 3 -2 9v90q0 7 -6 7h-50q-12 0 -20 7.5t-8 16.5v166v6.5t-1.5 3.5t-4 2.5t-7.5 0.5h-42q-10 0 -12.5 8.5t-2.5 37.5q0 35 2.5 43t13.5 8h42q9 0 10.5 3t1.5 13zM236 207q17 0 17 17v254q0 15 -11 15
h-49q-11 0 -11 -15v-254q0 -17 17 -17h37z" />
    <glyph glyph-name="paragraph" unicode="&#xb6;" horiz-adv-x="494" 
d="M347 557q-12 0 -14.5 -6t-2.5 -32v-489q0 -22 -9 -26t-41 -4h-11q-20 0 -26.5 0.5t-9.5 4t-3 12.5v171q0 26 -6 34t-19 8q-80 0 -127.5 44t-47.5 120v142q0 76 47.5 120t127.5 44h229q13 0 18 -1t8.5 -7.5t3.5 -21.5v-648q0 -16 -10 -19t-43 -3q-35 0 -41 1.5t-6 15.5
v500q0 28 -2.5 34t-14.5 6zM180 435v-9.5v-9.5v-8.5t1 -9t2 -7.5t3 -6.5t4.5 -5t6 -3.5t8.5 -1q20 0 22.5 1t2.5 11v156q0 10 -2.5 11t-22.5 1q-5 0 -8.5 -1t-6 -3.5t-4.5 -5t-3 -6.5t-2 -7.5t-1 -9v-8.5v-9.5v-9.5v-60z" />
    <glyph glyph-name="periodcentered" unicode="&#xb7;" horiz-adv-x="206" 
d="M30 382q-4 36 19 65t55 24q37 -3 54 -15t17 -29.5t-1 -39.5q-2 -31 -21 -52.5t-49 -23.5q-28 -2 -45 9t-22 25.5t-7 36.5z" />
    <glyph glyph-name="cedilla" unicode="&#xb8;" 
d="M242 36v-67q0 -45 -31.5 -78t-76.5 -33q-5 0 -5 29q0 45 3 45q15 0 29 9.5t14 25.5v68q0 7 32 7h9h9.5h8t6.5 -1.5t2 -4.5z" />
    <glyph glyph-name="ordmasculine" unicode="&#xba;" horiz-adv-x="180" 
d="M29 436q-9 0 -9 25q0 23 10 23h126q4 0 4 -24t-3 -24h-128zM160 574q0 -31 -19 -48.5t-51 -17.5q-30 0 -50 18t-20 48v60q0 30 20 48t50 18q32 0 51 -17.5t19 -48.5v-60zM100 618v4q1 20 -10 20q-2 0 -4 -0.5t-3 -2.5t-2 -3t-1 -4v-4.5v-5v-4.5v-28v-4q-1 -20 10 -20
q2 0 4 0.5t3 2.5t2 3t1 4v4.5v5v4.5v28z" />
    <glyph glyph-name="guillemotright" unicode="&#xbb;" horiz-adv-x="388" 
d="M249 58q-3 2 -13.5 7.5t-19.5 10.5t-13 6q-19 4 -5 24q87 132 87 138q0 12 -85 140q-13 20 5 24q4 1 14.5 6.5t22.5 12t15 8.5q6 4 66 -88t60 -102t-64 -100.5t-70 -86.5zM82 58q-3 2 -13.5 7.5t-19.5 10.5t-13 6q-19 4 -5 24q87 132 87 138q0 12 -85 140q-13 20 5 24
q4 1 14.5 6.5t22.5 12t15 8.5q6 4 66 -88t60 -102t-64 -100.5t-70 -86.5z" />
    <glyph glyph-name="questiondown" unicode="&#xbf;" horiz-adv-x="406" 
d="M296 368q0 -10 -0.5 -19t-0.5 -23q0 -41 -6 -57t-31 -46q-2 -3 -16 -19.5t-22 -26t-18.5 -25.5t-16 -29.5t-5.5 -25.5v-9.5v-10v-9t1 -9t2 -7.5t3 -6l4.5 -4.5t6 -3.5t8.5 -1q6 0 10.5 2t7.5 6t4.5 8t2 11t0.5 11v11.5v10.5v16q0 13 79 13q67 0 67 -14v-56
q0 -74 -47.5 -119t-123.5 -45q-79 0 -125 43.5t-46 120.5v41q0 39 13 72t23.5 46t36.5 41q12 13 19.5 24t11.5 17.5t6 18.5t2.5 16t0 20.5t-0.5 22.5q0 16 78 13h13t14 -0.5t13 -1t13 -2t9.5 -3.5t7 -5t2.5 -8zM295 528q4 -36 -19 -65t-55 -24q-37 3 -54 15t-17 29.5t1 39.5
q2 31 21 52.5t49 23.5q28 2 45 -9t22 -25.5t7 -36.5z" />
    <glyph glyph-name="Agrave" unicode="&#xc0;" horiz-adv-x="392" 
d="M150 10q-1 -10 -68 -10q-73 0 -72 9q63 388 106 677q2 15 76 15q70 0 73 -18q55 -327 117 -673q2 -9 -55 -10h-24h-9.5h-10h-9.5t-9 0.5t-7.5 1t-7.5 1.5t-5.5 2t-4 3t-1.5 4q-4 25 -9.5 66t-9.5 70q-1 7 -5 7.5t-21 0.5h-8q-21 0 -22 -8q-11 -100 -14 -138zM172 259
q0 -6 3 -7t16 -1h7.5h6.5t4 0.5t3 2t1 4.5q-2 34 -5.5 87.5t-5.5 81.5q0 9 -3 26t-7 17t-6.5 -20t-2.5 -28q-2 -35 -5.5 -83.5t-5.5 -79.5zM303 789q-17 -46 -18 -59q-2 -16 -23 -9q-121 45 -159 59q-6 1 -13 9.5t-2 16.5q5 10 21 54q3 13 33 4q105 -39 123 -44
q20 -8 30.5 -16t7.5 -15z" />
    <glyph glyph-name="Aacute" unicode="&#xc1;" horiz-adv-x="392" 
d="M150 10q-1 -10 -68 -10q-73 0 -72 9q63 388 106 677q2 15 76 15q70 0 73 -18q55 -327 117 -673q2 -9 -55 -10h-24h-9.5h-10h-9.5t-9 0.5t-7.5 1t-7.5 1.5t-5.5 2t-4 3t-1.5 4q-4 25 -9.5 66t-9.5 70q-1 7 -5 7.5t-21 0.5h-8q-21 0 -22 -8q-11 -100 -14 -138zM172 259
q0 -6 3 -7t16 -1h7.5h6.5t4 0.5t3 2t1 4.5q-2 34 -5.5 87.5t-5.5 81.5q0 9 -3 26t-7 17t-6.5 -20t-2.5 -28q-2 -35 -5.5 -83.5t-5.5 -79.5zM126 822q18 5 123 44q30 9 33 -4q16 -44 21 -54q5 -8 -2 -16.5t-13 -9.5q-38 -14 -159 -59q-21 -7 -23 9q-1 13 -18 59q-3 7 7.5 15
t30.5 16z" />
    <glyph glyph-name="Acircumflex" unicode="&#xc2;" horiz-adv-x="392" 
d="M150 10q-1 -10 -68 -10q-73 0 -72 9q63 388 106 677q2 15 76 15q70 0 73 -18q55 -327 117 -673q2 -9 -55 -10h-24h-9.5h-10h-9.5t-9 0.5t-7.5 1t-7.5 1.5t-5.5 2t-4 3t-1.5 4q-4 25 -9.5 66t-9.5 70q-1 7 -5 7.5t-21 0.5h-8q-21 0 -22 -8q-11 -100 -14 -138zM172 259
q0 -6 3 -7t16 -1h7.5h6.5t4 0.5t3 2t1 4.5q-2 34 -5.5 87.5t-5.5 81.5q0 9 -3 26t-7 17t-6.5 -20t-2.5 -28q-2 -35 -5.5 -83.5t-5.5 -79.5zM323 778q3 -4 -2.5 -15.5t-13 -24.5t-8.5 -16q-2 -8 -7.5 -11t-16.5 6l-21.5 21.5l-21.5 21.5t-18 17.5t-14.5 13t-7.5 4.5
q-5 0 -85 -76q-19 -18 -24 5q-1 3 -9.5 17.5t-14.5 27.5t-3 17q7 10 65 50q10 7 22.5 16.5t19.5 15t14.5 9.5t13.5 4q4 0 9.5 -3t13 -8.5t14.5 -11.5t18 -15t19 -16q54 -42 58 -49z" />
    <glyph glyph-name="Atilde" unicode="&#xc3;" horiz-adv-x="392" 
d="M150 10q-1 -10 -68 -10q-73 0 -72 9q63 388 106 677q2 15 76 15q70 0 73 -18q55 -327 117 -673q2 -9 -55 -10h-24h-9.5h-10h-9.5t-9 0.5t-7.5 1t-7.5 1.5t-5.5 2t-4 3t-1.5 4q-4 25 -9.5 66t-9.5 70q-1 7 -5 7.5t-21 0.5h-8q-21 0 -22 -8q-11 -100 -14 -138zM172 259
q0 -6 3 -7t16 -1h7.5h6.5t4 0.5t3 2t1 4.5q-2 34 -5.5 87.5t-5.5 81.5q0 9 -3 26t-7 17t-6.5 -20t-2.5 -28q-2 -35 -5.5 -83.5t-5.5 -79.5zM194 740q-4 4 -8.5 9.5t-6.5 7t-6 3t-9 1.5q-6 0 -9 -2t-11 -10.5t-19 -17.5q-8 -6 -15 -4t-9 9l-25 50q-6 10 44 44q30 20 43 20
q24 0 36 -11q5 -5 11 -12.5t10 -10t10 -2.5q10 0 36 31q8 9 15 6t9 -11q2 -6 13.5 -27t12.5 -22q3 -4 -3 -10.5t-22 -19t-20 -15.5q-22 -18 -41 -18q-24 0 -36 12z" />
    <glyph glyph-name="Adieresis" unicode="&#xc4;" horiz-adv-x="392" 
d="M150 10q-1 -10 -68 -10q-73 0 -72 9q63 388 106 677q2 15 76 15q70 0 73 -18q55 -327 117 -673q2 -9 -55 -10h-24h-9.5h-10h-9.5t-9 0.5t-7.5 1t-7.5 1.5t-5.5 2t-4 3t-1.5 4q-4 25 -9.5 66t-9.5 70q-1 7 -5 7.5t-21 0.5h-8q-21 0 -22 -8q-11 -100 -14 -138zM172 259
q0 -6 3 -7t16 -1h7.5h6.5t4 0.5t3 2t1 4.5q-2 34 -5.5 87.5t-5.5 81.5q0 9 -3 26t-7 17t-6.5 -20t-2.5 -28q-2 -35 -5.5 -83.5t-5.5 -79.5zM50 784q-3 29 15.5 52t44.5 19q30 -3 43.5 -12.5t13.5 -23.5v-32q-2 -25 -17.5 -42.5t-39.5 -18.5q-33 -3 -45 13t-15 45zM217 784
q-3 29 15.5 52t44.5 19q30 -3 43.5 -12.5t13.5 -23.5v-32q-2 -25 -17.5 -42.5t-39.5 -18.5q-33 -3 -45 13t-15 45z" />
    <glyph glyph-name="Aring" unicode="&#xc5;" horiz-adv-x="392" 
d="M150 10q-1 -10 -68 -10q-73 0 -72 9q63 388 106 677q2 15 76 15q70 0 73 -18q55 -327 117 -673q2 -9 -55 -10h-24h-9.5h-10h-9.5t-9 0.5t-7.5 1t-7.5 1.5t-5.5 2t-4 3t-1.5 4q-4 25 -9.5 66t-9.5 70q-1 7 -5 7.5t-21 0.5h-8q-21 0 -22 -8q-11 -100 -14 -138zM172 259
q0 -6 3 -7t16 -1h7.5h6.5t4 0.5t3 2t1 4.5q-2 34 -5.5 87.5t-5.5 81.5q0 9 -3 26t-7 17t-6.5 -20t-2.5 -28q-2 -35 -5.5 -83.5t-5.5 -79.5zM195 729q-35 -4 -63 18.5t-22 53.5q3 36 14.5 52.5t28.5 16.5h38q30 -2 51 -21t22 -48q3 -40 -15.5 -54t-53.5 -18zM222 801
q-1 12 -9.5 20t-21.5 10q-13 0 -18 -0.5t-11 -7.5t-8 -22q-2 -14 10.5 -24t27.5 -8q10 1 15.5 3t10.5 9t4 20z" />
    <glyph glyph-name="AE" unicode="&#xc6;" horiz-adv-x="553" 
d="M248 4q-6 5 -6 34v106q0 11 -36 11q-39 0 -41 -12q-9 -56 -26 -136q0 -3 -34.5 -5.5t-68.5 -1.5t-33 6q0 1 36.5 175.5t70 333.5t35.5 163q9 22 27 22h350q8 0 9.5 -11t1.5 -45v-10q0 -49 -2 -61.5t-12 -12.5h-99q-19 0 -23 -5q-5 -7 -5 -19v-73q0 -21 6 -26q6 -4 22 -4
h46q9 0 11.5 -11t2.5 -53v-20q0 -35 -1.5 -45t-9.5 -10h-45q-19 0 -25 -3q-7 -5 -7 -29v-83q0 -32 5 -35q7 -4 30 -4h95q9 0 11 -12t2 -56q0 -46 -2 -59t-10 -13h-235q-35 0 -40 4zM176 276q-2 -9 30 -9q36 0 36 8v231q0 56 -6 56q-7 0 -17 -56q-34 -179 -43 -230z" />
    <glyph glyph-name="Ccedilla" unicode="&#xc7;" horiz-adv-x="387" 
d="M372 164q0 -76 -42.5 -118t-82.5 -42q-5 0 -5 -35q0 -45 -31.5 -78t-76.5 -33q-5 0 -5 29q0 45 3 45q15 0 29 9.5t14 25.5q0 34 -3 34q-10 0 -30.5 7.5t-47 24t-45.5 51t-19 80.5v372q0 73 49 118.5t126 45.5q79 0 123 -43.5t44 -120.5v-64q0 -5 -3 -7.5t-20 -4.5t-53 -2
q-57 0 -62 3q-4 2 -4 7v58q0 29 -25 29q-6 0 -10.5 -1.5t-7.5 -5.5t-4.5 -7.5t-2 -10.5t-0.5 -11v-12.5v-11.5v-290v-11.5v-12.5t0.5 -11t2 -10.5t4.5 -7.5t7.5 -5.5t10.5 -1.5q25 0 25 29v45q0 13 8.5 15t49.5 2h18h27t18.5 -2t12 -2t6.5 -4l2 -5v-7v-9v-43z" />
    <glyph glyph-name="Egrave" unicode="&#xc8;" horiz-adv-x="351" 
d="M46 4q-6 5 -6 34v632q0 13 7 22q6 8 23 8h249q9 0 10.5 -9t1.5 -55q0 -55 -1.5 -65.5t-11.5 -10.5h-100q-19 0 -23 -5q-5 -7 -5 -19v-73q0 -21 6 -26q6 -4 22 -4h49q9 0 10 -9t1 -62v-22q0 -46 -11 -46h-45q-19 0 -25 -3q-7 -5 -7 -29v-83q0 -32 5 -35q7 -4 30 -4h95
q9 0 11 -9.5t2 -57.5q0 -53 -2 -63t-10 -10h-235q-35 0 -40 4zM287 792q-17 -46 -18 -59q-2 -16 -23 -9q-121 45 -159 59q-6 1 -13 9.5t-2 16.5q5 10 21 54q3 13 33 4q105 -39 123 -44q20 -8 30.5 -16t7.5 -15z" />
    <glyph glyph-name="Eacute" unicode="&#xc9;" horiz-adv-x="351" 
d="M46 4q-6 5 -6 34v632q0 13 7 22q6 8 23 8h249q9 0 10.5 -9t1.5 -55q0 -55 -1.5 -65.5t-11.5 -10.5h-100q-19 0 -23 -5q-5 -7 -5 -19v-73q0 -21 6 -26q6 -4 22 -4h49q9 0 10 -9t1 -62v-22q0 -46 -11 -46h-45q-19 0 -25 -3q-7 -5 -7 -29v-83q0 -32 5 -35q7 -4 30 -4h95
q9 0 11 -9.5t2 -57.5q0 -53 -2 -63t-10 -10h-235q-35 0 -40 4zM104 827q18 5 123 44q30 9 33 -4q16 -44 21 -54q5 -8 -2 -16.5t-13 -9.5q-38 -14 -159 -59q-21 -7 -23 9q-1 13 -18 59q-3 7 7.5 15t30.5 16z" />
    <glyph glyph-name="Ecircumflex" unicode="&#xca;" horiz-adv-x="351" 
d="M46 4q-6 5 -6 34v632q0 13 7 22q6 8 23 8h249q9 0 10.5 -9t1.5 -55q0 -55 -1.5 -65.5t-11.5 -10.5h-100q-19 0 -23 -5q-5 -7 -5 -19v-73q0 -21 6 -26q6 -4 22 -4h49q9 0 10 -9t1 -62v-22q0 -46 -11 -46h-45q-19 0 -25 -3q-7 -5 -7 -29v-83q0 -32 5 -35q7 -4 30 -4h95
q9 0 11 -9.5t2 -57.5q0 -53 -2 -63t-10 -10h-235q-35 0 -40 4zM309 790q3 -4 -2.5 -15.5t-13 -24.5t-8.5 -16q-2 -8 -7.5 -11t-16.5 6l-21.5 21.5l-21.5 21.5t-18 17.5t-14.5 13t-7.5 4.5q-5 0 -85 -76q-19 -18 -24 5q-1 3 -9.5 17.5t-14.5 27.5t-3 17q7 10 65 50
q10 7 22.5 16.5t19.5 15t14.5 9.5t13.5 4q4 0 9.5 -3t13 -8.5t14.5 -11.5t18 -15t19 -16q54 -42 58 -49z" />
    <glyph glyph-name="Edieresis" unicode="&#xcb;" horiz-adv-x="351" 
d="M46 4q-6 5 -6 34v632q0 13 7 22q6 8 23 8h249q9 0 10.5 -9t1.5 -55q0 -55 -1.5 -65.5t-11.5 -10.5h-100q-19 0 -23 -5q-5 -7 -5 -19v-73q0 -21 6 -26q6 -4 22 -4h49q9 0 10 -9t1 -62v-22q0 -46 -11 -46h-45q-19 0 -25 -3q-7 -5 -7 -29v-83q0 -32 5 -35q7 -4 30 -4h95
q9 0 11 -9.5t2 -57.5q0 -53 -2 -63t-10 -10h-235q-35 0 -40 4zM41 793q-3 29 15.5 52t44.5 19q30 -3 43.5 -12.5t13.5 -23.5v-32q-2 -25 -17.5 -42.5t-39.5 -18.5q-33 -3 -45 13t-15 45zM208 793q-3 29 15.5 52t44.5 19q30 -3 43.5 -12.5t13.5 -23.5v-32q-2 -25 -17.5 -42.5
t-39.5 -18.5q-33 -3 -45 13t-15 45z" />
    <glyph glyph-name="Igrave" unicode="&#xcc;" horiz-adv-x="230" 
d="M190 17q0 -12 -10.5 -14.5t-67.5 -2.5q-53 0 -62.5 2t-9.5 13v666q0 13 9 15.5t63 2.5q58 0 68 -2.5t10 -16.5v-663zM228 789q-17 -46 -18 -59q-2 -16 -23 -9q-121 45 -159 59q-6 1 -13 9.5t-2 16.5q5 10 21 54q3 13 33 4q105 -39 123 -44q20 -8 30.5 -16t7.5 -15z" />
    <glyph glyph-name="Iacute" unicode="&#xcd;" horiz-adv-x="230" 
d="M190 17q0 -12 -10.5 -14.5t-67.5 -2.5q-53 0 -62.5 2t-9.5 13v666q0 13 9 15.5t63 2.5q58 0 68 -2.5t10 -16.5v-663zM50 824q18 5 123 44q30 9 33 -4q16 -44 21 -54q5 -8 -2 -16.5t-13 -9.5q-38 -14 -159 -59q-21 -7 -23 9q-1 13 -18 59q-3 7 7.5 15t30.5 16z" />
    <glyph glyph-name="Icircumflex" unicode="&#xce;" horiz-adv-x="230" 
d="M190 17q0 -12 -10.5 -14.5t-67.5 -2.5q-53 0 -62.5 2t-9.5 13v666q0 13 9 15.5t63 2.5q58 0 68 -2.5t10 -16.5v-663zM251 778q3 -4 -2.5 -15.5t-13 -24.5t-8.5 -16q-2 -8 -7.5 -11t-16.5 6l-21.5 21.5l-21.5 21.5t-18 17.5t-14.5 13t-7.5 4.5q-5 0 -85 -76q-19 -18 -24 5
q-1 3 -9.5 17.5t-14.5 27.5t-3 17q7 10 65 50q10 7 22.5 16.5t19.5 15t14.5 9.5t13.5 4q4 0 9.5 -3t13 -8.5t14.5 -11.5t18 -15t19 -16q54 -42 58 -49z" />
    <glyph glyph-name="Idieresis" unicode="&#xcf;" horiz-adv-x="230" 
d="M190 17q0 -12 -10.5 -14.5t-67.5 -2.5q-53 0 -62.5 2t-9.5 13v666q0 13 9 15.5t63 2.5q58 0 68 -2.5t10 -16.5v-663zM-25 787q-3 29 15.5 52t44.5 19q30 -3 43.5 -12.5t13.5 -23.5v-32q-2 -25 -17.5 -42.5t-39.5 -18.5q-33 -3 -45 13t-15 45zM142 787q-3 29 15.5 52
t44.5 19q30 -3 43.5 -12.5t13.5 -23.5v-32q-2 -25 -17.5 -42.5t-39.5 -18.5q-33 -3 -45 13t-15 45z" />
    <glyph glyph-name="Eth" unicode="&#xd0;" horiz-adv-x="425" 
d="M50 280q0 7 -17 7q-14 0 -18.5 4t-4.5 15v98q0 9 6 12t25 3q9 0 9 5v246q0 22 4 26t26 4h145q80 0 127.5 -44t47.5 -120v-372q0 -76 -47.5 -120t-127.5 -44h-145q-23 0 -26.5 3.5t-3.5 26.5v250zM196 418q0 -2 16 -3.5t16 -11.5q0 -2 -0.5 -22t-0.5 -41.5t1 -37.5
q0 -16 -19 -16q-13 0 -13 -8v-121q0 -9 4 -10.5t25 -1.5q13 0 19 9.5t7 18.5t1 27v5v290v5q0 18 -1 27t-7 18.5t-19 9.5h-5q-17 0 -20.5 -1.5t-3.5 -10.5v-125z" />
    <glyph glyph-name="Ntilde" unicode="&#xd1;" horiz-adv-x="462" 
d="M214 282q-13 44 -21 44q-7 0 -7 -50v-259q0 -12 -10.5 -14.5t-67.5 -2.5q-52 0 -60 2t-8 13v666q0 14 8 16t60 2q43 0 52.5 -3t13.5 -16q39 -139 80 -260q8 -27 14 -27q8 0 8 41v247q0 13 9 15.5t63 2.5q57 0 65.5 -2.5t8.5 -16.5v-663q0 -12 -7 -14q-9 -3 -67 -3
q-40 0 -46 5q-4 3 -6 10q-17 49 -82 267zM223 748q-4 4 -8.5 9.5t-6.5 7t-6 3t-9 1.5q-6 0 -9 -2t-11 -10.5t-19 -17.5q-8 -6 -15 -4t-9 9l-25 50q-6 10 44 44q30 20 43 20q24 0 36 -11q5 -5 11 -12.5t10 -10t10 -2.5q10 0 36 31q8 9 15 6t9 -11q2 -6 13.5 -27t12.5 -22
q3 -4 -3 -10.5t-22 -19t-20 -15.5q-22 -18 -41 -18q-24 0 -36 12z" />
    <glyph glyph-name="Ograve" unicode="&#xd2;" horiz-adv-x="400" 
d="M375 164q0 -76 -47.5 -120t-127.5 -44q-77 0 -126 45.5t-49 118.5v372q0 73 49 118.5t126 45.5q80 0 127.5 -44t47.5 -120v-372zM225 495v9.5v9.5v8.5t-1 9t-2 7.5t-3 6.5t-4.5 5t-6 3.5t-8.5 1q-6 0 -10.5 -1.5t-7.5 -5.5t-4.5 -7.5t-2 -10.5t-0.5 -11v-12.5v-11.5v-290
v-11.5v-12.5t0.5 -11t2 -10.5t4.5 -7.5t7.5 -5.5t10.5 -1.5q5 0 8.5 1t6 3.5t4.5 5t3 6.5t2 7.5t1 9v8.5v9.5v9.5v290zM316 789q-17 -46 -18 -59q-2 -16 -23 -9q-121 45 -159 59q-6 1 -13 9.5t-2 16.5q5 10 21 54q3 13 33 4q105 -39 123 -44q20 -8 30.5 -16t7.5 -15z" />
    <glyph glyph-name="Oacute" unicode="&#xd3;" horiz-adv-x="400" 
d="M375 164q0 -76 -47.5 -120t-127.5 -44q-77 0 -126 45.5t-49 118.5v372q0 73 49 118.5t126 45.5q80 0 127.5 -44t47.5 -120v-372zM225 495v9.5v9.5v8.5t-1 9t-2 7.5t-3 6.5t-4.5 5t-6 3.5t-8.5 1q-6 0 -10.5 -1.5t-7.5 -5.5t-4.5 -7.5t-2 -10.5t-0.5 -11v-12.5v-11.5v-290
v-11.5v-12.5t0.5 -11t2 -10.5t4.5 -7.5t7.5 -5.5t10.5 -1.5q5 0 8.5 1t6 3.5t4.5 5t3 6.5t2 7.5t1 9v8.5v9.5v9.5v290zM129 820q18 5 123 44q30 9 33 -4q16 -44 21 -54q5 -8 -2 -16.5t-13 -9.5q-38 -14 -159 -59q-21 -7 -23 9q-1 13 -18 59q-3 7 7.5 15t30.5 16z" />
    <glyph glyph-name="Ocircumflex" unicode="&#xd4;" horiz-adv-x="400" 
d="M375 164q0 -76 -47.5 -120t-127.5 -44q-77 0 -126 45.5t-49 118.5v372q0 73 49 118.5t126 45.5q80 0 127.5 -44t47.5 -120v-372zM225 495v9.5v9.5v8.5t-1 9t-2 7.5t-3 6.5t-4.5 5t-6 3.5t-8.5 1q-6 0 -10.5 -1.5t-7.5 -5.5t-4.5 -7.5t-2 -10.5t-0.5 -11v-12.5v-11.5v-290
v-11.5v-12.5t0.5 -11t2 -10.5t4.5 -7.5t7.5 -5.5t10.5 -1.5q5 0 8.5 1t6 3.5t4.5 5t3 6.5t2 7.5t1 9v8.5v9.5v9.5v290zM334 778q3 -4 -2.5 -15.5t-13 -24.5t-8.5 -16q-2 -8 -7.5 -11t-16.5 6l-21.5 21.5l-21.5 21.5t-18 17.5t-14.5 13t-7.5 4.5q-5 0 -85 -76q-19 -18 -24 5
q-1 3 -9.5 17.5t-14.5 27.5t-3 17q7 10 65 50q10 7 22.5 16.5t19.5 15t14.5 9.5t13.5 4q4 0 9.5 -3t13 -8.5t14.5 -11.5t18 -15t19 -16q54 -42 58 -49z" />
    <glyph glyph-name="Otilde" unicode="&#xd5;" horiz-adv-x="400" 
d="M375 164q0 -76 -47.5 -120t-127.5 -44q-77 0 -126 45.5t-49 118.5v372q0 73 49 118.5t126 45.5q80 0 127.5 -44t47.5 -120v-372zM225 495v9.5v9.5v8.5t-1 9t-2 7.5t-3 6.5t-4.5 5t-6 3.5t-8.5 1q-6 0 -10.5 -1.5t-7.5 -5.5t-4.5 -7.5t-2 -10.5t-0.5 -11v-12.5v-11.5v-290
v-11.5v-12.5t0.5 -11t2 -10.5t4.5 -7.5t7.5 -5.5t10.5 -1.5q5 0 8.5 1t6 3.5t4.5 5t3 6.5t2 7.5t1 9v8.5v9.5v9.5v290zM198 740q-4 4 -8.5 9.5t-6.5 7t-6 3t-9 1.5q-6 0 -9 -2t-11 -10.5t-19 -17.5q-8 -6 -15 -4t-9 9q-1 4 -6 14t-11.5 21.5t-7.5 14.5q-6 10 44 44
q30 20 43 20q24 0 36 -11q5 -5 11 -12.5t10 -10t10 -2.5q10 0 36 31q8 9 15 6t9 -11q2 -6 13.5 -27t12.5 -22q3 -4 -3 -10.5t-22 -19t-20 -15.5q-22 -18 -41 -18q-24 0 -36 12z" />
    <glyph glyph-name="Odieresis" unicode="&#xd6;" horiz-adv-x="400" 
d="M375 164q0 -76 -47.5 -120t-127.5 -44q-77 0 -126 45.5t-49 118.5v372q0 73 49 118.5t126 45.5q80 0 127.5 -44t47.5 -120v-372zM225 495v9.5v9.5v8.5t-1 9t-2 7.5t-3 6.5t-4.5 5t-6 3.5t-8.5 1q-6 0 -10.5 -1.5t-7.5 -5.5t-4.5 -7.5t-2 -10.5t-0.5 -11v-12.5v-11.5v-290
v-11.5v-12.5t0.5 -11t2 -10.5t4.5 -7.5t7.5 -5.5t10.5 -1.5q5 0 8.5 1t6 3.5t4.5 5t3 6.5t2 7.5t1 9v8.5v9.5v9.5v290zM58 784q-3 29 15.5 52t44.5 19q30 -3 43.5 -12.5t13.5 -23.5v-32q-2 -25 -17.5 -42.5t-39.5 -18.5q-33 -3 -45 13t-15 45zM225 784q-3 29 15.5 52
t44.5 19q30 -3 43.5 -12.5t13.5 -23.5v-32q-2 -25 -17.5 -42.5t-39.5 -18.5q-33 -3 -45 13t-15 45z" />
    <glyph glyph-name="Oslash" unicode="&#xd8;" horiz-adv-x="400" 
d="M116 6q-5 -13 -12 -33.5t-9 -27.5q-5 -15 -32 -15q-7 0 -15 1.5t-14 4.5t-5 7q22 62 34 97q4 12 -5 23q-33 42 -33 101v372q0 73 49 118.5t126 45.5q39 0 69 -10q11 -3 12 -2.5t4 6.5q5 13 12 35t9 27q4 13 31 13q12 0 22.5 -5.5t7.5 -13.5q-4 -14 -14 -42.5t-15 -44.5
q-4 -14 0 -18q37 -39 37 -109v-372q0 -76 -47.5 -120t-127.5 -44q-37 0 -70 12q-10 4 -14 -6zM225 531q0 24 -25 24q-6 0 -10.5 -1.5t-7.5 -5.5t-4.5 -7.5t-2 -10.5t-0.5 -11v-12.5v-11.5v-326q0 -9 6.5 -16.5t18.5 -7.5q5 0 8.5 1t6 3.5t4.5 5t3 6.5t2 7.5t1 9v8.5v9.5v9.5
v326z" />
    <glyph glyph-name="Ugrave" unicode="&#xd9;" 
d="M380 680v-516q0 -76 -47.5 -120t-127.5 -44q-77 0 -126 45.5t-49 118.5v516q0 15 10.5 17.5t70.5 2.5q58 0 65 -7q4 -4 4 -13v-475v-11.5v-12.5t0.5 -11t2 -10.5t4.5 -7.5t7.5 -5.5t10.5 -1.5q5 0 8.5 1t6 3.5t4.5 5t3 6.5t2 7.5t1 9v8.5v9.5v9.5v475q0 15 9.5 17.5
t59.5 2.5q39 0 56.5 -2t21 -5.5t3.5 -12.5zM311 792q-17 -46 -18 -59q-2 -16 -23 -9q-121 45 -159 59q-6 1 -13 9.5t-2 16.5q5 10 21 54q3 13 33 4q105 -39 123 -44q20 -8 30.5 -16t7.5 -15z" />
    <glyph glyph-name="Uacute" unicode="&#xda;" 
d="M380 680v-516q0 -76 -47.5 -120t-127.5 -44q-77 0 -126 45.5t-49 118.5v516q0 15 10.5 17.5t70.5 2.5q58 0 65 -7q4 -4 4 -13v-475v-11.5v-12.5t0.5 -11t2 -10.5t4.5 -7.5t7.5 -5.5t10.5 -1.5q5 0 8.5 1t6 3.5t4.5 5t3 6.5t2 7.5t1 9v8.5v9.5v9.5v475q0 15 9.5 17.5
t59.5 2.5q39 0 56.5 -2t21 -5.5t3.5 -12.5zM140 820q18 5 123 44q30 9 33 -4q16 -44 21 -54q5 -8 -2 -16.5t-13 -9.5q-38 -14 -159 -59q-21 -7 -23 9q-1 13 -18 59q-3 7 7.5 15t30.5 16z" />
    <glyph glyph-name="Ucircumflex" unicode="&#xdb;" 
d="M380 680v-516q0 -76 -47.5 -120t-127.5 -44q-77 0 -126 45.5t-49 118.5v516q0 15 10.5 17.5t70.5 2.5q58 0 65 -7q4 -4 4 -13v-475v-11.5v-12.5t0.5 -11t2 -10.5t4.5 -7.5t7.5 -5.5t10.5 -1.5q5 0 8.5 1t6 3.5t4.5 5t3 6.5t2 7.5t1 9v8.5v9.5v9.5v475q0 15 9.5 17.5
t59.5 2.5q39 0 56.5 -2t21 -5.5t3.5 -12.5zM336 790q3 -4 -2.5 -15.5t-13 -24.5t-8.5 -16q-2 -8 -7.5 -11t-16.5 6l-21.5 21.5l-21.5 21.5t-18 17.5t-14.5 13t-7.5 4.5q-5 0 -85 -76q-19 -18 -24 5q-1 3 -9.5 17.5t-14.5 27.5t-3 17q7 10 65 50q10 7 22.5 16.5t19.5 15
t14.5 9.5t13.5 4q4 0 9.5 -3t13 -8.5t14.5 -11.5t18 -15t19 -16q54 -42 58 -49z" />
    <glyph glyph-name="Udieresis" unicode="&#xdc;" 
d="M380 680v-516q0 -76 -47.5 -120t-127.5 -44q-77 0 -126 45.5t-49 118.5v516q0 15 10.5 17.5t70.5 2.5q58 0 65 -7q4 -4 4 -13v-475v-11.5v-12.5t0.5 -11t2 -10.5t4.5 -7.5t7.5 -5.5t10.5 -1.5q5 0 8.5 1t6 3.5t4.5 5t3 6.5t2 7.5t1 9v8.5v9.5v9.5v475q0 15 9.5 17.5
t59.5 2.5q39 0 56.5 -2t21 -5.5t3.5 -12.5zM64 787q-3 29 15.5 52t44.5 19q30 -3 43.5 -12.5t13.5 -23.5v-32q-2 -25 -17.5 -42.5t-39.5 -18.5q-33 -3 -45 13t-15 45zM231 787q-3 29 15.5 52t44.5 19q30 -3 43.5 -12.5t13.5 -23.5v-32q-2 -25 -17.5 -42.5t-39.5 -18.5
q-33 -3 -45 13t-15 45z" />
    <glyph glyph-name="Yacute" unicode="&#xdd;" horiz-adv-x="408" 
d="M132 243q0 43 -1 49q0 1 -16 59q-8 28 -42.5 147t-52.5 187q-2 8 20.5 11t46.5 3q79 0 81 -16q6 -43 17.5 -120.5t17.5 -118.5q0 -9 6 -9q5 0 5 10q7 51 17 130t14 108q2 16 75 16q13 0 23 -0.5t22 -1.5t18 -4t5 -8q-54 -213 -88 -323q-3 -10 -7.5 -30t-6.5 -28
q-5 -15 -5 -58v-238q0 -8 -75 -8t-75 11q0 39 0.5 112.5t0.5 119.5zM132 827q18 5 123 44q30 9 33 -4q16 -44 21 -54q5 -8 -2 -16.5t-13 -9.5q-38 -14 -159 -59q-21 -7 -23 9q-1 13 -18 59q-3 7 7.5 15t30.5 16z" />
    <glyph glyph-name="Thorn" unicode="&#xde;" 
d="M390 292q0 -76 -47.5 -120t-127.5 -44q-13 0 -19 -8t-6 -34v-69q0 -17 -60 -17h-17q-58 0 -66 7q-7 5 -7 23v640q0 22 4 26t26 4h105q15 0 15 -59q0 -24 4 -36.5t8.5 -14.5t12.5 -2q80 0 127.5 -44t47.5 -120v-132zM240 383v9.5v9.5v8.5t-1 9t-2 7.5t-3 6.5t-4.5 5
t-6 3.5t-8.5 1q-20 0 -22.5 -1t-2.5 -11v-156q0 -10 2.5 -11t22.5 -1q5 0 8.5 1t6 3.5t4.5 5t3 6.5t2 7.5t1 9v8.5v9.5v9.5v60z" />
    <glyph glyph-name="germandbls" unicode="&#xdf;" 
d="M30 12v524q0 73 49 118.5t126 45.5q80 0 127.5 -44t47.5 -120v-86q0 -38 -22 -60q-7 -7 -16 -11.5t-15 -6.5t-7 -3l7 -2q7 -2 16 -6.5t16 -12.5q21 -23 21 -66v-118q0 -77 -45.5 -120.5t-124.5 -43.5q-3 0 -5 2.5t-3 10.5t-1.5 21.5t-0.5 38.5q0 72 10 72q13 0 20.5 10
t8.5 21t1 29v54q0 60 -35 60q-6 0 -6 46q0 44 6 44q35 0 35 60v26q0 32 -6 46t-26 14q-13 0 -19.5 -8.5t-7.5 -19t-1 -32.5v-484q0 -11 -70 -13q-80 -4 -80 14z" />
    <glyph glyph-name="agrave" unicode="&#xe0;" horiz-adv-x="400" 
d="M370 471v-462q0 -7 -5.5 -8.5t-27.5 -0.5h-25h-18t-15 -0.5t-12.5 -0.5t-10 0.5t-7.5 1t-6 1.5t-4 2.5t-2.5 4t-1 6t-0.5 7.5q0 21 -2 21q-2 1 -5 -4q-8 -15 -27.5 -27t-41.5 -12q-58 0 -98.5 39t-40.5 125v152q0 86 40 125t98 39q22 0 42 -13.5t29 -29.5q6 -9 6 6v15
q0 4 0.5 7.5t1 6t2.5 4t4 2.5t6 1.5t7.5 1t10 0.5t12.5 -0.5t15 -0.5h18h25q21 1 27 -0.5t6 -8.5zM225 218v44v14.5v15t-0.5 13t-2.5 12.5t-5.5 8.5t-9 6.5t-12.5 2q-6 0 -11 -2t-8.5 -4.5t-5.5 -7.5t-3 -9t-1.5 -11.5t-0.5 -11.5v-13v-13v-44v-13v-13t0.5 -11.5t1.5 -11.5
t3 -9t5.5 -7.5t8.5 -4.5t11 -2q7 0 12.5 2t9 6.5t5.5 8.5t2.5 12.5t0.5 13v15v14.5zM303 599q-17 -46 -18 -59q-2 -16 -23 -9q-121 45 -159 59q-6 1 -13 9.5t-2 16.5q5 10 21 54q3 13 33 4q105 -39 123 -44q20 -8 30.5 -16t7.5 -15z" />
    <glyph glyph-name="aacute" unicode="&#xe1;" horiz-adv-x="400" 
d="M370 471v-462q0 -7 -5.5 -8.5t-27.5 -0.5h-25h-18t-15 -0.5t-12.5 -0.5t-10 0.5t-7.5 1t-6 1.5t-4 2.5t-2.5 4t-1 6t-0.5 7.5q0 21 -2 21q-2 1 -5 -4q-8 -15 -27.5 -27t-41.5 -12q-58 0 -98.5 39t-40.5 125v152q0 86 40 125t98 39q22 0 42 -13.5t29 -29.5q6 -9 6 6v15
q0 4 0.5 7.5t1 6t2.5 4t4 2.5t6 1.5t7.5 1t10 0.5t12.5 -0.5t15 -0.5h18h25q21 1 27 -0.5t6 -8.5zM225 218v44v14.5v15t-0.5 13t-2.5 12.5t-5.5 8.5t-9 6.5t-12.5 2q-6 0 -11 -2t-8.5 -4.5t-5.5 -7.5t-3 -9t-1.5 -11.5t-0.5 -11.5v-13v-13v-44v-13v-13t0.5 -11.5t1.5 -11.5
t3 -9t5.5 -7.5t8.5 -4.5t11 -2q7 0 12.5 2t9 6.5t5.5 8.5t2.5 12.5t0.5 13v15v14.5zM146 630q18 5 123 44q30 9 33 -4q16 -44 21 -54q5 -8 -2 -16.5t-13 -9.5q-38 -14 -159 -59q-21 -7 -23 9q-1 13 -18 59q-3 7 7.5 15t30.5 16z" />
    <glyph glyph-name="acircumflex" unicode="&#xe2;" horiz-adv-x="400" 
d="M370 471v-462q0 -7 -5.5 -8.5t-27.5 -0.5h-25h-18t-15 -0.5t-12.5 -0.5t-10 0.5t-7.5 1t-6 1.5t-4 2.5t-2.5 4t-1 6t-0.5 7.5q0 21 -2 21q-2 1 -5 -4q-8 -15 -27.5 -27t-41.5 -12q-58 0 -98.5 39t-40.5 125v152q0 86 40 125t98 39q22 0 42 -13.5t29 -29.5q6 -9 6 6v15
q0 4 0.5 7.5t1 6t2.5 4t4 2.5t6 1.5t7.5 1t10 0.5t12.5 -0.5t15 -0.5h18h25q21 1 27 -0.5t6 -8.5zM225 218v44v14.5v15t-0.5 13t-2.5 12.5t-5.5 8.5t-9 6.5t-12.5 2q-6 0 -11 -2t-8.5 -4.5t-5.5 -7.5t-3 -9t-1.5 -11.5t-0.5 -11.5v-13v-13v-44v-13v-13t0.5 -11.5t1.5 -11.5
t3 -9t5.5 -7.5t8.5 -4.5t11 -2q7 0 12.5 2t9 6.5t5.5 8.5t2.5 12.5t0.5 13v15v14.5zM332 579q3 -4 -2.5 -15.5t-13 -24.5t-8.5 -16q-2 -8 -7.5 -11t-16.5 6l-21.5 21.5l-21.5 21.5t-18 17.5t-14.5 13t-7.5 4.5q-5 0 -85 -76q-19 -18 -24 5q-1 3 -9.5 17.5t-14.5 27.5t-3 17
q7 10 65 50q10 7 22.5 16.5t19.5 15t14.5 9.5t13.5 4q4 0 9.5 -3t13 -8.5t14.5 -11.5t18 -15t19 -16q54 -42 58 -49z" />
    <glyph glyph-name="atilde" unicode="&#xe3;" horiz-adv-x="400" 
d="M370 471v-462q0 -7 -5.5 -8.5t-27.5 -0.5h-25h-18t-15 -0.5t-12.5 -0.5t-10 0.5t-7.5 1t-6 1.5t-4 2.5t-2.5 4t-1 6t-0.5 7.5q0 21 -2 21q-2 1 -5 -4q-8 -15 -27.5 -27t-41.5 -12q-58 0 -98.5 39t-40.5 125v152q0 86 40 125t98 39q22 0 42 -13.5t29 -29.5q6 -9 6 6v15
q0 4 0.5 7.5t1 6t2.5 4t4 2.5t6 1.5t7.5 1t10 0.5t12.5 -0.5t15 -0.5h18h25q21 1 27 -0.5t6 -8.5zM225 218v44v14.5v15t-0.5 13t-2.5 12.5t-5.5 8.5t-9 6.5t-12.5 2q-6 0 -11 -2t-8.5 -4.5t-5.5 -7.5t-3 -9t-1.5 -11.5t-0.5 -11.5v-13v-13v-44v-13v-13t0.5 -11.5t1.5 -11.5
t3 -9t5.5 -7.5t8.5 -4.5t11 -2q7 0 12.5 2t9 6.5t5.5 8.5t2.5 12.5t0.5 13v15v14.5zM205 544q-4 4 -8.5 9.5t-6.5 7t-6 3t-9 1.5q-6 0 -9 -2t-11 -10.5t-19 -17.5q-8 -6 -15 -4t-9 9l-25 50q-6 10 44 44q30 20 43 20q24 0 36 -11q5 -5 11 -12.5t10 -10t10 -2.5q10 0 36 31
q8 9 15 6t9 -11q2 -6 13.5 -27t12.5 -22q3 -4 -3 -10.5t-22 -19t-20 -15.5q-22 -18 -41 -18q-24 0 -36 12z" />
    <glyph glyph-name="adieresis" unicode="&#xe4;" horiz-adv-x="400" 
d="M370 471v-462q0 -7 -5.5 -8.5t-27.5 -0.5h-25h-18t-15 -0.5t-12.5 -0.5t-10 0.5t-7.5 1t-6 1.5t-4 2.5t-2.5 4t-1 6t-0.5 7.5q0 21 -2 21q-2 1 -5 -4q-8 -15 -27.5 -27t-41.5 -12q-58 0 -98.5 39t-40.5 125v152q0 86 40 125t98 39q22 0 42 -13.5t29 -29.5q6 -9 6 6v15
q0 4 0.5 7.5t1 6t2.5 4t4 2.5t6 1.5t7.5 1t10 0.5t12.5 -0.5t15 -0.5h18h25q21 1 27 -0.5t6 -8.5zM225 218v44v14.5v15t-0.5 13t-2.5 12.5t-5.5 8.5t-9 6.5t-12.5 2q-6 0 -11 -2t-8.5 -4.5t-5.5 -7.5t-3 -9t-1.5 -11.5t-0.5 -11.5v-13v-13v-44v-13v-13t0.5 -11.5t1.5 -11.5
t3 -9t5.5 -7.5t8.5 -4.5t11 -2q7 0 12.5 2t9 6.5t5.5 8.5t2.5 12.5t0.5 13v15v14.5zM60 594q-3 29 15.5 52t44.5 19q30 -3 43.5 -12.5t13.5 -23.5v-32q-2 -25 -17.5 -42.5t-39.5 -18.5q-33 -3 -45 13t-15 45zM227 594q-3 29 15.5 52t44.5 19q30 -3 43.5 -12.5t13.5 -23.5
v-32q-2 -25 -17.5 -42.5t-39.5 -18.5q-33 -3 -45 13t-15 45z" />
    <glyph glyph-name="aring" unicode="&#xe5;" horiz-adv-x="400" 
d="M370 471v-462q0 -7 -5.5 -8.5t-27.5 -0.5h-25h-18t-15 -0.5t-12.5 -0.5t-10 0.5t-7.5 1t-6 1.5t-4 2.5t-2.5 4t-1 6t-0.5 7.5q0 21 -2 21q-2 1 -5 -4q-8 -15 -27.5 -27t-41.5 -12q-58 0 -98.5 39t-40.5 125v152q0 86 40 125t98 39q22 0 42 -13.5t29 -29.5q6 -9 6 6v15
q0 4 0.5 7.5t1 6t2.5 4t4 2.5t6 1.5t7.5 1t10 0.5t12.5 -0.5t15 -0.5h18h25q21 1 27 -0.5t6 -8.5zM225 218v44v14.5v15t-0.5 13t-2.5 12.5t-5.5 8.5t-9 6.5t-12.5 2q-6 0 -11 -2t-8.5 -4.5t-5.5 -7.5t-3 -9t-1.5 -11.5t-0.5 -11.5v-13v-13v-44v-13v-13t0.5 -11.5t1.5 -11.5
t3 -9t5.5 -7.5t8.5 -4.5t11 -2q7 0 12.5 2t9 6.5t5.5 8.5t2.5 12.5t0.5 13v15v14.5zM205 537q-35 -4 -63 18.5t-22 53.5q3 36 14.5 52.5t28.5 16.5h38q30 -2 51 -21t22 -48q3 -40 -15.5 -54t-53.5 -18zM232 609q-1 12 -9.5 20t-21.5 10q-13 0 -18 -0.5t-11 -7.5t-8 -22
q-2 -14 10.5 -24t27.5 -8q10 1 15.5 3t10.5 9t4 20z" />
    <glyph glyph-name="ae" unicode="&#xe6;" horiz-adv-x="593" 
d="M221 286q0 63 -34 63q-16 0 -23 -12t-7 -23q0 -5 -33.5 -7t-67 0.5t-33.5 8.5q0 66 44 115t118 49q34 0 57.5 -8t32 -17t14 -17t7.5 -8t7.5 8t14 17t32.5 17t58 8q78 0 121.5 -43t43.5 -121v-85q0 -10 -3 -12t-18 -2h-161q-9 0 -11 -4.5t-2 -19.5q0 -23 1 -34
q3 -23 29 -23q30 0 30 38q0 6 8 7t47 1h16q64 0 64 -18q0 -78 -43.5 -121t-121.5 -43q-33 0 -56.5 7t-33 15t-16 15t-8.5 7t-5.5 -4.5t-11 -11t-19 -13t-32 -11t-47.5 -4.5q-77 0 -118 43t-41 109q0 46 32.5 88t96.5 42q27 0 45 -6.5t22.5 -10.5t4.5 -3v24zM153 147
q0 -22 9.5 -35t22.5 -13q35 0 35 22v47q0 10 -10 18.5t-25 8.5q-32 0 -32 -48zM438 315q0 48 -30 48q-15 0 -22.5 -11t-7.5 -39q0 -24 4.5 -30t25.5 -6t25.5 6.5t4.5 31.5z" />
    <glyph glyph-name="ccedilla" unicode="&#xe7;" horiz-adv-x="385" 
d="M247 4q-5 0 -5 -35q0 -45 -31.5 -78t-76.5 -33q-5 0 -5 29q0 45 3 45q15 0 29 9.5t14 25.5q0 34 -3 34q-10 0 -30.5 7.5t-47 24t-45.5 51t-19 80.5v152q0 73 49 118.5t126 45.5q80 0 127.5 -44t47.5 -120q0 -12 -11.5 -14t-73.5 -2q-47 0 -56 1.5t-9 8.5q0 4 -1.5 8.5
t-7.5 10.5t-16 6q-6 0 -10.5 -1.5t-7.5 -5.5t-4.5 -7.5t-2 -10.5t-0.5 -11v-12.5v-11.5v-70v-11.5v-12.5t0.5 -11t2 -10.5t4.5 -7.5t7.5 -5.5t10.5 -1.5q13 0 19 9t6 16t3 9.5t19.5 4.5t51.5 2q53 0 64.5 -3.5t11.5 -18.5q0 -77 -46 -118.5t-87 -41.5z" />
    <glyph glyph-name="egrave" unicode="&#xe8;" horiz-adv-x="390" 
d="M165 202v-11v-11v-10t1 -10l2.5 -7.5t3.5 -7t5.5 -5t7.5 -3.5t10 -1q30 0 30 40q0 6 48 6h17h16q64 0 64 -18q0 -76 -47.5 -120t-127.5 -44q-77 0 -126 45.5t-49 118.5v152q0 73 49 118.5t126 45.5q80 0 127.5 -44t47.5 -120v-85q0 -10 -3 -12t-18 -2h-168h-3
q-5 0 -7.5 -0.5t-4 -4t-1.5 -10.5zM225 315q0 48 -30 48q-15 0 -22.5 -11t-7.5 -39q0 -24 4.5 -30t25.5 -6t25.5 6.5t4.5 31.5zM308 599q-17 -46 -18 -59q-2 -16 -23 -9q-121 45 -159 59q-6 1 -13 9.5t-2 16.5q5 10 21 54q3 13 33 4q105 -39 123 -44q20 -8 30.5 -16t7.5 -15
z" />
    <glyph glyph-name="eacute" unicode="&#xe9;" horiz-adv-x="390" 
d="M165 202v-11v-11v-10t1 -10l2.5 -7.5t3.5 -7t5.5 -5t7.5 -3.5t10 -1q30 0 30 40q0 6 48 6h17h16q64 0 64 -18q0 -76 -47.5 -120t-127.5 -44q-77 0 -126 45.5t-49 118.5v152q0 73 49 118.5t126 45.5q80 0 127.5 -44t47.5 -120v-85q0 -10 -3 -12t-18 -2h-168h-3
q-5 0 -7.5 -0.5t-4 -4t-1.5 -10.5zM225 315q0 48 -30 48q-15 0 -22.5 -11t-7.5 -39q0 -24 4.5 -30t25.5 -6t25.5 6.5t4.5 31.5zM131 630q18 5 123 44q30 9 33 -4q16 -44 21 -54q5 -8 -2 -16.5t-13 -9.5q-38 -14 -159 -59q-21 -7 -23 9q-1 13 -18 59q-3 7 7.5 15t30.5 16z
" />
    <glyph glyph-name="ecircumflex" unicode="&#xea;" horiz-adv-x="390" 
d="M165 202v-11v-11v-10t1 -10l2.5 -7.5t3.5 -7t5.5 -5t7.5 -3.5t10 -1q30 0 30 40q0 6 48 6h17h16q64 0 64 -18q0 -76 -47.5 -120t-127.5 -44q-77 0 -126 45.5t-49 118.5v152q0 73 49 118.5t126 45.5q80 0 127.5 -44t47.5 -120v-85q0 -10 -3 -12t-18 -2h-168h-3
q-5 0 -7.5 -0.5t-4 -4t-1.5 -10.5zM225 315q0 48 -30 48q-15 0 -22.5 -11t-7.5 -39q0 -24 4.5 -30t25.5 -6t25.5 6.5t4.5 31.5zM326 574q3 -4 -2.5 -15.5t-13 -24.5t-8.5 -16q-2 -8 -7.5 -11t-16.5 6l-21.5 21.5l-21.5 21.5t-18 17.5t-14.5 13t-7.5 4.5q-5 0 -85 -76
q-19 -18 -24 5q-1 3 -9.5 17.5t-14.5 27.5t-3 17q7 10 65 50q10 7 22.5 16.5t19.5 15t14.5 9.5t13.5 4q4 0 9.5 -3t13 -8.5t14.5 -11.5t18 -15t19 -16q54 -42 58 -49z" />
    <glyph glyph-name="edieresis" unicode="&#xeb;" horiz-adv-x="390" 
d="M165 202v-11v-11v-10t1 -10l2.5 -7.5t3.5 -7t5.5 -5t7.5 -3.5t10 -1q30 0 30 40q0 6 48 6h17h16q64 0 64 -18q0 -76 -47.5 -120t-127.5 -44q-77 0 -126 45.5t-49 118.5v152q0 73 49 118.5t126 45.5q80 0 127.5 -44t47.5 -120v-85q0 -10 -3 -12t-18 -2h-168h-3
q-5 0 -7.5 -0.5t-4 -4t-1.5 -10.5zM225 315q0 48 -30 48q-15 0 -22.5 -11t-7.5 -39q0 -24 4.5 -30t25.5 -6t25.5 6.5t4.5 31.5zM56 594q-3 29 15.5 52t44.5 19q30 -3 43.5 -12.5t13.5 -23.5v-32q-2 -25 -17.5 -42.5t-39.5 -18.5q-33 -3 -45 13t-15 45zM223 594
q-3 29 15.5 52t44.5 19q30 -3 43.5 -12.5t13.5 -23.5v-32q-2 -25 -17.5 -42.5t-39.5 -18.5q-33 -3 -45 13t-15 45z" />
    <glyph glyph-name="igrave" unicode="&#xec;" horiz-adv-x="210" 
d="M180 17q0 -12 -10.5 -14.5t-67.5 -2.5q-53 0 -62.5 2t-9.5 13v447q0 13 9 15.5t63 2.5q58 0 68 -2.5t10 -16.5v-444zM212 599q-17 -46 -18 -59q-2 -16 -23 -9q-121 45 -159 59q-6 1 -13 9.5t-2 16.5q5 10 21 54q3 13 33 4q105 -39 123 -44q20 -8 30.5 -16t7.5 -15z" />
    <glyph glyph-name="iacute" unicode="&#xed;" horiz-adv-x="210" 
d="M180 17q0 -12 -10.5 -14.5t-67.5 -2.5q-53 0 -62.5 2t-9.5 13v447q0 13 9 15.5t63 2.5q58 0 68 -2.5t10 -16.5v-444zM32 630q18 5 123 44q30 9 33 -4q16 -44 21 -54q5 -8 -2 -16.5t-13 -9.5q-38 -14 -159 -59q-21 -7 -23 9q-1 13 -18 59q-3 7 7.5 15t30.5 16z" />
    <glyph glyph-name="icircumflex" unicode="&#xee;" horiz-adv-x="210" 
d="M180 17q0 -12 -10.5 -14.5t-67.5 -2.5q-53 0 -62.5 2t-9.5 13v447q0 13 9 15.5t63 2.5q58 0 68 -2.5t10 -16.5v-444zM237 579q3 -4 -2.5 -15.5t-13 -24.5t-8.5 -16q-2 -8 -7.5 -11t-16.5 6l-21.5 21.5l-21.5 21.5t-18 17.5t-14.5 13t-7.5 4.5q-5 0 -85 -76q-19 -18 -24 5
q-1 3 -9.5 17.5t-14.5 27.5t-3 17q7 10 65 50q10 7 22.5 16.5t19.5 15t14.5 9.5t13.5 4q4 0 9.5 -3t13 -8.5t14.5 -11.5t18 -15t19 -16q54 -42 58 -49z" />
    <glyph glyph-name="idieresis" unicode="&#xef;" horiz-adv-x="210" 
d="M180 17q0 -12 -10.5 -14.5t-67.5 -2.5q-53 0 -62.5 2t-9.5 13v447q0 13 9 15.5t63 2.5q58 0 68 -2.5t10 -16.5v-444zM-38 594q-3 29 15.5 52t44.5 19q30 -3 43.5 -12.5t13.5 -23.5v-32q-2 -25 -17.5 -42.5t-39.5 -18.5q-33 -3 -45 13t-15 45zM129 594q-3 29 15.5 52
t44.5 19q30 -3 43.5 -12.5t13.5 -23.5v-32q-2 -25 -17.5 -42.5t-39.5 -18.5q-33 -3 -45 13t-15 45z" />
    <glyph glyph-name="eth" unicode="&#xf0;" horiz-adv-x="400" 
d="M235 515q0 5 -33 5q-7 0 -16 4.5t-7 14.5q1 9 1 38t-1 40q-1 9 6.5 12t24.5 3q25 0 25 4v55q0 2 1 3.5t3 2.5t5 1.5t7 1t8 0.5h10h11h12h13q56 0 60 -1q5 -3 5 -8v-59q0 -1 27 -2.5t27 -12.5q0 -75 2 -82t-1.5 -11.5t-17.5 -4.5q-37 0 -37 -5v-505q0 -7 -5.5 -8.5
t-27.5 -0.5h-25h-18t-15 -0.5t-12.5 -0.5t-10 0.5t-7.5 1t-6 1.5t-4 2.5t-2.5 4t-1 6t-0.5 7.5q0 16 -2 16q-2 1 -6 -6q-7 -12 -33.5 -22t-39.5 -10q-57 0 -95.5 38.5t-38.5 125.5v152q0 87 38.5 125.5t95.5 38.5q13 0 39.5 -10t33.5 -22q7 -3 8 10v57zM225 218v44v14.5v15
t-0.5 13t-2.5 12.5t-5.5 8.5t-9 6.5t-12.5 2q-6 0 -11 -2t-8.5 -4.5t-5.5 -7.5t-3 -9t-1.5 -11.5t-0.5 -11.5v-13v-13v-44v-13v-13t0.5 -11.5t1.5 -11.5t3 -9t5.5 -7.5t8.5 -4.5t11 -2q7 0 12.5 2t9 6.5t5.5 8.5t2.5 12.5t0.5 13v15v14.5zM235 22z" />
    <glyph glyph-name="ntilde" unicode="&#xf1;" 
d="M380 11q0 -7 -13 -9t-57 -2q-54 0 -67 1t-13 7v267v9.5v9.5v8.5t-1 9t-2 7.5t-3 6.5t-4.5 5t-6 3.5t-8.5 1q-6 0 -10.5 -1.5t-7.5 -5.5t-4.5 -7.5t-2 -10.5t-0.5 -11v-12.5v-11.5v-263q0 -9 -10 -10.5t-70 -1.5q-50 0 -60 1t-10 8v462q0 7 5.5 8.5t27.5 0.5h25h18t15 0.5
t12.5 0.5t10 -0.5t7.5 -1t6 -1.5t4 -2.5t2.5 -4t1 -6t0.5 -7.5q0 -16 2 -16q2 -1 6 6q7 12 33.5 22t39.5 10q57 0 95.5 -38.5t38.5 -125.5v-305zM205 544q-4 4 -8.5 9.5t-6.5 7t-6 3t-9 1.5q-6 0 -9 -2t-11 -10.5t-19 -17.5q-8 -6 -15 -4t-9 9l-25 50q-6 10 44 44
q30 20 43 20q24 0 36 -11q5 -5 11 -12.5t10 -10t10 -2.5q10 0 36 31q8 9 15 6t9 -11q2 -6 13.5 -27t12.5 -22q3 -4 -3 -10.5t-22 -19t-20 -15.5q-22 -18 -41 -18q-24 0 -36 12z" />
    <glyph glyph-name="ograve" unicode="&#xf2;" horiz-adv-x="390" 
d="M370 164q0 -76 -47.5 -120t-127.5 -44q-77 0 -126 45.5t-49 118.5v152q0 73 49 118.5t126 45.5q80 0 127.5 -44t47.5 -120v-152zM225 218v44v14.5v15t-0.5 13t-2.5 12.5t-5.5 8.5t-9 6.5t-12.5 2q-6 0 -11 -2t-8.5 -4.5t-5.5 -7.5t-3 -9t-1.5 -11.5t-0.5 -11.5v-13v-13
v-44v-13v-13t0.5 -11.5t1.5 -11.5t3 -9t5.5 -7.5t8.5 -4.5t11 -2q7 0 12.5 2t9 6.5t5.5 8.5t2.5 12.5t0.5 13v15v14.5zM311 599q-17 -46 -18 -59q-2 -16 -23 -9q-121 45 -159 59q-6 1 -13 9.5t-2 16.5q5 10 21 54q3 13 33 4q105 -39 123 -44q20 -8 30.5 -16t7.5 -15z" />
    <glyph glyph-name="oacute" unicode="&#xf3;" horiz-adv-x="390" 
d="M370 164q0 -76 -47.5 -120t-127.5 -44q-77 0 -126 45.5t-49 118.5v152q0 73 49 118.5t126 45.5q80 0 127.5 -44t47.5 -120v-152zM225 218v44v14.5v15t-0.5 13t-2.5 12.5t-5.5 8.5t-9 6.5t-12.5 2q-6 0 -11 -2t-8.5 -4.5t-5.5 -7.5t-3 -9t-1.5 -11.5t-0.5 -11.5v-13v-13
v-44v-13v-13t0.5 -11.5t1.5 -11.5t3 -9t5.5 -7.5t8.5 -4.5t11 -2q7 0 12.5 2t9 6.5t5.5 8.5t2.5 12.5t0.5 13v15v14.5zM129 630q18 5 123 44q30 9 33 -4q16 -44 21 -54q5 -8 -2 -16.5t-13 -9.5q-38 -14 -159 -59q-21 -7 -23 9q-1 13 -18 59q-3 7 7.5 15t30.5 16z" />
    <glyph glyph-name="ocircumflex" unicode="&#xf4;" horiz-adv-x="390" 
d="M370 164q0 -76 -47.5 -120t-127.5 -44q-77 0 -126 45.5t-49 118.5v152q0 73 49 118.5t126 45.5q80 0 127.5 -44t47.5 -120v-152zM225 218v44v14.5v15t-0.5 13t-2.5 12.5t-5.5 8.5t-9 6.5t-12.5 2q-6 0 -11 -2t-8.5 -4.5t-5.5 -7.5t-3 -9t-1.5 -11.5t-0.5 -11.5v-13v-13
v-44v-13v-13t0.5 -11.5t1.5 -11.5t3 -9t5.5 -7.5t8.5 -4.5t11 -2q7 0 12.5 2t9 6.5t5.5 8.5t2.5 12.5t0.5 13v15v14.5zM328 574q3 -4 -2.5 -15.5t-13 -24.5t-8.5 -16q-2 -8 -7.5 -11t-16.5 6l-21.5 21.5l-21.5 21.5t-18 17.5t-14.5 13t-7.5 4.5q-5 0 -85 -76q-19 -18 -24 5
q-1 3 -9.5 17.5t-14.5 27.5t-3 17q7 10 65 50q10 7 22.5 16.5t19.5 15t14.5 9.5t13.5 4q4 0 9.5 -3t13 -8.5t14.5 -11.5t18 -15t19 -16q54 -42 58 -49z" />
    <glyph glyph-name="otilde" unicode="&#xf5;" horiz-adv-x="390" 
d="M370 164q0 -76 -47.5 -120t-127.5 -44q-77 0 -126 45.5t-49 118.5v152q0 73 49 118.5t126 45.5q80 0 127.5 -44t47.5 -120v-152zM225 218v44v14.5v15t-0.5 13t-2.5 12.5t-5.5 8.5t-9 6.5t-12.5 2q-6 0 -11 -2t-8.5 -4.5t-5.5 -7.5t-3 -9t-1.5 -11.5t-0.5 -11.5v-13v-13
v-44v-13v-13t0.5 -11.5t1.5 -11.5t3 -9t5.5 -7.5t8.5 -4.5t11 -2q7 0 12.5 2t9 6.5t5.5 8.5t2.5 12.5t0.5 13v15v14.5zM195 544q-4 4 -8.5 9.5t-6.5 7t-6 3t-9 1.5q-6 0 -9 -2t-11 -10.5t-19 -17.5q-8 -6 -15 -4t-9 9l-25 50q-6 10 44 44q30 20 43 20q24 0 36 -11
q5 -5 11 -12.5t10 -10t10 -2.5q10 0 36 31q8 9 15 6t9 -11q2 -6 13.5 -27t12.5 -22q3 -4 -3 -10.5t-22 -19t-20 -15.5q-22 -18 -41 -18q-24 0 -36 12z" />
    <glyph glyph-name="odieresis" unicode="&#xf6;" horiz-adv-x="390" 
d="M370 164q0 -76 -47.5 -120t-127.5 -44q-77 0 -126 45.5t-49 118.5v152q0 73 49 118.5t126 45.5q80 0 127.5 -44t47.5 -120v-152zM225 218v44v14.5v15t-0.5 13t-2.5 12.5t-5.5 8.5t-9 6.5t-12.5 2q-6 0 -11 -2t-8.5 -4.5t-5.5 -7.5t-3 -9t-1.5 -11.5t-0.5 -11.5v-13v-13
v-44v-13v-13t0.5 -11.5t1.5 -11.5t3 -9t5.5 -7.5t8.5 -4.5t11 -2q7 0 12.5 2t9 6.5t5.5 8.5t2.5 12.5t0.5 13v15v14.5zM57 594q-3 29 15.5 52t44.5 19q30 -3 43.5 -12.5t13.5 -23.5v-32q-2 -25 -17.5 -42.5t-39.5 -18.5q-33 -3 -45 13t-15 45zM224 594q-3 29 15.5 52
t44.5 19q30 -3 43.5 -12.5t13.5 -23.5v-32q-2 -25 -17.5 -42.5t-39.5 -18.5q-33 -3 -45 13t-15 45z" />
    <glyph glyph-name="divide" unicode="&#xf7;" horiz-adv-x="435" 
d="M85 426v138q0 9 9.5 17.5t17.5 8.5h49q8 0 8 7v88q0 15 50 15q18 0 26.5 -1t14.5 -4.5t6 -10.5v-86q0 -8 10 -8h49q9 0 17 -9t8 -22v-136q0 -5 0.5 -7.5t3 -4t8.5 -1.5h43q11 0 13 -7.5t2 -43.5v-7q0 -39 -13 -39h-44q-9 0 -11 -2.5t-2 -10.5v-155q0 -16 -6 -25.5
t-15 -9.5h-56q-7 0 -7 -9v-86q0 -11 -6.5 -13t-40.5 -2q-45 0 -48 4q-2 3 -2 9v90q0 7 -6 7h-50q-12 0 -20 7.5t-8 16.5v166v6.5t-1.5 3.5t-4 2.5t-7.5 0.5h-42q-10 0 -12.5 8.5t-2.5 37.5q0 35 2.5 43t13.5 8h42q9 0 10.5 3t1.5 13zM236 207q17 0 17 17v254q0 15 -11 15
h-49q-11 0 -11 -15v-254q0 -17 17 -17h37z" />
    <glyph glyph-name="oslash" unicode="&#xf8;" horiz-adv-x="390" 
d="M144 -8l-6 -18t-5 -14.5t-3.5 -9.5t-1.5 -5q-5 -15 -32 -15q-7 0 -15 1.5t-14 4.5t-5 7q0 1 4 11.5t9.5 26.5t10.5 33q0 1 1.5 5t1.5 5.5t-1.5 4.5t-6.5 7q-61 45 -61 128v152q0 73 49 118.5t126 45.5q15 0 43 -4q7 -1 10 9q6 17 11.5 33.5t8.5 24.5t3 9q4 13 31 13
q12 0 22.5 -5.5t7.5 -13.5l-28 -84q-3 -10 2 -13q30 -18 47 -53.5t17 -79.5v-152q0 -76 -47.5 -120t-127.5 -44q-15 0 -35 3q-13 2 -16 -11zM225 218v44v14.5v15t-0.5 13t-2.5 12.5t-5.5 8.5t-9 6.5t-12.5 2q-6 0 -11 -2t-8.5 -4.5t-5.5 -7.5t-3 -9t-1.5 -11.5t-0.5 -11.5
v-13v-13v-44v-13v-13t0.5 -11.5t1.5 -11.5t3 -9t5.5 -7.5t8.5 -4.5t11 -2q7 0 12.5 2t9 6.5t5.5 8.5t2.5 12.5t0.5 13v15v14.5z" />
    <glyph glyph-name="ugrave" unicode="&#xf9;" 
d="M30 469q0 7 13 9t57 2q26 0 40 -0.5t22.5 -2t10.5 -3t2 -5.5v-251v-14v-15t0.5 -13t3 -12.5t5.5 -8.5t8.5 -7t12.5 -2t12.5 2t9 7t5.5 9t2.5 12t0.5 13v15v14v246q0 12 9.5 14t65.5 2q50 0 60 -1t10 -8v-462q0 -7 -5.5 -8.5t-27.5 -0.5h-25h-18t-15 -0.5t-12.5 -0.5
t-10 0.5t-7.5 1t-6 1.5t-4 2.5t-2.5 4t-1 6t-0.5 7.5q0 21 -3 21q-2 1 -5 -4q-22 -39 -68 -39q-58 0 -98.5 39t-40.5 125v305zM310 599q-17 -46 -18 -59q-2 -16 -23 -9q-121 45 -159 59q-6 1 -13 9.5t-2 16.5q5 10 21 54q3 13 33 4q105 -39 123 -44q20 -8 30.5 -16t7.5 -15z
" />
    <glyph glyph-name="uacute" unicode="&#xfa;" 
d="M30 469q0 7 13 9t57 2q26 0 40 -0.5t22.5 -2t10.5 -3t2 -5.5v-251v-14v-15t0.5 -13t3 -12.5t5.5 -8.5t8.5 -7t12.5 -2t12.5 2t9 7t5.5 9t2.5 12t0.5 13v15v14v246q0 12 9.5 14t65.5 2q50 0 60 -1t10 -8v-462q0 -7 -5.5 -8.5t-27.5 -0.5h-25h-18t-15 -0.5t-12.5 -0.5
t-10 0.5t-7.5 1t-6 1.5t-4 2.5t-2.5 4t-1 6t-0.5 7.5q0 21 -3 21q-2 1 -5 -4q-22 -39 -68 -39q-58 0 -98.5 39t-40.5 125v305zM139 630q18 5 123 44q30 9 33 -4q16 -44 21 -54q5 -8 -2 -16.5t-13 -9.5q-38 -14 -159 -59q-21 -7 -23 9q-1 13 -18 59q-3 7 7.5 15t30.5 16z" />
    <glyph glyph-name="ucircumflex" unicode="&#xfb;" 
d="M30 469q0 7 13 9t57 2q26 0 40 -0.5t22.5 -2t10.5 -3t2 -5.5v-251v-14v-15t0.5 -13t3 -12.5t5.5 -8.5t8.5 -7t12.5 -2t12.5 2t9 7t5.5 9t2.5 12t0.5 13v15v14v246q0 12 9.5 14t65.5 2q50 0 60 -1t10 -8v-462q0 -7 -5.5 -8.5t-27.5 -0.5h-25h-18t-15 -0.5t-12.5 -0.5
t-10 0.5t-7.5 1t-6 1.5t-4 2.5t-2.5 4t-1 6t-0.5 7.5q0 21 -3 21q-2 1 -5 -4q-22 -39 -68 -39q-58 0 -98.5 39t-40.5 125v305zM338 579q3 -4 -2.5 -15.5t-13 -24.5t-8.5 -16q-2 -8 -7.5 -11t-16.5 6l-21.5 21.5l-21.5 21.5t-18 17.5t-14.5 13t-7.5 4.5q-5 0 -85 -76
q-19 -18 -24 5q-1 3 -9.5 17.5t-14.5 27.5t-3 17q7 10 65 50q10 7 22.5 16.5t19.5 15t14.5 9.5t13.5 4q4 0 9.5 -3t13 -8.5t14.5 -11.5t18 -15t19 -16q54 -42 58 -49z" />
    <glyph glyph-name="udieresis" unicode="&#xfc;" 
d="M30 469q0 7 13 9t57 2q26 0 40 -0.5t22.5 -2t10.5 -3t2 -5.5v-251v-14v-15t0.5 -13t3 -12.5t5.5 -8.5t8.5 -7t12.5 -2t12.5 2t9 7t5.5 9t2.5 12t0.5 13v15v14v246q0 12 9.5 14t65.5 2q50 0 60 -1t10 -8v-462q0 -7 -5.5 -8.5t-27.5 -0.5h-25h-18t-15 -0.5t-12.5 -0.5
t-10 0.5t-7.5 1t-6 1.5t-4 2.5t-2.5 4t-1 6t-0.5 7.5q0 21 -3 21q-2 1 -5 -4q-22 -39 -68 -39q-58 0 -98.5 39t-40.5 125v305zM65 599q-3 29 15.5 52t44.5 19q30 -3 43.5 -12.5t13.5 -23.5v-32q-2 -25 -17.5 -42.5t-39.5 -18.5q-33 -3 -45 13t-15 45zM232 599q-3 29 15.5 52
t44.5 19q30 -3 43.5 -12.5t13.5 -23.5v-32q-2 -25 -17.5 -42.5t-39.5 -18.5q-33 -3 -45 13t-15 45z" />
    <glyph glyph-name="yacute" unicode="&#xfd;" horiz-adv-x="373" 
d="M108 33q0 21 -2 28q-18 77 -91 408q0 2 3 4t9 3t13 2t16 1.5t16 0.5h15q69 0 70 -14q5 -56 12 -132.5t11 -116.5q0 -10 6 -10q7 0 7 11q5 50 12 125t12 125q1 12 75 12q24 0 46 -3.5t20 -10.5q-147 -580 -165 -653q-3 -13 -63 -13q-11 0 -20 0.5t-21 2t-18.5 5t-5.5 8.5
q27 126 39 187q4 17 4 30zM119 640q18 5 123 44q30 9 33 -4q16 -44 21 -54q5 -8 -2 -16.5t-13 -9.5q-38 -14 -159 -59q-21 -7 -23 9q-1 13 -18 59q-3 7 7.5 15t30.5 16z" />
    <glyph glyph-name="thorn" unicode="&#xfe;" horiz-adv-x="400" 
d="M241 0q-12 0 -36.5 10t-31.5 22q-7 3 -8 -10v-214q0 -6 -2 -7q-4 -1 -63 -1q-50 0 -60 1t-10 8v882q0 2 0.5 3.5t2.5 2.5l4 2t5.5 1t7 0.5t9 0t10.5 -0.5h12h14h13h12h11h10t8 -0.5t7 -1t5 -1.5t3 -2.5t1 -3.5v-233q0 -16 2 -16q2 -1 6 6q7 12 33.5 22t39.5 10
q57 0 95.5 -38.5t38.5 -125.5v-152q0 -86 -40.5 -125t-98.5 -39zM235 218v44v14.5v15t-0.5 13t-2.5 12.5t-5.5 8.5t-9 6.5t-12.5 2q-6 0 -11 -2t-8.5 -4.5t-5.5 -7.5t-3 -9t-1.5 -11.5t-0.5 -11.5v-13v-13v-44v-13v-13t0.5 -11.5t1.5 -11.5t3 -9t5.5 -7.5t8.5 -4.5t11 -2
q7 0 12.5 2t9 6.5t5.5 8.5t2.5 12.5t0.5 13v15v14.5zM165 458z" />
    <glyph glyph-name="ydieresis" unicode="&#xff;" horiz-adv-x="373" 
d="M108 33q0 21 -2 28q-18 77 -91 408q0 2 3 4t9 3t13 2t16 1.5t16 0.5h15q69 0 70 -14q5 -56 12 -132.5t11 -116.5q0 -10 6 -10q7 0 7 11q5 50 12 125t12 125q1 12 75 12q24 0 46 -3.5t20 -10.5q-147 -580 -165 -653q-3 -13 -63 -13q-11 0 -20 0.5t-21 2t-18.5 5t-5.5 8.5
q27 126 39 187q4 17 4 30zM52 594q-3 29 15.5 52t44.5 19q30 -3 43.5 -12.5t13.5 -23.5v-32q-2 -25 -17.5 -42.5t-39.5 -18.5q-33 -3 -45 13t-15 45zM219 594q-3 29 15.5 52t44.5 19q30 -3 43.5 -12.5t13.5 -23.5v-32q-2 -25 -17.5 -42.5t-39.5 -18.5q-33 -3 -45 13t-15 45z
" />
    <glyph glyph-name="dotlessi" unicode="&#x131;" horiz-adv-x="210" 
d="M180 17q0 -12 -10.5 -14.5t-67.5 -2.5q-53 0 -62.5 2t-9.5 13v447q0 13 9 15.5t63 2.5q58 0 68 -2.5t10 -16.5v-444z" />
    <glyph glyph-name="Lslash" unicode="&#x141;" horiz-adv-x="394" 
d="M240 353v-174q0 -32 5 -35q7 -4 30 -4h95q9 0 11 -9.5t2 -57.5q0 -53 -2 -63t-10 -10h-235q-35 0 -40 4q-6 5 -6 34v184q0 10 -15 -3q-1 -1 -15 -13q-6 -5 -24.5 10.5t-30.5 30.5q-38 47 -29 55q76 68 95 86t19 23v269q0 8 2.5 11.5t18 6t49.5 2.5q55 0 67.5 -3.5
t12.5 -16.5v-134q0 -9 16 4q5 5 19 17q11 9 17 15q9 7 55 -31q15 -13 31 -33.5t10 -25.5q-137 -119 -144 -129q-4 -5 -4 -10z" />
    <glyph glyph-name="lslash" unicode="&#x142;" horiz-adv-x="310" 
d="M230 344v-327q0 -12 -10.5 -14.5t-67.5 -2.5q-53 0 -62.5 2t-9.5 13v208q0 3 -1 4t-3.5 0t-4.5 -2t-5 -3l-2 -2q-10 -9 -47 37q-38 47 -29 55q84 75 87 79q5 6 5 13v277q0 13 9 15.5t63 2.5q58 0 68 -2.5t10 -16.5v-152q2 -6 7 -4t10 7q6 6 46 -27q15 -13 31 -33.5
t10 -25.5q-96 -84 -101 -92q-3 -4 -3 -9z" />
    <glyph glyph-name="OE" unicode="&#x152;" horiz-adv-x="541" 
d="M276 0q-13 0 -13 11q-2 17 -7 17t-17 -10l-3 -3q-19 -15 -51 -15q-74 0 -114.5 44t-40.5 120v372q0 76 40.5 120t114.5 44q32 0 51 -15q20 -16 24 -11q3 3 3 15q0 11 13 11h233q9 0 10.5 -9t1.5 -55q0 -55 -1.5 -65.5t-11.5 -10.5h-100q-23 0 -23 -5q-5 -7 -5 -19v-73
q0 -21 6 -26q6 -4 22 -4h49q9 0 10 -9t1 -62v-22q0 -46 -11 -46h-45q-6 0 -15 -1.5t-10 -1.5q-7 -5 -7 -29v-83q0 -29 4 -33q6 -6 31 -6h95q9 0 11 -9.5t2 -57.5q0 -53 -2 -63t-10 -10h-235zM230 495v9.5v9.5v8.5t-1 9t-2 7.5t-3 6.5t-4.5 5t-6 3.5t-8.5 1q-6 0 -10.5 -1.5
t-7.5 -5.5t-4.5 -7.5t-2 -10.5t-0.5 -11v-12.5v-11.5v-290q0 -16 0.5 -22t2.5 -17.5t7.5 -16t14.5 -4.5q12 0 17.5 10.5t6.5 20.5t1 29v290z" />
    <glyph glyph-name="oe" unicode="&#x153;" horiz-adv-x="590" 
d="M297 435q1 0 4.5 4.5t10.5 11.5t18 13.5t30.5 11t44.5 4.5q79 0 122 -43t43 -121v-85q0 -10 -3 -12t-18 -2h-160q-9 0 -11.5 -5t-2.5 -19v-10.5v-10.5t0.5 -9t1 -8t2 -6t3.5 -6t5.5 -4t7.5 -2.5t10 -0.5q30 0 30 39q0 5 8 6t47 1h16q64 0 64 -18q0 -78 -43 -121t-122 -43
q-24 0 -43.5 4.5t-30.5 11t-18.5 13t-11.5 11t-5 4.5t-4.5 -4.5t-11 -11t-18.5 -13t-31.5 -11t-45.5 -4.5q-75 0 -120 45t-45 119v152q0 74 45 119t120 45q26 0 46.5 -4.5t32 -11t18.5 -13.5t10.5 -11.5t4.5 -4.5zM435 315q0 48 -30 48q-15 0 -22.5 -11t-7.5 -39
q0 -24 4.5 -30t25.5 -6t25.5 6.5t4.5 31.5zM215 218v44v14.5v15t-0.5 13t-2.5 12.5t-5.5 8.5t-9 6.5t-12.5 2q-6 0 -11 -2t-8.5 -4.5t-5.5 -7.5t-3 -9t-1.5 -11.5t-0.5 -11.5v-13v-13v-44v-13v-13t0.5 -11.5t1.5 -11.5t3 -9t5.5 -7.5t8.5 -4.5t11 -2q7 0 12.5 2t9 6.5
t5.5 8.5t2.5 12.5t0.5 13v15v14.5z" />
    <glyph glyph-name="Scaron" unicode="&#x160;" horiz-adv-x="390" 
d="M20 546q0 68 49.5 111t120.5 43q73 0 121.5 -42t48.5 -112v-52q0 -4 -34 -4h-27q-84 0 -84 5v45q0 16 -7.5 25.5t-17.5 9.5t-17.5 -9t-7.5 -25q0 -50 11.5 -69t69.5 -68q26 -22 36 -31t31.5 -33.5t30.5 -45.5t17.5 -55.5t8.5 -74.5q0 -76 -47.5 -120t-127.5 -44
q-76 0 -125.5 44.5t-49.5 119.5v56q0 5 11 6t56 1q83 0 83 -5v-28q0 -40 4.5 -53t20.5 -13q25 0 25 49q0 33 -13 61t-26.5 42.5t-42.5 39.5t-41 37q-47 47 -62 82.5t-15 106.5zM327 818q-4 -7 -58 -49q-8 -7 -19 -16t-18 -15t-14.5 -11.5t-13 -8.5t-9.5 -3q-7 0 -16 5.5
t-26.5 19t-27.5 20.5q-58 40 -65 50q-3 4 3 17t14.5 27.5t9.5 17.5q5 23 24 5q80 -76 85 -76q3 0 14 10t35 34.5t34 33.5q11 9 16.5 6t7.5 -11q1 -3 8.5 -16t13 -24.5t2.5 -15.5z" />
    <glyph glyph-name="scaron" unicode="&#x161;" horiz-adv-x="365" 
d="M18 341q0 56 49 97.5t113 41.5q65 0 113.5 -46t48.5 -118q0 -4 -34 -4h-27q-84 0 -84 5q0 27 -4.5 37.5t-16.5 10.5q-18 0 -18 -32q0 -11 20 -20.5t48 -21t56 -27.5t48 -48.5t20 -76.5q0 -57 -47 -98t-120 -41t-120.5 44t-47.5 120q0 5 9.5 6t52.5 1q78 0 78 -5
q0 -29 4 -40t20 -11q24 0 24 34q0 16 -19 26.5t-46 19t-54.5 21.5t-46.5 45t-19 80zM318 604q-4 -7 -58 -49q-8 -7 -19 -16t-18 -15t-14.5 -11.5t-13 -8.5t-9.5 -3q-7 0 -16 5.5t-26.5 19t-27.5 20.5q-58 40 -65 50q-3 4 3 17t14.5 27.5t9.5 17.5q5 23 24 5q80 -76 85 -76
q3 0 14 10t35 34.5t34 33.5q11 9 16.5 6t7.5 -11q1 -3 8.5 -16t13 -24.5t2.5 -15.5z" />
    <glyph glyph-name="Ydieresis" unicode="&#x178;" horiz-adv-x="408" 
d="M132 243q0 43 -1 49q0 1 -16 59q-8 28 -42.5 147t-52.5 187q-2 8 20.5 11t46.5 3q79 0 81 -16q6 -43 17.5 -120.5t17.5 -118.5q0 -9 6 -9q5 0 5 10q7 51 17 130t14 108q2 16 75 16q13 0 23 -0.5t22 -1.5t18 -4t5 -8q-54 -213 -88 -323q-3 -10 -7.5 -30t-6.5 -28
q-5 -15 -5 -58v-238q0 -8 -75 -8t-75 11q0 39 0.5 112.5t0.5 119.5zM68 793q-3 29 15.5 52t44.5 19q30 -3 43.5 -12.5t13.5 -23.5v-32q-2 -25 -17.5 -42.5t-39.5 -18.5q-33 -3 -45 13t-15 45zM235 793q-3 29 15.5 52t44.5 19q30 -3 43.5 -12.5t13.5 -23.5v-32
q-2 -25 -17.5 -42.5t-39.5 -18.5q-33 -3 -45 13t-15 45z" />
    <glyph glyph-name="Zcaron" unicode="&#x17d;" horiz-adv-x="344" 
d="M165 165q-4 -13 1 -20t20 -7h126q11 0 11 -74q0 -64 -11 -64h-273q-19 0 -19 26q0 146 5 158q140 331 152 358q9 19 -7 31q-5 2 -21 2h-111q-12 0 -12 57q0 68 12 68h269q13 0 16 -4t3 -24q0 -105 -3 -113zM308 816q-4 -7 -58 -49q-8 -7 -19 -16t-18 -15t-14.5 -11.5
t-13 -8.5t-9.5 -3q-7 0 -16 5.5t-26.5 19t-27.5 20.5q-58 40 -65 50q-3 4 3 17t14.5 27.5t9.5 17.5q5 23 24 5q80 -76 85 -76q3 0 14 10t35 34.5t34 33.5q11 9 16.5 6t7.5 -11q1 -3 8.5 -16t13 -24.5t2.5 -15.5z" />
    <glyph glyph-name="zcaron" unicode="&#x17e;" horiz-adv-x="343" 
d="M173 153q-3 -5 -1 -15.5t6 -12.5q5 -3 30 -3h104q15 0 15 -67q0 -46 -8 -53q-3 -2 -7 -2h-274q-18 0 -18 72q0 8 -1 29.5t-0.5 32.5t3.5 14q24 31 136 174q5 7 2.5 19.5t-9.5 17.5q-5 2 -21 2h-84q-16 0 -16 51q0 68 13 68h257q8 0 12 -2.5t6 -11t2.5 -16t0.5 -24.5
q0 -78 -5 -85q-55 -76 -143 -188zM307 604q-4 -7 -58 -49q-8 -7 -19 -16t-18 -15t-14.5 -11.5t-13 -8.5t-9.5 -3q-7 0 -16 5.5t-26.5 19t-27.5 20.5q-58 40 -65 50q-3 4 3 17t14.5 27.5t9.5 17.5q5 23 24 5q80 -76 85 -76q3 0 14 10t35 34.5t34 33.5q11 9 16.5 6t7.5 -11
q1 -3 8.5 -16t13 -24.5t2.5 -15.5z" />
    <glyph glyph-name="florin" unicode="&#x192;" horiz-adv-x="306" 
d="M213 -36q0 -73 -49 -118.5t-126 -45.5h-36q-9 0 -10.5 11t-1.5 63q0 34 2 49.5t4.5 18.5t8.5 3h33q9 0 14.5 4.5t7.5 16t2.5 17.5t0.5 22v316q0 15 -3.5 17.5t-24.5 2.5q-2 0 -4.5 -0.5t-3.5 -0.5t-3 2.5t-2.5 8.5t-1 17.5t-0.5 28.5q0 52 1.5 63t10.5 11q26 0 28 2
q3 3 3 63q0 73 49 118.5t126 45.5h36q9 0 10.5 -11t1.5 -63q0 -34 -2 -49.5t-4.5 -18.5t-8.5 -3h-33q-9 0 -14.5 -4.5t-7.5 -16t-2.5 -17.5t-0.5 -22q0 -19 3 -22q2 -2 58 -2q9 0 10.5 -11t1.5 -63q0 -13 -0.5 -22.5t-0.5 -16t-1 -10t-1.5 -5.5t-2 -2.5t-2.5 -0.5t-3.5 0.5
t-3.5 0.5q-41 0 -49.5 -3t-8.5 -17v-357z" />
    <glyph glyph-name="circumflex" unicode="&#x2c6;" horiz-adv-x="327" 
d="M297 574q3 -4 -2.5 -15.5t-13 -24.5t-8.5 -16q-2 -8 -7.5 -11t-16.5 6l-21.5 21.5l-21.5 21.5t-18 17.5t-14.5 13t-7.5 4.5q-5 0 -85 -76q-19 -18 -24 5q-1 3 -9.5 17.5t-14.5 27.5t-3 17q7 10 65 50q10 7 22.5 16.5t19.5 15t14.5 9.5t13.5 4q4 0 9.5 -3t13 -8.5
t14.5 -11.5t18 -15t19 -16q54 -42 58 -49z" />
    <glyph glyph-name="caron" unicode="&#x2c7;" horiz-adv-x="327" 
d="M297 604q-4 -7 -58 -49q-8 -7 -19 -16t-18 -15t-14.5 -11.5t-13 -8.5t-9.5 -3q-7 0 -16 5.5t-26.5 19t-27.5 20.5q-58 40 -65 50q-3 4 3 17t14.5 27.5t9.5 17.5q5 23 24 5q80 -76 85 -76q3 0 14 10t35 34.5t34 33.5q11 9 16.5 6t7.5 -11q1 -3 8.5 -16t13 -24.5t2.5 -15.5
z" />
    <glyph glyph-name="breve" unicode="&#x2d8;" horiz-adv-x="327" 
d="M297 604q-57 -103 -132 -103q-35 0 -68.5 23t-46 40.5t-20.5 31.5q-5 8 31 55q2 3 18 -12.5t41 -33.5t46 -18t44.5 19t37.5 34.5t17 11.5q1 -2 11 -13t17 -21t4 -14z" />
    <glyph glyph-name="dotaccent" unicode="&#x2d9;" horiz-adv-x="210" 
d="M102 698q32 -1 53 -24.5t23 -57.5q1 -25 1 -43.5t-18.5 -31.5t-58.5 -16q-35 -6 -60 25t-20 70q4 38 20 59t60 19z" />
    <glyph glyph-name="ring" unicode="&#x2da;" horiz-adv-x="191" 
d="M101 537q-35 -4 -63 18.5t-22 53.5q3 36 14.5 52.5t28.5 16.5h38q30 -2 51 -21t22 -48q3 -40 -15.5 -54t-53.5 -18zM128 609q-1 12 -9.5 20t-21.5 10q-13 0 -18 -0.5t-11 -7.5t-8 -22q-2 -14 10.5 -24t27.5 -8q10 1 15.5 3t10.5 9t4 20z" />
    <glyph glyph-name="ogonek" unicode="&#x2db;" 
d="M116 36q0 3 2 4.5t6.5 1.5h8h9.5h9q32 0 32 -7v-68q0 -16 14 -25.5t29 -9.5q3 0 3 -45q0 -29 -5 -29q-45 0 -76.5 33t-31.5 78v67z" />
    <glyph glyph-name="tilde" unicode="&#x2dc;" horiz-adv-x="301" 
d="M148 554q-4 4 -8.5 9.5t-6.5 7t-6 3t-9 1.5q-6 0 -9 -2t-11 -10.5t-19 -17.5q-8 -6 -15 -4t-9 9l-25 50q-6 10 44 44q30 20 43 20q24 0 36 -11q5 -5 11 -12.5t10 -10t10 -2.5q10 0 36 31q8 9 15 6t9 -11q2 -6 13.5 -27t12.5 -22q3 -4 -3 -10.5t-22 -19t-20 -15.5
q-22 -18 -41 -18q-24 0 -36 12z" />
    <glyph glyph-name="hungarumlaut" unicode="&#x2dd;" horiz-adv-x="436" 
d="M41 621q12 7 32 21t43.5 30.5t32.5 22.5q26 17 33 5q16 -27 34 -47q6 -9 2 -17t-10 -12q-75 -52 -138 -98q-19 -12 -25 3q-8 20 -33 52q-8 13 29 40zM245 621q12 7 32 21t43.5 30.5t32.5 22.5q26 17 33 5q16 -27 34 -47q6 -9 2 -17t-10 -12q-75 -52 -138 -98
q-19 -12 -25 3q-8 20 -33 52q-8 13 29 40z" />
    <glyph glyph-name="Delta" unicode="&#x394;" horiz-adv-x="435" 
d="M85 426v138q0 9 9.5 17.5t17.5 8.5h49q8 0 8 7v88q0 15 50 15q18 0 26.5 -1t14.5 -4.5t6 -10.5v-86q0 -8 10 -8h49q9 0 17 -9t8 -22v-136q0 -5 0.5 -7.5t3 -4t8.5 -1.5h43q11 0 13 -7.5t2 -43.5v-7q0 -39 -13 -39h-44q-9 0 -11 -2.5t-2 -10.5v-155q0 -16 -6 -25.5
t-15 -9.5h-56q-7 0 -7 -9v-86q0 -11 -6.5 -13t-40.5 -2q-45 0 -48 4q-2 3 -2 9v90q0 7 -6 7h-50q-12 0 -20 7.5t-8 16.5v166v6.5t-1.5 3.5t-4 2.5t-7.5 0.5h-42q-10 0 -12.5 8.5t-2.5 37.5q0 35 2.5 43t13.5 8h42q9 0 10.5 3t1.5 13zM236 207q17 0 17 17v254q0 15 -11 15
h-49q-11 0 -11 -15v-254q0 -17 17 -17h37z" />
    <glyph glyph-name="Omega" unicode="&#x3a9;" horiz-adv-x="435" 
d="M85 426v138q0 9 9.5 17.5t17.5 8.5h49q8 0 8 7v88q0 15 50 15q18 0 26.5 -1t14.5 -4.5t6 -10.5v-86q0 -8 10 -8h49q9 0 17 -9t8 -22v-136q0 -5 0.5 -7.5t3 -4t8.5 -1.5h43q11 0 13 -7.5t2 -43.5v-7q0 -39 -13 -39h-44q-9 0 -11 -2.5t-2 -10.5v-155q0 -16 -6 -25.5
t-15 -9.5h-56q-7 0 -7 -9v-86q0 -11 -6.5 -13t-40.5 -2q-45 0 -48 4q-2 3 -2 9v90q0 7 -6 7h-50q-12 0 -20 7.5t-8 16.5v166v6.5t-1.5 3.5t-4 2.5t-7.5 0.5h-42q-10 0 -12.5 8.5t-2.5 37.5q0 35 2.5 43t13.5 8h42q9 0 10.5 3t1.5 13zM236 207q17 0 17 17v254q0 15 -11 15
h-49q-11 0 -11 -15v-254q0 -17 17 -17h37z" />
    <glyph glyph-name="pi" unicode="&#x3c0;" horiz-adv-x="435" 
d="M85 426v138q0 9 9.5 17.5t17.5 8.5h49q8 0 8 7v88q0 15 50 15q18 0 26.5 -1t14.5 -4.5t6 -10.5v-86q0 -8 10 -8h49q9 0 17 -9t8 -22v-136q0 -5 0.5 -7.5t3 -4t8.5 -1.5h43q11 0 13 -7.5t2 -43.5v-7q0 -39 -13 -39h-44q-9 0 -11 -2.5t-2 -10.5v-155q0 -16 -6 -25.5
t-15 -9.5h-56q-7 0 -7 -9v-86q0 -11 -6.5 -13t-40.5 -2q-45 0 -48 4q-2 3 -2 9v90q0 7 -6 7h-50q-12 0 -20 7.5t-8 16.5v166v6.5t-1.5 3.5t-4 2.5t-7.5 0.5h-42q-10 0 -12.5 8.5t-2.5 37.5q0 35 2.5 43t13.5 8h42q9 0 10.5 3t1.5 13zM236 207q17 0 17 17v254q0 15 -11 15
h-49q-11 0 -11 -15v-254q0 -17 17 -17h37z" />
    <glyph glyph-name="endash" unicode="&#x2013;" horiz-adv-x="500" 
d="M492 284q0 -50 3 -61q2 -7 -1.5 -11.5t-17.5 -4.5h-448q-7 0 -16 4.5t-7 14.5q3 17 0 58q-1 9 6.5 12t24.5 3q377 0 410 1q46 2 46 -16z" />
    <glyph glyph-name="emdash" unicode="&#x2014;" horiz-adv-x="780" 
d="M774 284q0 -50 3 -61q2 -7 -1.5 -11.5t-17.5 -4.5h-730q-7 0 -16 4.5t-7 14.5q3 17 0 58q-1 9 6.5 12t24.5 3q659 0 692 1q46 2 46 -16z" />
    <glyph glyph-name="quoteleft" unicode="&#x2018;" horiz-adv-x="205" 
d="M110 425q-38 0 -59 20t-21 52q0 59 14 93q49 119 102 110q8 -1 9.5 -10.5t-2.5 -23.5t-9 -27t-10 -25.5t-6 -16.5q-2 -8 2.5 -12.5t13 -7.5t10.5 -5q21 -16 21 -51q0 -40 -17.5 -68t-47.5 -28z" />
    <glyph glyph-name="quoteright" unicode="&#x2019;" horiz-adv-x="205" 
d="M95 701q38 0 59 -20t21 -52q0 -59 -14 -93q-49 -119 -102 -110q-8 1 -9.5 10.5t2.5 23.5t9 27t10 25.5t6 16.5q2 8 -2.5 12.5t-13 7.5t-10.5 5q-21 16 -21 51q0 40 17.5 68t47.5 28z" />
    <glyph glyph-name="quotesinglbase" unicode="&#x201a;" horiz-adv-x="205" 
d="M95 157q38 0 59 -20t21 -52q0 -59 -14 -93q-49 -119 -102 -110q-8 1 -9.5 10.5t2.5 23.5t9 27t10 25.5t6 16.5q2 8 -2.5 12.5t-13 7.5t-10.5 5q-21 16 -21 51q0 40 17.5 68t47.5 28z" />
    <glyph glyph-name="quotedblleft" unicode="&#x201c;" horiz-adv-x="375" 
d="M110 425q-38 0 -59 20t-21 52q0 59 14 93q49 119 102 110q8 -1 9.5 -10.5t-2.5 -23.5t-9 -27t-10 -25.5t-6 -16.5q-2 -8 2.5 -12.5t13 -7.5t10.5 -5q21 -16 21 -51q0 -40 -17.5 -68t-47.5 -28zM280 425q-38 0 -59 20t-21 52q0 59 14 93q49 119 102 110q8 -1 9.5 -10.5
t-2.5 -23.5t-9 -27t-10 -25.5t-6 -16.5q-2 -8 2.5 -12.5t13 -7.5t10.5 -5q21 -16 21 -51q0 -40 -17.5 -68t-47.5 -28z" />
    <glyph glyph-name="quotedblright" unicode="&#x201d;" horiz-adv-x="375" 
d="M265 701q38 0 59 -20t21 -52q0 -59 -14 -93q-49 -119 -102 -110q-8 1 -9.5 10.5t2.5 23.5t9 27t10 25.5t6 16.5q2 8 -2.5 12.5t-13 7.5t-10.5 5q-21 16 -21 51q0 40 17.5 68t47.5 28zM95 701q38 0 59 -20t21 -52q0 -59 -14 -93q-49 -119 -102 -110q-8 1 -9.5 10.5
t2.5 23.5t9 27t10 25.5t6 16.5q2 8 -2.5 12.5t-13 7.5t-10.5 5q-21 16 -21 51q0 40 17.5 68t47.5 28z" />
    <glyph glyph-name="quotedblbase" unicode="&#x201e;" horiz-adv-x="375" 
d="M265 157q38 0 59 -20t21 -52q0 -59 -14 -93q-49 -119 -102 -110q-8 1 -9.5 10.5t2.5 23.5t9 27t10 25.5t6 16.5q2 8 -2.5 12.5t-13 7.5t-10.5 5q-21 16 -21 51q0 40 17.5 68t47.5 28zM95 157q38 0 59 -20t21 -52q0 -59 -14 -93q-49 -119 -102 -110q-8 1 -9.5 10.5
t2.5 23.5t9 27t10 25.5t6 16.5q2 8 -2.5 12.5t-13 7.5t-10.5 5q-21 16 -21 51q0 40 17.5 68t47.5 28z" />
    <glyph glyph-name="dagger" unicode="&#x2020;" horiz-adv-x="197" 
d="M132 642q0 -11 26 -10h20q5 0 5 -33q0 -34 -4 -34q-7 0 -17 0.5t-14 0.5t-8.5 -1t-6 -4t-1.5 -8v-255q0 -9 -35 -9q-33 0 -33 7v254q0 4 -0.5 7t-2.5 4.5t-3.5 2.5t-5.5 1h-6.5h-8.5h-10q-9 0 -11 7.5t-2 27.5q0 32 14 32q32 0 34 4q2 3 2 9v48q0 7 33 7q35 0 35 -9v-49z
" />
    <glyph glyph-name="daggerdbl" unicode="&#x2021;" horiz-adv-x="197" 
d="M27 566q-9 0 -11 7.5t-2 27.5q0 32 14 32q32 0 34 4q2 3 2 9v48q0 7 33 7q35 0 35 -9v-49q0 -4 2.5 -6.5t8 -3t9.5 -1t11 0t9 0.5q11 0 11 -33q0 -34 -9 -34q-4 0 -12 0.5t-12 0.5t-9 -1t-7 -4t-2 -8v-206q0 -5 3 -8t8.5 -4t10 -1.5t12 0t9.5 0.5q8 0 8 -33q0 -34 -9 -34
q-3 0 -11 0.5t-12 0t-9.5 -1t-7.5 -3t-2 -6.5v-49q0 -8 -35 -8q-33 0 -33 7v47q0 10 -3.5 11.5t-19.5 1.5h-13q-14 0 -14 32v15.5t1.5 10t4 7.5t7.5 2q20 0 28.5 3t8.5 13v200q0 4 -1 6.5t-3 4t-4 2.5t-6 1.5t-6.5 0.5h-8h-8.5z" />
    <glyph glyph-name="bullet" unicode="&#x2022;" horiz-adv-x="259" 
d="M133 383q48 -2 80 -37t32 -84q0 -28 -2.5 -45t-12.5 -38t-34 -33.5t-63 -17.5q-51 -6 -87.5 39t-30.5 101q3 27 8 45.5t17 36.5t35.5 26.5t57.5 6.5z" />
    <glyph glyph-name="ellipsis" unicode="&#x2026;" horiz-adv-x="578" 
d="M402 68q-4 36 19 65t55 24q37 -3 54 -15t17 -29.5t-1 -39.5q-2 -31 -21 -52.5t-49 -23.5q-28 -2 -45 9t-22 25.5t-7 36.5zM216 68q-4 36 19 65t55 24q37 -3 54 -15t17 -29.5t-1 -39.5q-2 -31 -21 -52.5t-49 -23.5q-28 -2 -45 9t-22 25.5t-7 36.5zM30 68q-4 36 19 65
t55 24q37 -3 54 -15t17 -29.5t-1 -39.5q-2 -31 -21 -52.5t-49 -23.5q-28 -2 -45 9t-22 25.5t-7 36.5z" />
    <glyph glyph-name="perthousand" unicode="&#x2030;" horiz-adv-x="670" 
d="M133 15q-6 -15 -50 -15q-48 0 -52 11q-1 1 0 2q189 418 301 673q6 13 49 13q20 0 36 -5t12 -14q-27 -63 -296 -665zM439 82q0 -38 -24 -60t-64 -22q-38 0 -62.5 23t-24.5 59v96q0 37 24.5 59.5t62.5 22.5q40 0 64 -21.5t24 -60.5v-96zM205 521q0 -38 -24 -60t-64 -22
q-38 0 -62.5 23t-24.5 59v96q0 37 24.5 59.5t62.5 22.5q40 0 64 -21.5t24 -60.5v-96zM640 82q0 -38 -24 -60t-64 -22q-38 0 -62.5 23t-24.5 59v96q0 37 24.5 59.5t62.5 22.5q40 0 64 -21.5t24 -60.5v-96zM130 597v4.5v5v4.5t-0.5 4.5t-1 3.5t-1.5 3.5t-2.5 2.5t-3.5 1.5
t-4 0.5q-3 0 -5.5 -1t-3.5 -2.5t-2 -3.5t-1 -5.5v-5.5v-6v-6v-55v-6v-6v-5.5t1 -5.5t2 -3.5t3.5 -2.5t5.5 -1q2 0 4 0.5t3.5 1.5t2.5 2.5t1.5 3.5t1 3.5t0.5 4.5v4.5v5v4.5v55zM364 158v4.5v5v4.5t-0.5 4.5t-1 3.5t-1.5 3.5t-2.5 2.5t-3.5 1.5t-4 0.5q-3 0 -5.5 -1
t-3.5 -2.5t-2 -3.5t-1 -5.5v-5.5v-6v-6v-55v-6v-6v-5.5t1 -5.5t2 -3.5t3.5 -2.5t5.5 -1q2 0 4 0.5t3.5 1.5t2.5 2.5t1.5 3.5t1 3.5t0.5 4.5v4.5v5v4.5v55zM565 158v4.5v5v4.5t-0.5 4.5t-1 3.5t-1.5 3.5t-2.5 2.5t-3.5 1.5t-4 0.5q-3 0 -5.5 -1t-3.5 -2.5t-2 -3.5t-1 -5.5
v-5.5v-6v-6v-55v-6v-6v-5.5t1 -5.5t2 -3.5t3.5 -2.5t5.5 -1q2 0 4 0.5t3.5 1.5t2.5 2.5t1.5 3.5t1 3.5t0.5 4.5v4.5v5v4.5v55z" />
    <glyph glyph-name="guilsinglleft" unicode="&#x2039;" horiz-adv-x="221" 
d="M144 434q3 -2 13.5 -7.5t19.5 -10.5t13 -6q19 -4 5 -24q-87 -132 -87 -138q0 -12 85 -140q13 -20 -5 -24q-4 -1 -14.5 -6.5t-22.5 -12t-15 -8.5q-6 -4 -66 88t-60 102t64 100.5t70 86.5z" />
    <glyph glyph-name="guilsinglright" unicode="&#x203a;" horiz-adv-x="221" 
d="M82 58q-3 2 -13.5 7.5t-19.5 10.5t-13 6q-19 4 -5 24q87 132 87 138q0 12 -85 140q-13 20 5 24q4 1 14.5 6.5t22.5 12t15 8.5q6 4 66 -88t60 -102t-64 -100.5t-70 -86.5z" />
    <glyph glyph-name="fraction" unicode="&#x2044;" horiz-adv-x="333" 
d="M120 15q-3 -7 -31.5 -11t-51.5 -4q-9 0 -17.5 0.5t-17.5 2t-13.5 4t-3.5 6.5q137 410 227 676q3 10 70 10q9 0 20.5 -1.5t22.5 -3.5t17.5 -6t5.5 -8q-42 -123 -116 -339t-112 -326z" />
    <glyph glyph-name="trademark" unicode="&#x2122;" horiz-adv-x="330" 
d="M127 701q4 0 4 -19t-3 -19h-9t-8 0.5t-6 0t-5 -0.5t-3.5 -1.5t-2 -3t-0.5 -4.5v-192q0 -6 -20 -6q-18 0 -18 5v191q0 3 -0.5 5t-2 3.5t-2.5 2t-4 0.5h-5h-6h-7q-6 0 -7.5 3.5t-1.5 16.5q0 18 10 18h97zM262 584q0 19 -8 -7q-3 -9 -9 -32q-4 -15 -6 -20q-2 -7 -11 -7
t-11 8q-18 61 -21 61q-2 0 -2 -7v-118q0 -6 -20 -6q-19 0 -19 5v229q0 11 20 11q10 0 13 -2.5t6 -11.5q30 -101 34 -101t34 104q3 11 19 11q11 0 15 -3t4 -11v-225q0 -6 -19 -6t-19 5v123z" />
    <glyph glyph-name="partialdiff" unicode="&#x2202;" horiz-adv-x="435" 
d="M85 426v138q0 9 9.5 17.5t17.5 8.5h49q8 0 8 7v88q0 15 50 15q18 0 26.5 -1t14.5 -4.5t6 -10.5v-86q0 -8 10 -8h49q9 0 17 -9t8 -22v-136q0 -5 0.5 -7.5t3 -4t8.5 -1.5h43q11 0 13 -7.5t2 -43.5v-7q0 -39 -13 -39h-44q-9 0 -11 -2.5t-2 -10.5v-155q0 -16 -6 -25.5
t-15 -9.5h-56q-7 0 -7 -9v-86q0 -11 -6.5 -13t-40.5 -2q-45 0 -48 4q-2 3 -2 9v90q0 7 -6 7h-50q-12 0 -20 7.5t-8 16.5v166v6.5t-1.5 3.5t-4 2.5t-7.5 0.5h-42q-10 0 -12.5 8.5t-2.5 37.5q0 35 2.5 43t13.5 8h42q9 0 10.5 3t1.5 13zM236 207q17 0 17 17v254q0 15 -11 15
h-49q-11 0 -11 -15v-254q0 -17 17 -17h37z" />
    <glyph glyph-name="product" unicode="&#x220f;" horiz-adv-x="435" 
d="M85 426v138q0 9 9.5 17.5t17.5 8.5h49q8 0 8 7v88q0 15 50 15q18 0 26.5 -1t14.5 -4.5t6 -10.5v-86q0 -8 10 -8h49q9 0 17 -9t8 -22v-136q0 -5 0.5 -7.5t3 -4t8.5 -1.5h43q11 0 13 -7.5t2 -43.5v-7q0 -39 -13 -39h-44q-9 0 -11 -2.5t-2 -10.5v-155q0 -16 -6 -25.5
t-15 -9.5h-56q-7 0 -7 -9v-86q0 -11 -6.5 -13t-40.5 -2q-45 0 -48 4q-2 3 -2 9v90q0 7 -6 7h-50q-12 0 -20 7.5t-8 16.5v166v6.5t-1.5 3.5t-4 2.5t-7.5 0.5h-42q-10 0 -12.5 8.5t-2.5 37.5q0 35 2.5 43t13.5 8h42q9 0 10.5 3t1.5 13zM236 207q17 0 17 17v254q0 15 -11 15
h-49q-11 0 -11 -15v-254q0 -17 17 -17h37z" />
    <glyph glyph-name="summation" unicode="&#x2211;" horiz-adv-x="435" 
d="M85 426v138q0 9 9.5 17.5t17.5 8.5h49q8 0 8 7v88q0 15 50 15q18 0 26.5 -1t14.5 -4.5t6 -10.5v-86q0 -8 10 -8h49q9 0 17 -9t8 -22v-136q0 -5 0.5 -7.5t3 -4t8.5 -1.5h43q11 0 13 -7.5t2 -43.5v-7q0 -39 -13 -39h-44q-9 0 -11 -2.5t-2 -10.5v-155q0 -16 -6 -25.5
t-15 -9.5h-56q-7 0 -7 -9v-86q0 -11 -6.5 -13t-40.5 -2q-45 0 -48 4q-2 3 -2 9v90q0 7 -6 7h-50q-12 0 -20 7.5t-8 16.5v166v6.5t-1.5 3.5t-4 2.5t-7.5 0.5h-42q-10 0 -12.5 8.5t-2.5 37.5q0 35 2.5 43t13.5 8h42q9 0 10.5 3t1.5 13zM236 207q17 0 17 17v254q0 15 -11 15
h-49q-11 0 -11 -15v-254q0 -17 17 -17h37z" />
    <glyph glyph-name="radical" unicode="&#x221a;" horiz-adv-x="435" 
d="M85 426v138q0 9 9.5 17.5t17.5 8.5h49q8 0 8 7v88q0 15 50 15q18 0 26.5 -1t14.5 -4.5t6 -10.5v-86q0 -8 10 -8h49q9 0 17 -9t8 -22v-136q0 -5 0.5 -7.5t3 -4t8.5 -1.5h43q11 0 13 -7.5t2 -43.5v-7q0 -39 -13 -39h-44q-9 0 -11 -2.5t-2 -10.5v-155q0 -16 -6 -25.5
t-15 -9.5h-56q-7 0 -7 -9v-86q0 -11 -6.5 -13t-40.5 -2q-45 0 -48 4q-2 3 -2 9v90q0 7 -6 7h-50q-12 0 -20 7.5t-8 16.5v166v6.5t-1.5 3.5t-4 2.5t-7.5 0.5h-42q-10 0 -12.5 8.5t-2.5 37.5q0 35 2.5 43t13.5 8h42q9 0 10.5 3t1.5 13zM236 207q17 0 17 17v254q0 15 -11 15
h-49q-11 0 -11 -15v-254q0 -17 17 -17h37z" />
    <glyph glyph-name="infinity" unicode="&#x221e;" horiz-adv-x="435" 
d="M85 426v138q0 9 9.5 17.5t17.5 8.5h49q8 0 8 7v88q0 15 50 15q18 0 26.5 -1t14.5 -4.5t6 -10.5v-86q0 -8 10 -8h49q9 0 17 -9t8 -22v-136q0 -5 0.5 -7.5t3 -4t8.5 -1.5h43q11 0 13 -7.5t2 -43.5v-7q0 -39 -13 -39h-44q-9 0 -11 -2.5t-2 -10.5v-155q0 -16 -6 -25.5
t-15 -9.5h-56q-7 0 -7 -9v-86q0 -11 -6.5 -13t-40.5 -2q-45 0 -48 4q-2 3 -2 9v90q0 7 -6 7h-50q-12 0 -20 7.5t-8 16.5v166v6.5t-1.5 3.5t-4 2.5t-7.5 0.5h-42q-10 0 -12.5 8.5t-2.5 37.5q0 35 2.5 43t13.5 8h42q9 0 10.5 3t1.5 13zM236 207q17 0 17 17v254q0 15 -11 15
h-49q-11 0 -11 -15v-254q0 -17 17 -17h37z" />
    <glyph glyph-name="integral" unicode="&#x222b;" horiz-adv-x="435" 
d="M85 426v138q0 9 9.5 17.5t17.5 8.5h49q8 0 8 7v88q0 15 50 15q18 0 26.5 -1t14.5 -4.5t6 -10.5v-86q0 -8 10 -8h49q9 0 17 -9t8 -22v-136q0 -5 0.5 -7.5t3 -4t8.5 -1.5h43q11 0 13 -7.5t2 -43.5v-7q0 -39 -13 -39h-44q-9 0 -11 -2.5t-2 -10.5v-155q0 -16 -6 -25.5
t-15 -9.5h-56q-7 0 -7 -9v-86q0 -11 -6.5 -13t-40.5 -2q-45 0 -48 4q-2 3 -2 9v90q0 7 -6 7h-50q-12 0 -20 7.5t-8 16.5v166v6.5t-1.5 3.5t-4 2.5t-7.5 0.5h-42q-10 0 -12.5 8.5t-2.5 37.5q0 35 2.5 43t13.5 8h42q9 0 10.5 3t1.5 13zM236 207q17 0 17 17v254q0 15 -11 15
h-49q-11 0 -11 -15v-254q0 -17 17 -17h37z" />
    <glyph glyph-name="approxequal" unicode="&#x2248;" horiz-adv-x="435" 
d="M85 426v138q0 9 9.5 17.5t17.5 8.5h49q8 0 8 7v88q0 15 50 15q18 0 26.5 -1t14.5 -4.5t6 -10.5v-86q0 -8 10 -8h49q9 0 17 -9t8 -22v-136q0 -5 0.5 -7.5t3 -4t8.5 -1.5h43q11 0 13 -7.5t2 -43.5v-7q0 -39 -13 -39h-44q-9 0 -11 -2.5t-2 -10.5v-155q0 -16 -6 -25.5
t-15 -9.5h-56q-7 0 -7 -9v-86q0 -11 -6.5 -13t-40.5 -2q-45 0 -48 4q-2 3 -2 9v90q0 7 -6 7h-50q-12 0 -20 7.5t-8 16.5v166v6.5t-1.5 3.5t-4 2.5t-7.5 0.5h-42q-10 0 -12.5 8.5t-2.5 37.5q0 35 2.5 43t13.5 8h42q9 0 10.5 3t1.5 13zM236 207q17 0 17 17v254q0 15 -11 15
h-49q-11 0 -11 -15v-254q0 -17 17 -17h37z" />
    <glyph glyph-name="notequal" unicode="&#x2260;" horiz-adv-x="435" 
d="M85 426v138q0 9 9.5 17.5t17.5 8.5h49q8 0 8 7v88q0 15 50 15q18 0 26.5 -1t14.5 -4.5t6 -10.5v-86q0 -8 10 -8h49q9 0 17 -9t8 -22v-136q0 -5 0.5 -7.5t3 -4t8.5 -1.5h43q11 0 13 -7.5t2 -43.5v-7q0 -39 -13 -39h-44q-9 0 -11 -2.5t-2 -10.5v-155q0 -16 -6 -25.5
t-15 -9.5h-56q-7 0 -7 -9v-86q0 -11 -6.5 -13t-40.5 -2q-45 0 -48 4q-2 3 -2 9v90q0 7 -6 7h-50q-12 0 -20 7.5t-8 16.5v166v6.5t-1.5 3.5t-4 2.5t-7.5 0.5h-42q-10 0 -12.5 8.5t-2.5 37.5q0 35 2.5 43t13.5 8h42q9 0 10.5 3t1.5 13zM236 207q17 0 17 17v254q0 15 -11 15
h-49q-11 0 -11 -15v-254q0 -17 17 -17h37z" />
    <glyph glyph-name="lessequal" unicode="&#x2264;" horiz-adv-x="435" 
d="M85 426v138q0 9 9.5 17.5t17.5 8.5h49q8 0 8 7v88q0 15 50 15q18 0 26.5 -1t14.5 -4.5t6 -10.5v-86q0 -8 10 -8h49q9 0 17 -9t8 -22v-136q0 -5 0.5 -7.5t3 -4t8.5 -1.5h43q11 0 13 -7.5t2 -43.5v-7q0 -39 -13 -39h-44q-9 0 -11 -2.5t-2 -10.5v-155q0 -16 -6 -25.5
t-15 -9.5h-56q-7 0 -7 -9v-86q0 -11 -6.5 -13t-40.5 -2q-45 0 -48 4q-2 3 -2 9v90q0 7 -6 7h-50q-12 0 -20 7.5t-8 16.5v166v6.5t-1.5 3.5t-4 2.5t-7.5 0.5h-42q-10 0 -12.5 8.5t-2.5 37.5q0 35 2.5 43t13.5 8h42q9 0 10.5 3t1.5 13zM236 207q17 0 17 17v254q0 15 -11 15
h-49q-11 0 -11 -15v-254q0 -17 17 -17h37z" />
    <glyph glyph-name="greaterequal" unicode="&#x2265;" horiz-adv-x="435" 
d="M85 426v138q0 9 9.5 17.5t17.5 8.5h49q8 0 8 7v88q0 15 50 15q18 0 26.5 -1t14.5 -4.5t6 -10.5v-86q0 -8 10 -8h49q9 0 17 -9t8 -22v-136q0 -5 0.5 -7.5t3 -4t8.5 -1.5h43q11 0 13 -7.5t2 -43.5v-7q0 -39 -13 -39h-44q-9 0 -11 -2.5t-2 -10.5v-155q0 -16 -6 -25.5
t-15 -9.5h-56q-7 0 -7 -9v-86q0 -11 -6.5 -13t-40.5 -2q-45 0 -48 4q-2 3 -2 9v90q0 7 -6 7h-50q-12 0 -20 7.5t-8 16.5v166v6.5t-1.5 3.5t-4 2.5t-7.5 0.5h-42q-10 0 -12.5 8.5t-2.5 37.5q0 35 2.5 43t13.5 8h42q9 0 10.5 3t1.5 13zM236 207q17 0 17 17v254q0 15 -11 15
h-49q-11 0 -11 -15v-254q0 -17 17 -17h37z" />
    <glyph glyph-name="lozenge" unicode="&#x25ca;" horiz-adv-x="435" 
d="M85 426v138q0 9 9.5 17.5t17.5 8.5h49q8 0 8 7v88q0 15 50 15q18 0 26.5 -1t14.5 -4.5t6 -10.5v-86q0 -8 10 -8h49q9 0 17 -9t8 -22v-136q0 -5 0.5 -7.5t3 -4t8.5 -1.5h43q11 0 13 -7.5t2 -43.5v-7q0 -39 -13 -39h-44q-9 0 -11 -2.5t-2 -10.5v-155q0 -16 -6 -25.5
t-15 -9.5h-56q-7 0 -7 -9v-86q0 -11 -6.5 -13t-40.5 -2q-45 0 -48 4q-2 3 -2 9v90q0 7 -6 7h-50q-12 0 -20 7.5t-8 16.5v166v6.5t-1.5 3.5t-4 2.5t-7.5 0.5h-42q-10 0 -12.5 8.5t-2.5 37.5q0 35 2.5 43t13.5 8h42q9 0 10.5 3t1.5 13zM236 207q17 0 17 17v254q0 15 -11 15
h-49q-11 0 -11 -15v-254q0 -17 17 -17h37z" />
    <glyph glyph-name="apple" unicode="&#xf8ff;" horiz-adv-x="435" 
d="M85 426v138q0 9 9.5 17.5t17.5 8.5h49q8 0 8 7v88q0 15 50 15q18 0 26.5 -1t14.5 -4.5t6 -10.5v-86q0 -8 10 -8h49q9 0 17 -9t8 -22v-136q0 -5 0.5 -7.5t3 -4t8.5 -1.5h43q11 0 13 -7.5t2 -43.5v-7q0 -39 -13 -39h-44q-9 0 -11 -2.5t-2 -10.5v-155q0 -16 -6 -25.5
t-15 -9.5h-56q-7 0 -7 -9v-86q0 -11 -6.5 -13t-40.5 -2q-45 0 -48 4q-2 3 -2 9v90q0 7 -6 7h-50q-12 0 -20 7.5t-8 16.5v166v6.5t-1.5 3.5t-4 2.5t-7.5 0.5h-42q-10 0 -12.5 8.5t-2.5 37.5q0 35 2.5 43t13.5 8h42q9 0 10.5 3t1.5 13zM236 207q17 0 17 17v254q0 15 -11 15
h-49q-11 0 -11 -15v-254q0 -17 17 -17h37z" />
    <glyph glyph-name="fi" unicode="&#xfb01;" horiz-adv-x="506" 
d="M63 321q0 15 -3.5 17.5t-24.5 2.5q-2 0 -4.5 -0.5t-3.5 -0.5t-3 2.5t-2.5 8.5t-1 17.5t-0.5 28.5q0 52 1.5 63t10.5 11q26 0 28 2q3 3 3 63q0 73 49 118.5t126 45.5h36q9 0 10.5 -11t1.5 -63q0 -34 -2 -49.5t-4.5 -18.5t-8.5 -3h-33q-9 0 -14.5 -4.5t-7.5 -16t-2.5 -17.5
t-0.5 -22q0 -19 3 -22q2 -2 58 -2q9 0 10.5 -11t1.5 -63q0 -13 -0.5 -22.5t-0.5 -16t-1 -10t-1.5 -5.5t-2 -2.5t-2.5 -0.5t-3.5 0.5t-3.5 0.5q-41 0 -49.5 -3t-8.5 -17v-303q0 -13 -10.5 -15.5t-63.5 -2.5h-11q-47 0 -56 2t-9 14v305zM398 698q32 -1 53 -24.5t23 -57.5
q1 -25 1 -43.5t-18.5 -31.5t-58.5 -16q-35 -6 -60 25t-20 70q4 38 20 59t60 19zM476 17q0 -12 -10.5 -14.5t-67.5 -2.5q-53 0 -62.5 2t-9.5 13v447q0 13 9 15.5t63 2.5q58 0 68 -2.5t10 -16.5v-444z" />
    <glyph glyph-name="fl" unicode="&#xfb02;" horiz-adv-x="506" 
d="M63 321q0 15 -3.5 17.5t-24.5 2.5q-2 0 -4.5 -0.5t-3.5 -0.5t-3 2.5t-2.5 8.5t-1 17.5t-0.5 28.5q0 52 1.5 63t10.5 11q26 0 28 2q3 3 3 63q0 73 49 118.5t126 45.5h36q9 0 10.5 -11t1.5 -63q0 -34 -2 -49.5t-4.5 -18.5t-8.5 -3h-33q-9 0 -14.5 -4.5t-7.5 -16t-2.5 -17.5
t-0.5 -22q0 -19 3 -22q2 -2 58 -2q9 0 10.5 -11t1.5 -63q0 -13 -0.5 -22.5t-0.5 -16t-1 -10t-1.5 -5.5t-2 -2.5t-2.5 -0.5t-3.5 0.5t-3.5 0.5q-41 0 -49.5 -3t-8.5 -17v-303q0 -13 -10.5 -15.5t-63.5 -2.5h-11q-47 0 -56 2t-9 14v305zM476 17q0 -12 -10.5 -14.5t-67.5 -2.5
q-53 0 -62.5 2t-9.5 13v667q0 13 9 15.5t63 2.5q58 0 68 -2.5t10 -16.5v-664z" />
    </font>
</defs>
</svg>
